<?xml version="1.0" encoding="UTF-8"?><svg id="Layer_59" xmlns="http://www.w3.org/2000/svg" xmlns:xlink="http://www.w3.org/1999/xlink" viewBox="0 0 512 512"><defs><linearGradient id="linear-gradient" x1="235.81" y1="103.07" x2="314.85" y2="460.99" gradientUnits="userSpaceOnUse"><stop offset="0" stop-color="#ff4f37"/><stop offset=".42" stop-color="#ea002d"/><stop offset="1" stop-color="#d30d81"/></linearGradient><radialGradient id="radial-gradient" cx="188.16" cy="165" fx="188.16" fy="165" r="291.01" gradientUnits="userSpaceOnUse"><stop offset=".4" stop-color="#ff4570" stop-opacity="0"/><stop offset=".79" stop-color="#750a77" stop-opacity=".8"/><stop offset=".99" stop-color="#f459ad"/></radialGradient><radialGradient id="radial-gradient-2" cx="266.31" cy="275.13" fx="266.31" fy="275.13" r="222.95" gradientUnits="userSpaceOnUse"><stop offset=".8" stop-color="#fe789b" stop-opacity="0"/><stop offset="1" stop-color="#f11414" stop-opacity=".41"/></radialGradient><radialGradient id="radial-gradient-3" cx="261.71" cy="115.96" fx="261.71" fy="115.96" r="70.67" gradientUnits="userSpaceOnUse"><stop offset=".11" stop-color="#ca1010"/><stop offset=".68" stop-color="#ff3537" stop-opacity="0"/></radialGradient><radialGradient id="radial-gradient-4" cx="152.79" cy="175.04" fx="152.79" fy="175.04" r="87.58" gradientUnits="userSpaceOnUse"><stop offset="0" stop-color="#ffb6b6" stop-opacity=".6"/><stop offset="1" stop-color="#ff0027" stop-opacity="0"/></radialGradient><radialGradient id="radial-gradient-5" cx="356.9" cy="167.66" fx="356.9" fy="167.66" r="74.44" gradientUnits="userSpaceOnUse"><stop offset="0" stop-color="#f99" stop-opacity=".6"/><stop offset="1" stop-color="#ff1f1f" stop-opacity="0"/></radialGradient><radialGradient id="radial-gradient-6" cx="233.08" cy="137.58" fx="233.08" fy="137.58" r="46.45" gradientUnits="userSpaceOnUse"><stop offset="0" stop-color="#d41c18"/><stop offset=".83" stop-color="#f83537" stop-opacity="0"/></radialGradient></defs><path d="M413.68,103.5c-45.06-33.33-116.46-31.13-154.94,11.44-2.21,2.44-6.16,2.39-8.33-.08-35.03-39.74-110.48-45.55-155.05-11.36-37.96,29.12-61.78,100.75-5.26,195.33,44.9,75.14,120.83,132.64,164.42,132.64s121.16-52.77,168.57-132.64c57.07-96.16,29-166.92-9.41-195.33Z" fill="url(#linear-gradient)"/><path d="M413.68,103.5c-45.06-33.33-116.46-31.13-154.94,11.44-2.21,2.44-6.16,2.39-8.33-.08-35.03-39.74-110.48-45.55-155.05-11.36-37.96,29.12-61.78,100.75-5.26,195.33,44.9,75.14,120.83,132.64,164.42,132.64s121.16-52.77,168.57-132.64c57.07-96.16,29-166.92-9.41-195.33Z" fill="url(#radial-gradient)" opacity=".4"/><path d="M413.68,103.5c-45.06-33.33-116.46-31.13-154.94,11.44-2.21,2.44-6.16,2.39-8.33-.08-35.03-39.74-110.48-45.55-155.05-11.36-37.96,29.12-61.78,100.75-5.26,195.33,44.9,75.14,120.83,132.64,164.42,132.64s121.16-52.77,168.57-132.64c57.07-96.16,29-166.92-9.41-195.33Z" fill="url(#radial-gradient-2)"/><path d="M247.74,191.19c-7.55-43.4,6.36-67.22,9.52-74.89-6.71,1.83-7.58-3.88-14.41-8.91-14.9-13.22-33.85-19.29-33.85-19.29,0,0-9.42,70.9,38.75,103.1Z" fill="url(#radial-gradient-3)"/><path d="M169.13,264.65c51.67-12.48,85.74-62.36,76.1-111.43-9.64-49.06-59.33-78.72-111-66.25-51.67,12.48-85.74,62.36-76.1,111.43,9.64,49.06,59.33,78.72,111,66.25Z" fill="url(#radial-gradient-4)"/><path d="M302.21,239.52c50.06,30.92,111.97,25.71,138.29-11.63,26.32-37.34,7.08-92.67-42.98-123.59-50.06-30.92-111.97-25.71-138.29,11.63-26.32,37.34-7.08,92.67,42.98,123.59Z" fill="url(#radial-gradient-5)"/><path d="M280.4,147.77c-4.42,24.93-33.39,40.7-33.39,40.7,0,0-3.64-21.04,.79-45.98,6.48-23.65,7.83-25.84,18.32-34.84,3.13-1.45,18.71,15.18,14.29,40.12Z" fill="url(#radial-gradient-6)"/></svg>