<?xml version="1.0" encoding="UTF-8"?><svg id="Layer_59" xmlns="http://www.w3.org/2000/svg" xmlns:xlink="http://www.w3.org/1999/xlink" viewBox="0 0 512 512"><defs><radialGradient id="radial-gradient" cx="-1534.54" cy="-1693.66" fx="-1534.54" fy="-1693.66" r="1" gradientTransform="translate(197082.34 258548.4) rotate(101.07) scale(140.64 -143.27)" gradientUnits="userSpaceOnUse"><stop offset="0" stop-color="#fff1b6"/><stop offset="1" stop-color="#ffc409"/></radialGradient><linearGradient id="linear-gradient" x1="394.66" y1="-7620.86" x2="358.65" y2="-7610.12" gradientTransform="translate(0 -7372.82) scale(1 -1)" gradientUnits="userSpaceOnUse"><stop offset="0" stop-color="#ffd400" stop-opacity="0"/><stop offset=".99" stop-color="#ff8e00" stop-opacity=".7"/></linearGradient><radialGradient id="radial-gradient-2" cx="-1549.49" cy="-1701.6" fx="-1549.49" fy="-1701.6" r="1" gradientTransform="translate(348287.62 271211.84) rotate(81.71) scale(205.52 -179.39)" gradientUnits="userSpaceOnUse"><stop offset="0" stop-color="#fff1b6"/><stop offset=".56" stop-color="#ffcc10"/></radialGradient><linearGradient id="linear-gradient-2" x1="352.95" y1="-7546.76" x2="318.66" y2="-7552.69" xlink:href="#linear-gradient"/><radialGradient id="radial-gradient-3" cx="-1602.88" cy="-1615.73" fx="-1602.88" fy="-1615.73" r="1" gradientTransform="translate(-144406.31 -171277.35) rotate(-109.04) scale(130.63 -50.08)" gradientUnits="userSpaceOnUse"><stop offset="0" stop-color="#ffca0d"/><stop offset="1" stop-color="#ffe151" stop-opacity="0"/></radialGradient><radialGradient id="radial-gradient-4" cx="-1480.26" cy="-1658.79" fx="-1480.26" fy="-1658.79" r="1" gradientTransform="translate(19246.89 257546.45) rotate(163.75) scale(36.41 -152.15)" gradientUnits="userSpaceOnUse"><stop offset=".19" stop-color="#ffd400" stop-opacity="0"/><stop offset="1" stop-color="#ff8e00" stop-opacity=".85"/></radialGradient><radialGradient id="radial-gradient-5" cx="-1558.39" cy="-1708.6" fx="-1558.39" fy="-1708.6" r="1" gradientTransform="translate(475291.11 60578.74) rotate(54.27) scale(209.53 -205.05)" gradientUnits="userSpaceOnUse"><stop offset="0" stop-color="#fff1b6"/><stop offset="1" stop-color="#ffda2a"/></radialGradient><linearGradient id="linear-gradient-3" x1="294.05" y1="-7522.37" x2="256.77" y2="-7546.8" xlink:href="#linear-gradient"/><radialGradient id="radial-gradient-6" cx="-1604.01" cy="-1635.77" fx="-1604.01" fy="-1635.77" r="1" gradientTransform="translate(-197332.89 -92574.82) rotate(-117.54) scale(108.27 -80.91)" gradientUnits="userSpaceOnUse"><stop offset="0" stop-color="#ffdf3f"/><stop offset="1" stop-color="#ffe151" stop-opacity="0"/></radialGradient><radialGradient id="radial-gradient-7" cx="-1467.25" cy="-1660.48" fx="-1467.25" fy="-1660.48" r="1" gradientTransform="translate(55308.54 192088.02) rotate(145.69) scale(42.75 -114.16)" gradientUnits="userSpaceOnUse"><stop offset=".17" stop-color="#ffd400" stop-opacity="0"/><stop offset="1" stop-color="#ff8e00" stop-opacity=".85"/></radialGradient><radialGradient id="radial-gradient-8" cx="-1558.4" cy="-1702.11" fx="-1558.4" fy="-1702.11" r="1" gradientTransform="translate(555038.86 224379.1) rotate(66.31) scale(274.81 -245.58)" gradientUnits="userSpaceOnUse"><stop offset="0" stop-color="#fff1b6"/><stop offset=".74" stop-color="#ffd400"/><stop offset="1" stop-color="#ffb100"/></radialGradient><linearGradient id="linear-gradient-4" x1="220.91" y1="-7721.21" x2="189.92" y2="-7780.95" xlink:href="#linear-gradient"/><radialGradient id="radial-gradient-9" cx="-1572.57" cy="-1710.95" fx="-1572.57" fy="-1710.95" r="1" gradientTransform="translate(375267.35 -255502.68) rotate(21.21) scale(163.55 -218.68)" gradientUnits="userSpaceOnUse"><stop offset="0" stop-color="#ff8e00" stop-opacity=".7"/><stop offset=".57" stop-color="#ffd400" stop-opacity="0"/></radialGradient><radialGradient id="radial-gradient-10" cx="-1524.42" cy="-1717.24" fx="-1524.42" fy="-1717.24" r="1" gradientTransform="translate(206073.76 91145.17) rotate(75.84) scale(90.84 -103.28)" gradientUnits="userSpaceOnUse"><stop offset="0" stop-color="#e45200" stop-opacity=".89"/><stop offset="1" stop-color="#ffdb2c" stop-opacity="0"/></radialGradient><radialGradient id="radial-gradient-11" cx="-1581.31" cy="-1670.17" fx="-1581.31" fy="-1670.17" r="1" gradientTransform="translate(-506485.33 286373.51) rotate(-142.98) scale(147.02 -319.46)" gradientUnits="userSpaceOnUse"><stop offset="0" stop-color="#ff8d0f"/><stop offset="1" stop-color="#ffd400" stop-opacity="0"/></radialGradient><radialGradient id="radial-gradient-12" cx="-1666.83" cy="-1653.08" fx="-1666.83" fy="-1653.08" r="1" gradientTransform="translate(-107386.1 -84093.18) rotate(-91.2) scale(51.93 -64.01)" gradientUnits="userSpaceOnUse"><stop offset="0" stop-color="#ef7d00" stop-opacity=".6"/><stop offset="1" stop-color="#fed355" stop-opacity="0"/></radialGradient><radialGradient id="radial-gradient-13" cx="-1539.82" cy="-1698.23" fx="-1539.82" fy="-1698.23" r="1" gradientTransform="translate(291948.67 238156.56) rotate(90) scale(154.47 -171.77)" gradientUnits="userSpaceOnUse"><stop offset=".33" stop-color="#ffd400" stop-opacity="0"/><stop offset="1" stop-color="#ff8e00" stop-opacity=".8"/></radialGradient><radialGradient id="radial-gradient-14" cx="-1559.93" cy="-1697.94" fx="-1559.93" fy="-1697.94" r="1" gradientTransform="translate(760237.8 -10888.67) rotate(57.4) scale(256.47 -380.65)" gradientUnits="userSpaceOnUse"><stop offset=".47" stop-color="#ffc42e" stop-opacity="0"/><stop offset="1" stop-color="#ff7dbe"/></radialGradient><radialGradient id="radial-gradient-15" cx="-1496.29" cy="-1715.8" fx="-1496.29" fy="-1715.8" r="1" gradientTransform="translate(127743.33 94536.14) rotate(88.66) scale(64.99 -73.02)" gradientUnits="userSpaceOnUse"><stop offset="0" stop-color="#e85300" stop-opacity=".9"/><stop offset="1" stop-color="#ffce29" stop-opacity="0"/></radialGradient><radialGradient id="radial-gradient-16" cx="-1356.66" cy="-1845.24" fx="-1356.66" fy="-1845.24" r="1" gradientTransform="translate(7708.47 35024.02) rotate(99.97) scale(24.36 -7.17)" gradientUnits="userSpaceOnUse"><stop offset="0" stop-color="#fff" stop-opacity=".4"/><stop offset="1" stop-color="#fff" stop-opacity="0"/></radialGradient><radialGradient id="radial-gradient-17" cx="-1468.1" cy="-2074.29" fx="-1468.1" fy="-2074.29" r="1" gradientTransform="translate(51401.3 21780.38) rotate(58.62) scale(30.66 -15.7)" gradientUnits="userSpaceOnUse"><stop offset="0" stop-color="#fff" stop-opacity=".4"/><stop offset="1" stop-color="#fff" stop-opacity="0"/></radialGradient><radialGradient id="radial-gradient-18" cx="-1526.65" cy="-2190.28" fx="-1526.65" fy="-2190.28" r=".71" gradientTransform="translate(80129.07 21188.82) rotate(45.44) scale(46.56 -19.23)" xlink:href="#radial-gradient-16"/><radialGradient id="radial-gradient-19" cx="-1482.65" cy="-2033.04" fx="-1482.65" fy="-2033.04" r="1" gradientTransform="translate(39580.55 60249.37) rotate(72.98) scale(46.53 -9.8)" gradientUnits="userSpaceOnUse"><stop offset="0" stop-color="#fff" stop-opacity=".3"/><stop offset="1" stop-color="#fff" stop-opacity="0"/></radialGradient><radialGradient id="radial-gradient-20" cx="252.89" cy="280.81" fx="252.89" fy="280.81" r="69.66" gradientUnits="userSpaceOnUse"><stop offset=".34" stop-color="#fff" stop-opacity=".6"/><stop offset="1" stop-color="#fff" stop-opacity="0"/></radialGradient></defs><path d="M418.04,159.67c3.87,25.23-38.97,128.31-60.88,176.7-19.06,25.01-52.06-19.6-48.08-36.08,3.99-16.47,40.4-62.78,48.08-83.8,7.68-21.02,16.79-51.99,21.05-65.91,4.27-13.92,34.99-22.44,39.83,9.09Z" fill="url(#radial-gradient)"/><path d="M418.04,159.67c3.87,25.23-38.97,128.31-60.88,176.7-19.06,25.01-52.06-19.6-48.08-36.08,3.99-16.47,40.4-62.78,48.08-83.8,7.68-21.02,16.79-51.99,21.05-65.91,4.27-13.92,34.99-22.44,39.83,9.09Z" fill="url(#linear-gradient)"/><path d="M290.65,78.38c0,12.21,9.59,47.09,16.27,85.24,3.49,36.21-.78,82.54-.17,116.82,.07,3.62,2.64,6.67,6.16,7.44l42.91,9.36c4.73,1.04,9.27-2.37,9.55-7.21,1.84-31.92,3.68-87.59-.57-112.29-5.87-34.09-17.34-99.35-34.14-114.54-16.8-15.18-40.01-1.7-40.01,15.18Z" fill="url(#radial-gradient-2)"/><path d="M290.65,78.38c0,12.21,9.59,47.09,16.27,85.24,3.49,36.21-.78,82.54-.17,116.82,.07,3.62,2.64,6.67,6.16,7.44l42.91,9.36c4.73,1.04,9.27-2.37,9.55-7.21,1.84-31.92,3.68-87.59-.57-112.29-5.87-34.09-17.34-99.35-34.14-114.54-16.8-15.18-40.01-1.7-40.01,15.18Z" fill="url(#linear-gradient-2)"/><path d="M290.65,78.38c0,12.21,9.59,47.09,16.27,85.24,3.49,36.21-.78,82.54-.17,116.82,.07,3.62,2.64,6.67,6.16,7.44l42.91,9.36c4.73,1.04,9.27-2.37,9.55-7.21,1.84-31.92,3.68-87.59-.57-112.29-5.87-34.09-17.34-99.35-34.14-114.54-16.8-15.18-40.01-1.7-40.01,15.18Z" fill="url(#radial-gradient-3)"/><path d="M290.65,78.38c0,12.21,9.59,47.09,16.27,85.24,3.49,36.21-.78,82.54-.17,116.82,.07,3.62,2.64,6.67,6.16,7.44l42.91,9.36c4.73,1.04,9.27-2.37,9.55-7.21,1.84-31.92,3.68-87.59-.57-112.29-5.87-34.09-17.34-99.35-34.14-114.54-16.8-15.18-40.01-1.7-40.01,15.18Z" fill="url(#radial-gradient-4)" fill-opacity=".5"/><path d="M215.63,138.6c19.87,21.76,44.59,68.71,54.46,88.27,28.3,63.52,60.84,48.61,71.19,34.35,7.44-10.23-11.48-57.75-28.36-98.16-19.31-46.23-76.75-94.61-92.99-99.38-16.25-4.77-30.1,7.63-33.93,20.52-3.82,12.88,4.78,27.2,29.63,54.39Z" fill="url(#radial-gradient-5)"/><path d="M215.63,138.6c19.87,21.76,44.59,68.71,54.46,88.27,28.3,63.52,60.84,48.61,71.19,34.35,7.44-10.23-11.48-57.75-28.36-98.16-19.31-46.23-76.75-94.61-92.99-99.38-16.25-4.77-30.1,7.63-33.93,20.52-3.82,12.88,4.78,27.2,29.63,54.39Z" fill="url(#linear-gradient-3)"/><path d="M215.63,138.6c19.87,21.76,44.59,68.71,54.46,88.27,28.3,63.52,60.84,48.61,71.19,34.35,7.44-10.23-11.48-57.75-28.36-98.16-19.31-46.23-76.75-94.61-92.99-99.38-16.25-4.77-30.1,7.63-33.93,20.52-3.82,12.88,4.78,27.2,29.63,54.39Z" fill="url(#radial-gradient-6)"/><path d="M215.63,138.6c19.87,21.76,44.59,68.71,54.46,88.27,28.3,63.52,60.84,48.61,71.19,34.35,7.44-10.23-11.48-57.75-28.36-98.16-19.31-46.23-76.75-94.61-92.99-99.38-16.25-4.77-30.1,7.63-33.93,20.52-3.82,12.88,4.78,27.2,29.63,54.39Z" fill="url(#radial-gradient-7)" fill-opacity=".5"/><path d="M95.41,308.4c4.92,10.55,13.99,48.71,39.91,80.2,32.47,39.46,96.71,76.4,158.72,64.58,58.55-11.17,76.49-109.66,79.79-159.44,3.9-58.93-115.66-113.57-168.67-120.63-33.6-4.47-60.87,49.8-70.84,69.19-9.97,19.4-7.62,34.48,19.84,40.01,16.77,3.37,43.01-26.48,51-40.9,7.69,2.27,32.01,11.58,44.61,27.1,15.75,19.4-4.72,70.24-33.07,74.96-28.34,4.72-43.38-26.05-47.77-37.87-5.35-14.37-21.13-26.65-43.18-33.46-22.05-6.82-36.94,22.09-30.34,36.26Z" fill="url(#radial-gradient-8)"/><path d="M95.41,308.04c4.92,10.55,17.86,54.76,37.44,77.18,37.23,49.48,107.18,78.26,161.19,67.96,58.55-11.17,76.49-109.66,79.79-159.44,3.9-58.93-115.66-113.57-168.67-120.63-33.6-4.47-60.87,49.8-70.84,69.19-9.97,19.4-7.9,34.35,19.57,39.88,16.76,3.38,43.21-26.36,51.21-40.78,7.69,2.27,32.08,11.59,44.67,27.11,15.75,19.4-4.72,70.24-33.07,74.96-28.34,4.72-43.38-26.05-47.77-37.87-5.35-14.37-21.13-26.65-43.18-33.46-22.04-6.82-36.95,21.73-30.34,35.9Z" fill="url(#linear-gradient-4)"/><path d="M95.41,308.04c4.92,10.55,17.86,54.76,37.44,77.18,37.23,49.48,107.18,78.26,161.19,67.96,58.55-11.17,76.49-109.66,79.79-159.44,3.9-58.93-115.66-113.57-168.67-120.63-33.6-4.47-60.87,49.8-70.84,69.19-9.97,19.4-7.9,34.35,19.57,39.88,16.76,3.38,43.21-26.36,51.21-40.78,7.69,2.27,32.08,11.59,44.67,27.11,15.75,19.4-4.72,70.24-33.07,74.96-28.34,4.72-43.38-26.05-47.77-37.87-5.35-14.37-21.13-26.65-43.18-33.46-22.04-6.82-36.95,21.73-30.34,35.9Z" fill="url(#radial-gradient-9)"/><path d="M94.93,306.94c4.92,10.55,19.2,55.25,39.66,80.54,32.14,39.74,98.53,77.31,159.45,65.7,58.55-11.17,76.49-109.66,79.79-159.44,3.9-58.93-115.66-113.57-168.67-120.63-33.6-4.47-60.87,49.8-70.84,69.19-9.97,19.4-7.9,34.35,19.57,39.88,16.76,3.38,43.21-26.36,51.2-40.78,7.7,2.27,32.08,11.59,44.68,27.11,15.75,19.4-4.72,70.24-33.07,74.96-28.34,4.72-43.38-26.05-47.77-37.87-5.35-14.37-21.13-26.65-43.18-33.46-22.05-6.82-36.44,22.74-30.82,34.8Z" fill="url(#radial-gradient-10)"/><path d="M94.93,306.94c4.92,10.55,19.2,55.25,39.66,80.54,32.14,39.74,98.53,77.31,159.45,65.7,58.55-11.17,76.49-109.66,79.79-159.44,3.9-58.93-115.66-113.57-168.67-120.63-33.6-4.47-60.87,49.8-70.84,69.19-9.97,19.4-7.9,34.35,19.57,39.88,16.76,3.38,43.21-26.36,51.2-40.78,7.7,2.27,32.08,11.59,44.68,27.11,15.75,19.4-4.72,70.24-33.07,74.96-28.34,4.72-43.38-26.05-47.77-37.87-5.35-14.37-21.13-26.65-43.18-33.46-22.05-6.82-36.44,22.74-30.82,34.8Z" fill="url(#radial-gradient-11)"/><path d="M94.93,306.94c4.92,10.55,19.2,55.25,39.66,80.54,32.14,39.74,98.53,77.31,159.45,65.7,58.55-11.17,76.49-109.66,79.79-159.44,3.9-58.93-115.66-113.57-168.67-120.63-33.6-4.47-60.87,49.8-70.84,69.19-9.97,19.4-7.9,34.35,19.57,39.88,16.76,3.38,43.21-26.36,51.2-40.78,7.7,2.27,32.08,11.59,44.68,27.11,15.75,19.4-4.72,70.24-33.07,74.96-28.34,4.72-43.38-26.05-47.77-37.87-5.35-14.37-21.13-26.65-43.18-33.46-22.05-6.82-36.44,22.74-30.82,34.8Z" fill="url(#radial-gradient-12)"/><path d="M94.93,306.94c4.92,10.55,19.2,55.25,39.66,80.54,32.14,39.74,98.53,77.31,159.45,65.7,58.55-11.17,76.49-109.66,79.79-159.44,3.9-58.93-115.66-113.57-168.67-120.63-33.6-4.47-60.87,49.8-70.84,69.19-9.97,19.4-7.9,34.35,19.57,39.88,16.76,3.38,43.21-26.36,51.2-40.78,7.7,2.27,32.08,11.59,44.68,27.11,15.75,19.4-4.72,70.24-33.07,74.96-28.34,4.72-43.38-26.05-47.77-37.87-5.35-14.37-21.13-26.65-43.18-33.46-22.05-6.82-36.44,22.74-30.82,34.8Z" fill="url(#radial-gradient-13)"/><path d="M94.93,306.94c4.92,10.55,19.2,55.25,39.66,80.54,32.14,39.74,98.53,77.31,159.45,65.7,58.55-11.17,76.49-109.66,79.79-159.44,3.9-58.93-115.66-113.57-168.67-120.63-33.6-4.47-60.87,49.8-70.84,69.19-9.97,19.4-7.9,34.35,19.57,39.88,16.76,3.38,43.21-26.36,51.2-40.78,7.7,2.27,32.08,11.59,44.68,27.11,15.75,19.4-4.72,70.24-33.07,74.96-28.34,4.72-43.38-26.05-47.77-37.87-5.35-14.37-21.13-26.65-43.18-33.46-22.05-6.82-36.44,22.74-30.82,34.8Z" fill="url(#radial-gradient-14)" fill-opacity=".8"/><path d="M94.93,306.94c4.92,10.55,19.2,55.25,39.66,80.54,32.14,39.74,98.53,77.31,159.45,65.7,58.55-11.17,76.49-109.66,79.79-159.44,3.9-58.93-115.66-113.57-168.67-120.63-33.6-4.47-60.87,49.8-70.84,69.19-9.97,19.4-7.9,34.35,19.57,39.88,16.76,3.38,43.21-26.36,51.2-40.78,7.7,2.27,32.08,11.59,44.68,27.11,15.75,19.4-4.72,70.24-33.07,74.96-28.34,4.72-43.38-26.05-47.77-37.87-5.35-14.37-21.13-26.65-43.18-33.46-22.05-6.82-36.44,22.74-30.82,34.8Z" fill="url(#radial-gradient-15)" fill-opacity=".5"/><path d="M399.14,203.13c5.44,.95,11.76-9.2,14.13-22.67,2.37-13.47-.11-25.17-5.54-26.12-5.44-.95-11.76,9.2-14.13,22.67-2.37,13.48,.11,25.17,5.54,26.12Z" fill="url(#radial-gradient-16)" isolation="isolate" opacity=".7"/><path d="M169.35,348.13c-7.33,4.45-20.53-3.85-29.5-18.55-8.96-14.7-10.29-30.23-2.97-34.68,7.32-4.45,20.52,3.85,29.49,18.55,8.97,14.69,10.3,30.22,2.98,34.68Z" fill="url(#radial-gradient-17)" isolation="isolate" opacity=".8"/><path d="M271.71,130.6c-5.37,5.28-19.33,.99-37.68-17.64-18.34-18.63-21.91-29.79-16.53-35.07,5.37-5.28,17.65-2.68,36,15.95,18.34,18.63,23.59,31.48,18.21,36.76Z" fill="url(#radial-gradient-18)" isolation="isolate" opacity=".8"/><path d="M349.51,154.59c-7.21,2.2-19.25-16.27-26.9-41.26-7.65-24.99-8.01-47.03-.8-49.23,7.21-2.2,19.25,16.27,26.9,41.26,7.66,24.99,8.01,47.03,.8,49.23Z" fill="url(#radial-gradient-19)" isolation="isolate" opacity=".7"/><g opacity=".7"><path d="M272.73,257.17c3.86,7.4,7.76,15.89,10.24,25.19,.16,.61,.32,1.23,.47,1.86,.06,.23,.11,.46,.17,.69,2.84,12.14,2.72,23.85,2.22,33.53-.1,1.94-.22,3.81-.33,5.57-.78,12.66-1.27,20.47,6.26,18.72,5.95-1.39,11.14-7.57,14.51-16.71,4.38-11.9,5.69-28.82,1.61-46.78-.05-.23-.1-.46-.16-.69-.01-.15-.02-.3-.04-.45-1.37-13.82-6.96-25.82-13.98-34.77-2.66-3.4-5.53-6.35-8.45-8.8-7.35-6.17-15.05-9.13-20.67-7.82-7.62,1.78-3.31,9.58,3.35,21.61,.52,.94,1.05,1.9,1.6,2.89,1.04,1.9,2.12,3.89,3.2,5.96Z" fill="url(#radial-gradient-20)" fill-rule="evenodd"/></g></svg>