<?xml version="1.0" encoding="UTF-8"?><svg id="Layer_59" xmlns="http://www.w3.org/2000/svg" xmlns:xlink="http://www.w3.org/1999/xlink" viewBox="0 0 512 512"><defs><radialGradient id="radial-gradient" cx="-1579.8" cy="-2307.91" fx="-1579.8" fy="-2307.91" r="1" gradientTransform="translate(531835.14 -776486.31) scale(336.49 -336.49)" gradientUnits="userSpaceOnUse"><stop offset="0" stop-color="#fff1b6"/><stop offset=".43" stop-color="#ffd400"/><stop offset=".7" stop-color="#ffd400"/><stop offset="1" stop-color="#ff8e00"/></radialGradient><radialGradient id="radial-gradient-2" cx="-1563.5" cy="-2306.4" fx="-1563.5" fy="-2306.4" r="1" gradientTransform="translate(993921.19 -19532.94) rotate(54.7) scale(356.99 -356.58)" gradientUnits="userSpaceOnUse"><stop offset=".61" stop-color="#ffe437" stop-opacity="0"/><stop offset=".86" stop-color="#ff79b1" stop-opacity=".45"/><stop offset=".99" stop-color="#ff3673" stop-opacity=".56"/></radialGradient><radialGradient id="radial-gradient-3" cx="-1600.14" cy="-2277.44" fx="-1600.14" fy="-2277.44" r="1" gradientTransform="translate(-430583.9 -316593.31) rotate(-90) scale(198.02 -189.18)" gradientUnits="userSpaceOnUse"><stop offset=".85" stop-color="#ffc60c" stop-opacity="0"/><stop offset="1" stop-color="#ff7039" stop-opacity=".68"/></radialGradient><radialGradient id="radial-gradient-4" cx="-1542.31" cy="-2305.43" fx="-1542.31" fy="-2305.43" r="1" gradientTransform="translate(430496.61 290515.13) rotate(90) scale(188.2 -186.62)" gradientUnits="userSpaceOnUse"><stop offset=".78" stop-color="#fe789b" stop-opacity="0"/><stop offset="1" stop-color="#f11414" stop-opacity=".41"/></radialGradient><radialGradient id="radial-gradient-5" cx="-1452.86" cy="-2321.92" fx="-1452.86" fy="-2321.92" r="1" gradientTransform="translate(199989.32 68114.32) rotate(90) scale(46.79 -86.02)" gradientUnits="userSpaceOnUse"><stop offset="0" stop-color="#fff"/><stop offset="1" stop-color="#ffed49" stop-opacity="0"/></radialGradient><linearGradient id="linear-gradient" x1="198.2" y1="149.38" x2="198.2" y2="230.42" gradientUnits="userSpaceOnUse"><stop offset="0" stop-color="#fda535"/><stop offset="1" stop-color="#fff2b7"/></linearGradient><linearGradient id="linear-gradient-2" x1="317.31" y1="149.38" x2="317.31" y2="230.42" xlink:href="#linear-gradient"/><linearGradient id="linear-gradient-3" x1="256.59" y1="258.65" x2="256.59" y2="362.86" xlink:href="#linear-gradient"/><radialGradient id="radial-gradient-6" cx="264.18" cy="518.98" fx="264.18" fy="518.98" r="199.91" gradientUnits="userSpaceOnUse"><stop offset=".72" stop-color="#ef164a"/><stop offset=".89" stop-color="#ff7193"/><stop offset="1" stop-color="#ff8fd0"/></radialGradient><radialGradient id="radial-gradient-7" cx="-1548.45" cy="-2284.08" fx="-1548.45" fy="-2284.08" r="1" gradientTransform="translate(-148694.84 1740406.76) rotate(178.99) scale(115.89 -760.59)" gradientUnits="userSpaceOnUse"><stop offset="0" stop-color="#c9c9c9"/><stop offset="1" stop-color="#d2d2d2" stop-opacity=".6"/></radialGradient></defs><path d="M255.96,436.25c99.41,0,180-80.59,180-180S355.36,76.25,255.96,76.25,75.96,156.84,75.96,256.25s80.59,180,180,180Z" fill="url(#radial-gradient)"/><path d="M255.96,436.25c99.41,0,180-80.59,180-180S355.36,76.25,255.96,76.25,75.96,156.84,75.96,256.25s80.59,180,180,180Z" fill="url(#radial-gradient-2)"/><path d="M256.04,435.75c99.41,0,180-80.59,180-180s-80.59-180-180-180S76.04,156.34,76.04,255.75s80.59,180,180,180Z" fill="url(#radial-gradient-3)" fill-opacity=".8"/><path d="M256.04,75.75c-99.42,0-180,80.59-180,180s80.58,180,180,180,180-80.59,180-180-80.59-180-180-180Z" fill="url(#radial-gradient-4)" fill-opacity=".8"/><g opacity=".4"><path d="M348.46,134.97c0,25.84-41.05,46.79-91.69,46.79s-91.68-20.95-91.68-46.79,41.05-46.79,91.68-46.79,91.69,20.95,91.69,46.79Z" fill="url(#radial-gradient-5)"/></g><path d="M233.59,227.99c-1.01,1.3-3,3.07-6.01,3.07-3.53,0-5.89-2.11-7.18-3.72-1.28-1.6-2.24-3.56-2.98-5.27-.7-1.62-1.39-3.47-2.06-5.26-.07-.17-.13-.35-.2-.52-.75-2.01-1.52-4.03-2.38-6.03-3.63-8.35-7.83-13.58-15.2-13.58-3.92,0-6.43,1.38-8.38,3.45-2.16,2.29-3.81,5.6-5.27,9.6-.68,1.87-1.27,3.75-1.87,5.65l-.09,.28c-.61,1.93-1.26,3.97-1.97,5.76-.68,1.71-1.64,3.77-3.1,5.44-1.64,1.86-4.24,3.54-7.7,3.24-2.61-.22-4.44-1.69-5.51-2.95-1.07-1.24-1.77-2.68-2.27-3.97-.99-2.6-1.59-5.86-1.9-9.29-.63-6.94-.18-15.89,1.72-24.78,1.89-8.84,5.32-18.12,11.05-25.32,5.86-7.38,14.21-12.63,25.29-12.63s19.53,5.4,25.48,12.87c5.83,7.32,9.45,16.74,11.55,25.71,2.11,9.01,2.8,18.06,2.45,25.01-.18,3.43-.62,6.66-1.45,9.22-.4,1.25-1.01,2.73-2.02,4.02Z" fill="url(#linear-gradient)" fill-rule="evenodd"/><path d="M227.58,225.06c7.47,0,5.68-67.89-30-67.89s-36.28,66.23-27.87,66.95c8.41,.72,5.19-33.45,27.87-33.45s22.53,34.38,30,34.38Z" fill="#421d30"/><path d="M281.92,227.99c1.02,1.3,3.01,3.07,6.02,3.07,3.53,0,5.89-2.11,7.18-3.72,1.28-1.6,2.24-3.56,2.98-5.27,.7-1.62,1.39-3.47,2.06-5.26,.06-.17,.13-.35,.19-.52,.76-2.01,1.53-4.03,2.39-6.03,3.63-8.35,7.83-13.58,15.2-13.58,3.92,0,6.42,1.38,8.38,3.45,2.16,2.29,3.81,5.6,5.26,9.6,.69,1.87,1.28,3.75,1.88,5.65l.09,.28c.61,1.93,1.25,3.97,1.97,5.76,.68,1.71,1.64,3.77,3.1,5.44,1.64,1.86,4.24,3.54,7.7,3.24,2.61-.22,4.44-1.69,5.51-2.95,1.06-1.24,1.77-2.68,2.26-3.97,1-2.6,1.6-5.86,1.91-9.29,.62-6.94,.18-15.89-1.72-24.78-1.89-8.84-5.32-18.12-11.05-25.32-5.86-7.38-14.21-12.63-25.29-12.63s-19.54,5.4-25.49,12.87c-5.82,7.32-9.44,16.74-11.54,25.71-2.11,9.01-2.8,18.06-2.45,25.01,.18,3.43,.62,6.66,1.44,9.22,.41,1.25,1.02,2.73,2.02,4.02Z" fill="url(#linear-gradient-2)" fill-rule="evenodd"/><path d="M287.94,225.06c-7.48,0-5.69-67.89,30-67.89s36.28,66.23,27.87,66.95c-8.42,.72-5.19-33.45-27.87-33.45s-22.53,34.38-30,34.38Z" fill="#421d30"/><path d="M141.4,243.57c3.47-1.71,7.63-1.6,11.14,.29,23.2,12.52,63.45,18.82,104.64,18.99,41.14,.17,81.21-5.79,103.78-16.28,3.49-1.62,7.46-1.52,10.73,.15,3.38,1.73,6,5.17,6.19,9.62,1.61,38.18-33.56,108.48-121.93,108.48-43.42,0-73.21-21.63-92.52-44.46-19.07-22.54-27.65-49.32-28.18-66.49-.15-4.73,2.51-8.5,6.15-10.3Z" fill="url(#linear-gradient-3)" fill-rule="evenodd"/><path d="M149.22,250.02c-3.17-1.71-7.09,.03-6.97,3.63,.96,30.99,31.75,101.12,114.08,101.12s116.01-63.56,114.55-98.14c-.14-3.42-3.86-5.16-6.97-3.72-47.94,22.29-165.17,23.84-214.69-2.9Z" fill="#3f1c30"/><path d="M311.85,343.42c-5.1-13.05-27.91-22.88-55.27-22.88s-48.85,9.27-54.78,21.74c14.27,7.35,31.42,12.09,51.81,12.48,.99,.01,1.98,.02,2.97,.02,21.84-.03,40.15-4.36,55.27-11.36Z" fill="url(#radial-gradient-6)"/><path d="M360.33,254.71c0,13.4-10.71,44.65-103.42,44.65s-103.42-34.05-103.42-44.65c0-.86,.02-1.69,.06-2.5,50.45,23.84,158.25,22.46,206.78,2.28v.22Z" fill="#fff"/><path d="M360.33,254.71c0,13.4-56.48,21.99-103.42,21.99s-103.42-11.4-103.42-21.99c0-.86,.02-1.69,.06-2.5,50.45,23.84,158.25,22.46,206.78,2.28v.22Z" fill="url(#radial-gradient-7)"/></svg>