<?xml version="1.0" encoding="UTF-8"?><svg xmlns="http://www.w3.org/2000/svg" xmlns:xlink="http://www.w3.org/1999/xlink" viewBox="0 0 512 512"><defs><radialGradient id="radial-gradient" cx="-1570.92" cy="1332.45" fx="-1570.92" fy="1332.45" r="1" gradientTransform="translate(528848.77 448441.15) scale(336.49 -336.49)" gradientUnits="userSpaceOnUse"><stop offset="0" stop-color="#fff1b6"/><stop offset=".43" stop-color="#ffd400"/><stop offset=".7" stop-color="#ffd400"/><stop offset="1" stop-color="#ff8e00"/></radialGradient><radialGradient id="radial-gradient-2" cx="-1566.94" cy="1335.91" fx="-1566.94" fy="1335.91" r="1" gradientTransform="translate(-65407.91 731896.34) rotate(54.7) scale(356.99 -356.58)" gradientUnits="userSpaceOnUse"><stop offset=".61" stop-color="#ffe437" stop-opacity="0"/><stop offset=".86" stop-color="#ff79b1" stop-opacity=".45"/><stop offset=".99" stop-color="#ff3673" stop-opacity=".56"/></radialGradient><radialGradient id="radial-gradient-3" cx="-1567.46" cy="1345.5" fx="-1567.46" fy="1345.5" r="1" gradientTransform="translate(-479747.47 15239.54) rotate(137.6) scale(232.62 -232.35)" gradientUnits="userSpaceOnUse"><stop offset=".61" stop-color="#ffe437" stop-opacity="0"/><stop offset=".85" stop-color="#ff8979" stop-opacity=".45"/><stop offset=".99" stop-color="#ff6636" stop-opacity=".56"/></radialGradient><radialGradient id="radial-gradient-4" cx="-1581.85" cy="1336.36" fx="-1581.85" fy="1336.36" r="1" gradientTransform="translate(253066.62 -312982.82) rotate(-90) scale(198.02 -189.18)" gradientUnits="userSpaceOnUse"><stop offset=".85" stop-color="#ffc60c" stop-opacity="0"/><stop offset="1" stop-color="#ff7039" stop-opacity=".68"/></radialGradient><radialGradient id="radial-gradient-5" cx="-1561.61" cy="1340.17" fx="-1561.61" fy="1340.17" r="1" gradientTransform="translate(-249845.76 294125.62) rotate(90) scale(188.2 -186.62)" gradientUnits="userSpaceOnUse"><stop offset=".85" stop-color="#fe789b" stop-opacity="0"/><stop offset="1" stop-color="#f11414" stop-opacity=".41"/></radialGradient><radialGradient id="radial-gradient-6" cx="-1530.26" cy="1342.41" fx="-1530.26" fy="1342.41" r="1" gradientTransform="translate(-115217.08 71725.35) rotate(90) scale(46.79 -86.02)" gradientUnits="userSpaceOnUse"><stop offset="0" stop-color="#fff"/><stop offset="1" stop-color="#ffed49" stop-opacity="0"/></radialGradient><radialGradient id="radial-gradient-7" cx="154.26" cy="352.07" fx="154.26" fy="352.07" r="68.1" gradientUnits="userSpaceOnUse"><stop offset="0" stop-color="#ce1e1e"/><stop offset="1" stop-color="#ffa401" stop-opacity="0"/></radialGradient><radialGradient id="radial-gradient-8" cx="-1540.38" cy="1382.26" fx="-1540.38" fy="1382.26" r="1.1" gradientTransform="translate(-34992.55 3504.42) rotate(130.66) scale(18.12 -17.83) skewX(5.89)" xlink:href="#radial-gradient-7"/><radialGradient id="radial-gradient-9" cx="179.54" cy="345.41" fx="179.54" fy="345.41" r="97.1" gradientTransform="translate(-65.04 242.45) rotate(-24.59) scale(1 .57)" gradientUnits="userSpaceOnUse"><stop offset="0" stop-color="#ce1e1e" stop-opacity=".7"/><stop offset="1" stop-color="#ffa401" stop-opacity="0"/></radialGradient><radialGradient id="radial-gradient-10" cx="-1572.9" cy="1326.95" fx="-1572.9" fy="1326.95" r="1" gradientTransform="translate(326416.56 153401.05) rotate(-14.98) scale(175.21 -175.05)" gradientUnits="userSpaceOnUse"><stop offset="0" stop-color="#ffc700"/><stop offset="1" stop-color="#ffb100"/></radialGradient><radialGradient id="radial-gradient-11" cx="-1572.9" cy="1326.95" fx="-1572.9" fy="1326.95" r="1" gradientTransform="translate(326416.05 153400.61) rotate(-14.98) scale(175.21 -175.05)" gradientUnits="userSpaceOnUse"><stop offset="0" stop-color="#fff1b6"/><stop offset=".7" stop-color="#ffd400"/><stop offset="1" stop-color="#ffb100"/></radialGradient><radialGradient id="radial-gradient-12" cx="171.01" cy="310.57" fx="171.01" fy="310.57" r="142.8" gradientUnits="userSpaceOnUse"><stop offset=".64" stop-color="#ffd400" stop-opacity="0"/><stop offset=".99" stop-color="#fa6f39" stop-opacity=".8"/></radialGradient><radialGradient id="radial-gradient-13" cx="19.1" cy="326.1" fx="19.1" fy="326.1" r="122.72" gradientUnits="userSpaceOnUse"><stop offset=".82" stop-color="#ffd400" stop-opacity="0"/><stop offset=".99" stop-color="#ffb638" stop-opacity=".87"/></radialGradient><radialGradient id="radial-gradient-14" cx="-1559.02" cy="1356.29" fx="-1559.02" fy="1356.29" r="1" gradientTransform="translate(-185278.61 57971.65) rotate(127.79) scale(102.1 -82)" gradientUnits="userSpaceOnUse"><stop offset="0" stop-color="#ffde3a"/><stop offset="1" stop-color="#ffdc2f" stop-opacity="0"/></radialGradient><radialGradient id="radial-gradient-15" cx="-1458.32" cy="1294.83" fx="-1458.32" fy="1294.83" r="1" gradientTransform="translate(81.8 26918.17) rotate(70.92) scale(17.25 -6.75)" gradientUnits="userSpaceOnUse"><stop offset="0" stop-color="#fff" stop-opacity=".4"/><stop offset="1" stop-color="#fff" stop-opacity="0"/></radialGradient><linearGradient id="linear-gradient" x1="198.8" y1="-1730.43" x2="178.57" y2="-1740.57" gradientTransform="translate(0 -1323.49) scale(1 -1)" gradientUnits="userSpaceOnUse"><stop offset="0" stop-color="#ffd816"/><stop offset="1" stop-color="#ffd816" stop-opacity="0"/></linearGradient><linearGradient id="linear-gradient-2" x1="190.32" y1="-1738.45" x2="214.55" y2="-1734.9" gradientTransform="translate(0 -1323.49) scale(1 -1)" gradientUnits="userSpaceOnUse"><stop offset="0" stop-color="#ffcf01" stop-opacity="0"/><stop offset=".91" stop-color="#f98702"/></linearGradient><radialGradient id="radial-gradient-16" cx="-1574.96" cy="1518.2" fx="-1574.96" fy="1518.2" r="1" gradientTransform="translate(-44623.63 -10154.96) rotate(171.96) scale(27.24 -11.02)" gradientUnits="userSpaceOnUse"><stop offset=".39" stop-color="#f98702" stop-opacity=".8"/><stop offset="1" stop-color="#ffbe18" stop-opacity="0"/></radialGradient><linearGradient id="linear-gradient-3" x1="188.36" y1="-1713.61" x2="153.79" y2="-1733" gradientTransform="translate(0 -1323.49) scale(1 -1)" gradientUnits="userSpaceOnUse"><stop offset="0" stop-color="#ffd400"/><stop offset="1" stop-color="#ffd816" stop-opacity="0"/></linearGradient><linearGradient id="linear-gradient-4" x1="190.15" y1="-1717.34" x2="218.71" y2="-1713.49" xlink:href="#linear-gradient-2"/><radialGradient id="radial-gradient-17" cx="-1577.99" cy="1517.43" fx="-1577.99" fy="1517.43" r="1" gradientTransform="translate(-54353.43 -12090.5) rotate(175.49) scale(33.85 -11.02)" gradientUnits="userSpaceOnUse"><stop offset=".44" stop-color="#f98702" stop-opacity=".8"/><stop offset="1" stop-color="#ffbe18" stop-opacity="0"/></radialGradient><linearGradient id="linear-gradient-5" x1="195.13" y1="-1682.25" x2="155.59" y2="-1706.46" xlink:href="#linear-gradient"/><linearGradient id="linear-gradient-6" x1="187.23" y1="-1693.42" x2="218.6" y2="-1689.49" xlink:href="#linear-gradient-2"/><radialGradient id="radial-gradient-18" cx="-1569.87" cy="1441.44" fx="-1569.87" fy="1441.44" r="1" gradientTransform="translate(-54092.71 -16159.25) rotate(167.69) scale(31.55 -19.22)" gradientUnits="userSpaceOnUse"><stop offset=".23" stop-color="#f98702" stop-opacity=".8"/><stop offset="1" stop-color="#fba00d" stop-opacity="0"/></radialGradient><radialGradient id="radial-gradient-19" cx="-1570.66" cy="1392.38" fx="-1570.66" fy="1392.38" r="1" gradientTransform="translate(-253908.8 22644.88) rotate(163.5) scale(159.21 -36.46)" gradientUnits="userSpaceOnUse"><stop offset=".14" stop-color="#ffe58a"/><stop offset=".62" stop-color="#ffd400"/><stop offset="1" stop-color="#ffdd37"/></radialGradient><radialGradient id="radial-gradient-20" cx="-1569.26" cy="1643.39" fx="-1569.26" fy="1643.39" r="1" gradientTransform="translate(-82042.13 10587.06) rotate(165.5) scale(52.4 -6.49)" gradientUnits="userSpaceOnUse"><stop offset="0" stop-color="#fff" stop-opacity=".67"/><stop offset="1" stop-color="#fff" stop-opacity="0"/></radialGradient><linearGradient id="linear-gradient-7" x1="252.76" y1="249.06" x2="243.8" y2="295.75" gradientUnits="userSpaceOnUse"><stop offset=".35" stop-color="#fd9e28" stop-opacity=".8"/><stop offset="1" stop-color="#ffe9ad"/></linearGradient><linearGradient id="linear-gradient-8" x1="324.31" y1="175.76" x2="303.4" y2="221.1" gradientUnits="userSpaceOnUse"><stop offset=".03" stop-color="#fd9e28"/><stop offset="1" stop-color="#ffe5a6"/></linearGradient><linearGradient id="linear-gradient-9" x1="210.83" y1="166.95" x2="195.08" y2="215.28" xlink:href="#linear-gradient-8"/></defs><g id="Layer_59"><g><path d="M257.05,424.98c99.41,0,180-80.58,180-179.99s-80.59-180-180-180S77.05,145.57,77.05,244.98s80.58,179.99,180,179.99Z" fill="url(#radial-gradient)"/><path d="M257.05,424.98c99.41,0,180-80.58,180-179.99s-80.59-180-180-180S77.05,145.57,77.05,244.98s80.58,179.99,180,179.99Z" fill="url(#radial-gradient-2)"/><path d="M257.05,424.98c99.41,0,180-80.58,180-179.99s-80.59-180-180-180S77.05,145.57,77.05,244.98s80.58,179.99,180,179.99Z" fill="url(#radial-gradient-3)"/><path d="M257.13,424.49c99.41,0,180-80.59,180-180s-80.59-180-180-180S77.13,145.07,77.13,244.48s80.59,180,180,180Z" fill="url(#radial-gradient-4)" fill-opacity=".8"/><path d="M257.13,64.48c-99.41,0-180,80.59-180,180s80.59,180,180,180,180-80.59,180-180-80.59-180-180-180Z" fill="url(#radial-gradient-5)" fill-opacity=".8"/><g opacity=".4"><path d="M349.55,123.7c0,25.84-41.05,46.79-91.69,46.79s-91.69-20.95-91.69-46.79,41.05-46.79,91.69-46.79,91.69,20.95,91.69,46.79Z" fill="url(#radial-gradient-6)"/></g><path d="M140.02,393.31c-40.34-10.85-66.51-44.03-58.44-74.11,8.06-30.08,47.3-45.67,87.63-34.81,40.33,10.84,66.49,44.03,58.43,74.11-8.06,30.08-47.28,45.67-87.61,34.81Z" fill="url(#radial-gradient-7)" isolation="isolate" opacity=".7"/><path d="M218.44,372.68c-24.66,9.13-36.6-6.78-38.36-12.43-1.76-5.65,9.4-15.04,24.93-20.98,15.52-5.94,29.53-6.17,31.29-.53,1.76,5.65,2.85,25-17.86,33.94Z" fill="url(#radial-gradient-8)" isolation="isolate" opacity=".7"/><path d="M214.62,386.05c-39.95,7.63-108.99-35.79-111.18-47.2-2.19-11.41,40.75-54.69,80.69-62.31,56.83-16.26,91.55,24.69,93.74,36.1,2.19,11.41,4.86,54.85-63.25,73.41Z" fill="url(#radial-gradient-9)" isolation="isolate" opacity=".7"/><path d="M81.43,411.84c13.73,28.67,33.42,42.91,82.74,32.03,16.76-5.66,38.04-14.09,44.49-20.72,4.41-5.3,5.17-13.4,2.15-19.23,.34-.3,.67-.61,.97-.92,6.43-6.73,6.37-19.09-.24-25.33,6.43-7,6.17-19.41-.86-25.39,22.57-6.81,42.06-15.53,54.15-21.7,26.14-11.47,11.98-30.86-7.01-26.5-29.17,4.55-68.6,15.1-96.9,24.75-4.55,1.19-8.69,2.48-12.44,3.84-.35-.23-.72-.46-1.11-.69-6.84-4.24-7.66-14.44-8.59-25.91-.87-10.8-1.83-22.73-8-31.88-15.05-22.34-41.93-11.07-33.67,14.86,6.7,21.06,.95,36.9-6.73,48.03-7.27,10.53-24.61,43.2-8.95,74.75Z" fill="url(#radial-gradient-10)"/><path d="M81.29,411.46c13.73,28.67,27.87,41.62,82.56,32.1,11.45-2,38.25-13.58,44.3-20.85,4.41-5.31,5.17-13.4,2.15-19.23,.34-.3,.67-.61,.97-.92,6.43-6.73,6.37-19.09-.24-25.33,6.43-7,6.17-19.42-.86-25.39,22.57-6.82,42.06-15.54,54.15-21.7,26.14-11.47,14.27-30.17-7.01-26.5-28.54,4.93-69.1,15.84-96.91,24.74-4.54,1.2-8.68,2.49-12.43,3.85-.36-.23-.72-.46-1.11-.69-6.84-4.24-7.66-14.44-8.59-25.91-.87-10.8-1.83-22.73-8-31.88-15.05-22.34-41.93-11.07-33.67,14.86,6.7,21.06,.95,36.9-6.73,48.03-7.27,10.53-24.24,43.26-8.58,74.81Z" fill="url(#radial-gradient-11)"/><path d="M167.12,442.93c-54.1,12.62-72.1-2.8-85.83-31.47-15.66-31.55,1.31-64.28,8.58-74.81,7.68-11.13,43.71-13.35,57-5.12,22.46,13.92,2.23,10.04,16.36,8.39,28.27-3.3,25.58,3.27,29.93,15.45,6.88,11.01,15.08,48.04,7.57,72.08-4.85,4.11-25.99,12.84-33.6,15.48h-.01Z" fill="url(#radial-gradient-12)"/><path d="M164.03,327.26c-.18,.18-3.49,1.84-10.27,3.2-4.43,.89-9.39-.05-11.49-4.04-6.36-12.07-1.19-36.64-11.99-52.67-15.06-22.34-41.94-11.06-33.68,14.86,6.71,21.07,.96,36.9-6.73,48.03-2.65,3.83-6.59,10.62-9.76,19.23,35.26,14.04,68.53-13.03,83.92-28.62Z" fill="url(#radial-gradient-13)"/><path d="M164.03,327.26c-.18,.18-3.49,1.84-10.27,3.2-4.43,.89-9.39-.05-11.49-4.04-6.36-12.07-1.19-36.64-11.99-52.67-15.06-22.34-41.94-11.06-33.68,14.86,6.71,21.07,.96,36.9-6.73,48.03-2.65,3.83-6.59,10.62-9.76,19.23,35.26,14.04,68.53-13.03,83.92-28.62Z" fill="url(#radial-gradient-14)"/><path d="M121.01,301.66c4.91-1.7,6.32-10.49,3.15-19.65-3.17-9.16-9.71-15.21-14.62-13.51-4.91,1.69-6.32,10.49-3.15,19.65,3.17,9.15,9.71,15.2,14.62,13.51Z" fill="url(#radial-gradient-15)"/><path d="M155.95,405.63c-12.06,4.63-9.4,28.03,3.26,29.85,16.92,2.43,42.11-3.56,49.46-12.4,7.34-8.83,4.71-25.33-8.49-26.7-13.2-1.37-32.18,4.63-44.23,9.25Z" fill="url(#linear-gradient)"/><path d="M155.95,405.63c-12.06,4.63-9.4,28.03,3.26,29.85,16.92,2.43,42.11-3.56,49.46-12.4,7.34-8.83,4.71-25.33-8.49-26.7-13.2-1.37-32.18,4.63-44.23,9.25Z" fill="url(#linear-gradient-2)"/><path d="M210.53,403.81c-6.65,5.26-22.26,10.27-37.11,12.65,8.46-.47,29.69,2.96,38.43,0,.65-2.35,1.87-7.83-1.32-12.65Z" fill="url(#radial-gradient-16)"/><path d="M151.1,384.31c-14.04,5.11-14.11,31.95,3.3,32.62,19.54,.74,48.64-4.83,57.42-14,8.77-9.18,5.64-28.66-9.5-29.56-15.14-.89-37.18,5.83-51.22,10.94Z" fill="url(#linear-gradient-3)"/><path d="M151.1,384.31c-14.04,5.11-14.11,31.95,3.3,32.62,19.54,.74,48.64-4.83,57.42-14,8.77-9.18,5.64-28.66-9.5-29.56-15.14-.89-37.18,5.83-51.22,10.94Z" fill="url(#linear-gradient-4)"/><path d="M211.76,377.63c-1.55,3.66-22.85,11.12-36.46,14.29,8.46-.47,32.64-.31,41.38-3.27-.31-3.4-1.7-7.72-4.92-11.02Z" fill="url(#radial-gradient-17)"/><path d="M143.74,360.83c-14.57,5.7-15.12,30.73,3.18,32.58,22.62,2.28,55.26-6.28,64.29-15.5,9.03-9.22,5.94-28.68-9.54-29.49-15.47-.81-43.69,6.83-57.93,12.41Z" fill="url(#linear-gradient-5)"/><path d="M143.74,360.83c-14.57,5.7-15.12,30.73,3.18,32.58,22.62,2.28,55.26-6.28,64.29-15.5,9.03-9.22,5.94-28.68-9.54-29.49-15.47-.81-43.69,6.83-57.93,12.41Z" fill="url(#linear-gradient-6)"/><path d="M174.77,358.95c-8.26,3.01-9.31,14.35,.8,14.64,12.49,.36,31.74-2.48,37.03-6.92,5.96-2.93,1.3-12.68-3.18-15.88-8.57,.09-26.58,5.21-34.65,8.16Z" fill="url(#radial-gradient-18)"/><path d="M152.73,330.81c-57.92,15.24-42.9,43.88,5.76,31.46,42.57-3,85.81-20.83,106.56-31.46,26.5-11.75,15.68-32.57-7.73-27.14-34.46,8-76.42,17.06-104.59,27.14Z" fill="url(#radial-gradient-19)"/><g opacity=".6"><path d="M203.69,318.83c-23.8,6.37-41.39,12.1-50.58,15.61-3.64,1.39-7.81,.62-10.1-2.53-5.13-7.08-11.75-17.12-17.15-14.61-10.99,4.08,1.67,32.11,10.03,34.61,8.37,2.49,59.6-18.97,70.83-21.98,31.09-8.32,55.3-17.49,54.32-21.12-.97-3.64-26.26,1.69-57.35,10.02Z" fill="url(#radial-gradient-20)"/></g></g></g><g id="Layer_62"><path d="M334.66,139.28c-15.05-7.83-27.68-8.59-35.26-6.41-2.95,.86-5.59,4.24-6,7.12-.22,1.52,.26,3.53,1.02,5.24,1.17,2.6,3.83,3.56,6.49,4.12,24.04,3.44,32.67,6.95,49.34,19.9,4.03,3.13,9.26,10.45,12,8.41,2.74-2.04,3.15-8-3.89-18.26-5.94-8.67-14.83-15.5-23.72-20.13h.02Z" fill="#5c3147"/><path d="M202.48,125.34c18.54,0,30.53,12.14,35.54,17.94,2.59,3.01,4.24,6.03,3.91,10.7-.15,2.15-1.82,4.64-3.95,5.14-5.57,1.29-9.04-2.84-13.41-6.82-17.55-16.01-37.88-13.62-56.98,1.71-3.15,2.53-8.58,5.39-9.4,2.53-1.2-4.23,5.39-11.73,7.77-13.9,4.4-4.02,17.03-17.29,36.51-17.29Z" fill="#5c3147"/><g><path d="M313.24,254.16c10.91,1.95,10.6,13.8,3.63,19.9-20.32,17.91-45.89,24.54-79.62,21.36-26.57-3.93-51.84-19.32-57.11-41.47-1.02-9.83,13.19-14.49,19.84-7.67,9.82,7.3,14.7,11.93,38.9,16.03,28.42,4.19,45.04,.63,55.26-2.78,6.94-1.96,11.78-5.91,19.09-5.37Z" fill="url(#linear-gradient-7)" fill-rule="evenodd"/><path d="M238.01,268.25c58.71,8.66,70.28-14.57,77.3-6.45,6.05,6.99-29.44,33.79-77.3,27.67-37.42-4.79-56.32-34.38-51.01-38.59,10.34-8.21,8.3,11.07,51.01,17.37Z" fill="#421d30"/></g><g><path d="M339.41,202.85c-1.25,15.62-13.42,28.9-28.87,27.49-15.45-1.41-25.34-16.7-24.1-32.33,1.25-15.62,13.42-28.9,28.87-27.48,15.45,1.41,25.34,16.7,24.1,32.32Z" fill="url(#linear-gradient-8)" fill-rule="evenodd"/><path d="M333.44,202.3c-1.05,13.21-11.09,23.09-22.42,22.05s-19.65-12.59-18.6-25.8c1.05-13.21,11.09-23.08,22.41-22.05,11.33,1.04,19.65,12.59,18.6,25.8Z" fill="#421d30"/></g><g><path d="M229.26,194.1c-1.25,15.62-13.42,28.9-28.87,27.48-15.45-1.41-25.34-16.7-24.1-32.33,1.25-15.62,13.42-28.9,28.87-27.49,15.45,1.41,25.34,16.7,24.1,32.33Z" fill="url(#linear-gradient-9)" fill-rule="evenodd"/><path d="M223.28,193.55c-1.05,13.21-11.09,23.08-22.42,22.05-11.33-1.04-19.65-12.59-18.6-25.8s11.09-23.08,22.42-22.05c11.33,1.04,19.65,12.59,18.6,25.8Z" fill="#421d30"/></g></g></svg>