<?xml version="1.0" encoding="UTF-8"?><svg id="Layer_59" xmlns="http://www.w3.org/2000/svg" xmlns:xlink="http://www.w3.org/1999/xlink" viewBox="0 0 512 512"><defs><radialGradient id="radial-gradient" cx="-1586.04" cy="-1141.3" fx="-1586.04" fy="-1141.3" r="1" gradientTransform="translate(77620.92 -73200.8) rotate(11.36) scale(38.75 -76.28)" gradientUnits="userSpaceOnUse"><stop offset="0" stop-color="#ffa800"/><stop offset="1" stop-color="#e38800"/></radialGradient><radialGradient id="radial-gradient-2" cx="-1513.55" cy="-1029.05" fx="-1513.55" fy="-1029.05" r="1" gradientTransform="translate(-41758.15 88551.17) rotate(168.64) scale(38.75 -76.28)" xlink:href="#radial-gradient"/><linearGradient id="linear-gradient" x1="217.49" y1="-6320.89" x2="272.19" y2="-6212.33" gradientTransform="translate(0 -6162.96) scale(1 -1)" gradientUnits="userSpaceOnUse"><stop offset=".34" stop-color="#ffd400" stop-opacity="0"/><stop offset=".99" stop-color="#fffbea" stop-opacity=".5"/></linearGradient><linearGradient id="linear-gradient-2" x1="294.51" y1="-6320.89" x2="239.81" y2="-6212.33" xlink:href="#linear-gradient"/><radialGradient id="radial-gradient-3" cx="-1546.15" cy="-1083.69" fx="-1546.15" fy="-1083.69" r="1" gradientTransform="translate(702687.47 261401.4) rotate(90) scale(168.99 -648.19)" gradientUnits="userSpaceOnUse"><stop offset="0" stop-color="#f4a022"/><stop offset=".39" stop-color="#e69c2f"/><stop offset="1" stop-color="#cd5604"/></radialGradient><linearGradient id="linear-gradient-3" x1="256" y1="-6278.41" x2="256" y2="-6443.71" gradientTransform="translate(0 -6162.96) scale(1 -1)" gradientUnits="userSpaceOnUse"><stop offset="0" stop-color="#ff9c00"/><stop offset=".48" stop-color="#d16102"/><stop offset="1" stop-color="#ff9d3a" stop-opacity=".3"/></linearGradient><radialGradient id="radial-gradient-4" cx="-1587.14" cy="-1120.39" fx="-1587.14" fy="-1120.39" r="1" gradientTransform="translate(124433.78 -119333.63) rotate(4.37) scale(72.29 -114.7)" gradientUnits="userSpaceOnUse"><stop offset="0" stop-color="#ffce00"/><stop offset="1" stop-color="#e3810d"/></radialGradient><radialGradient id="radial-gradient-5" cx="-1547.63" cy="-1044.47" fx="-1547.63" fy="-1044.47" r="1" gradientTransform="translate(-102152.94 128047.86) rotate(175.63) scale(72.29 -114.7)" xlink:href="#radial-gradient-4"/><linearGradient id="linear-gradient-4" x1="219.83" y1="-6305.07" x2="233.6" y2="-6213.51" gradientTransform="translate(0 -6162.96) scale(1 -1)" gradientUnits="userSpaceOnUse"><stop offset=".34" stop-color="#ffd400" stop-opacity="0"/><stop offset=".99" stop-color="#fff7cf" stop-opacity=".5"/></linearGradient><linearGradient id="linear-gradient-5" x1="292.17" y1="-6305.07" x2="278.4" y2="-6213.51" xlink:href="#linear-gradient-4"/><radialGradient id="radial-gradient-6" cx="-1487.1" cy="-979.48" fx="-1487.1" fy="-979.48" r="1" gradientTransform="translate(-30796.06 45350.21) rotate(169.16) scale(26.25 -39.41)" gradientUnits="userSpaceOnUse"><stop offset="0" stop-color="#f07e00"/><stop offset="1" stop-color="#fcc523" stop-opacity="0"/></radialGradient><radialGradient id="radial-gradient-7" cx="-1594.31" cy="-1197.14" fx="-1594.31" fy="-1197.14" r="1" gradientTransform="translate(50199.96 -38366.76) rotate(10.84) scale(26.25 -39.41)" xlink:href="#radial-gradient-6"/><radialGradient id="radial-gradient-8" cx="-1578.28" cy="-1095.02" fx="-1578.28" fy="-1095.02" r="1" gradientTransform="translate(349800.47 -350032.1) rotate(.73) scale(218.66 -323.8)" gradientUnits="userSpaceOnUse"><stop offset="0" stop-color="#ffe780"/><stop offset=".7" stop-color="#ffd400"/><stop offset="1" stop-color="#ffb100"/></radialGradient><radialGradient id="radial-gradient-9" cx="-1588.07" cy="-1098.27" fx="-1588.07" fy="-1098.27" r="1" gradientTransform="translate(153546.41 -290545.17) rotate(-4.83) scale(111.67 -251.98)" gradientUnits="userSpaceOnUse"><stop offset=".42" stop-color="#ffd400" stop-opacity="0"/><stop offset="1" stop-color="#ff8e00" stop-opacity=".8"/></radialGradient><radialGradient id="radial-gradient-10" cx="-1565.18" cy="-1068.05" fx="-1565.18" fy="-1068.05" r="1" gradientTransform="translate(-337522.94 350265.95) rotate(179.27) scale(218.66 -323.8)" xlink:href="#radial-gradient-8"/><radialGradient id="radial-gradient-11" cx="-1562.5" cy="-1063.73" fx="-1562.5" fy="-1063.73" r="1" gradientTransform="translate(-196107.55 252541.29) rotate(-175.16) scale(111.67 -251.98)" xlink:href="#radial-gradient-9"/><linearGradient id="linear-gradient-6" x1="195.62" y1="-6450.27" x2="268.41" y2="-6259.13" gradientTransform="translate(0 -6162.96) scale(1 -1)" gradientUnits="userSpaceOnUse"><stop offset=".34" stop-color="#ffd400" stop-opacity="0"/><stop offset=".99" stop-color="#fff8d3" stop-opacity=".5"/></linearGradient><radialGradient id="radial-gradient-12" cx="-40.76" cy="149.93" fx="-40.76" fy="149.93" r="361.78" gradientUnits="userSpaceOnUse"><stop offset=".74" stop-color="#ffdc2f" stop-opacity="0"/><stop offset="1" stop-color="#f07e00" stop-opacity=".8"/></radialGradient><radialGradient id="radial-gradient-13" cx="-1552.96" cy="-1088.01" fx="-1552.96" fy="-1088.01" r="1" gradientTransform="translate(242426.9 355282.6) rotate(89.8) scale(229.2 -221.54)" gradientUnits="userSpaceOnUse"><stop offset=".4" stop-color="#ffd260" stop-opacity="0"/><stop offset="1" stop-color="#ff7dbe"/></radialGradient><radialGradient id="radial-gradient-14" cx="-1516.53" cy="-1294.36" fx="-1516.53" fy="-1294.36" r="1" gradientTransform="translate(41100.14 99145.36) rotate(75.66) scale(69.89 -11.6)" gradientUnits="userSpaceOnUse"><stop offset="0" stop-color="#fff" stop-opacity=".4"/><stop offset="0" stop-color="#fff" stop-opacity=".4"/><stop offset="0" stop-color="#fff" stop-opacity=".5"/><stop offset="1" stop-color="#fff" stop-opacity="0"/></radialGradient><linearGradient id="linear-gradient-7" x1="316.38" y1="-6450.27" x2="243.59" y2="-6259.13" xlink:href="#linear-gradient-6"/><radialGradient id="radial-gradient-15" cx="-1561.78" cy="-1099.99" fx="-1561.78" fy="-1099.99" r="1" gradientTransform="translate(409809.23 99410.85) rotate(47.86) scale(223.05 -215.6)" gradientUnits="userSpaceOnUse"><stop offset=".47" stop-color="#ffd260" stop-opacity="0"/><stop offset="1" stop-color="#ff7dbe"/></radialGradient><radialGradient id="radial-gradient-16" cx="605.55" cy="114.36" fx="605.55" fy="114.36" r="407.94" gradientUnits="userSpaceOnUse"><stop offset=".77" stop-color="#ffce29" stop-opacity="0"/><stop offset="1" stop-color="#e85300" stop-opacity=".9"/></radialGradient><radialGradient id="radial-gradient-17" cx="-1581.12" cy="-1039.14" fx="-1581.12" fy="-1039.14" r="1" gradientTransform="translate(-185084.3 23925.43) rotate(-150.92) scale(95.28 -106.59)" gradientUnits="userSpaceOnUse"><stop offset="0" stop-color="#eb8311" stop-opacity=".8"/><stop offset="1" stop-color="#ffdc2f" stop-opacity="0"/></radialGradient><radialGradient id="radial-gradient-18" cx="-1547.04" cy="-1093.99" fx="-1547.04" fy="-1093.99" r="1" gradientTransform="translate(165377.13 255097.62) rotate(86.4) scale(171.06 -136.15)" gradientUnits="userSpaceOnUse"><stop offset="0" stop-color="#d757ff"/><stop offset=".49" stop-color="#b01bff"/><stop offset=".9" stop-color="#7000d1"/></radialGradient><linearGradient id="linear-gradient-8" x1="129.23" y1="403.84" x2="37.75" y2="361.29" gradientUnits="userSpaceOnUse"><stop offset="0" stop-color="#b827ff" stop-opacity="0"/><stop offset="1" stop-color="#f45959"/></linearGradient><radialGradient id="radial-gradient-19" cx="-1545.98" cy="-1089.97" fx="-1545.98" fy="-1089.97" r="1" gradientTransform="translate(131897.01 273583.41) rotate(93.6) scale(171.06 -136.15)" xlink:href="#radial-gradient-18"/><linearGradient id="linear-gradient-9" x1="322.34" y1="-6531.54" x2="452.07" y2="-6578.52" gradientTransform="translate(0 -6162.96) scale(1 -1)" gradientUnits="userSpaceOnUse"><stop offset=".44" stop-color="#ff4570" stop-opacity="0"/><stop offset=".99" stop-color="#f45959"/></linearGradient></defs><path d="M198.54,122.88c-3.38,27.84-11.54,68.31-25.51,110.82l65.72,11.74c6.23-56.01,9.65-169.8,9.65-186.25,0-32.72-33.59-31.02-38.88-14.76-4.71,14.5-8.85,60.85-10.98,78.45Z" fill="url(#radial-gradient)"/><path d="M313.46,122.88c3.38,27.84,11.54,68.31,25.51,110.82l-65.72,11.74c-6.23-56.01-9.65-169.8-9.65-186.25,0-32.72,33.59-31.02,38.88-14.76,4.71,14.5,8.84,60.85,10.98,78.45Z" fill="url(#radial-gradient-2)"/><path d="M198.54,122.88c-3.38,27.84-11.54,68.31-25.51,110.82l65.72,11.74c6.23-56.01,9.65-169.8,9.65-186.25,0-32.72-33.59-31.02-38.88-14.76-4.71,14.5-8.85,60.85-10.98,78.45Z" fill="url(#linear-gradient)"/><path d="M313.46,122.88c3.38,27.84,11.54,68.31,25.51,110.82l-65.72,11.74c-6.23-56.01-9.65-169.8-9.65-186.25,0-32.72,33.59-31.02,38.88-14.76,4.71,14.5,8.84,60.85,10.98,78.45Z" fill="url(#linear-gradient-2)"/><path d="M255.83,317.18c-5.53-17.21-20.45-70.31-20.78-87.37-.32-16.81,9.46-98.28,15.27-146.64,.22-1.79,.43-3.53,.63-5.22h10.11c.2,1.69,.41,3.44,.62,5.22,5.81,48.36,15.6,129.83,15.28,146.64-.33,17.06-15.26,70.16-20.78,87.37v1.08c-.06-.17-.12-.35-.18-.53-.06,.18-.11,.36-.17,.53v-1.08Z" fill="url(#radial-gradient-3)" fill-rule="evenodd"/><path d="M255.83,317.18c-5.53-17.21-20.45-70.31-20.78-87.37-.32-16.81,9.46-98.28,15.27-146.64,.22-1.79,.43-3.53,.63-5.22h10.11c.2,1.69,.41,3.44,.62,5.22,5.81,48.36,15.6,129.83,15.28,146.64-.33,17.06-15.26,70.16-20.78,87.37v1.08c-.06-.17-.12-.35-.18-.53-.06,.18-.11,.36-.17,.53v-1.08Z" fill="url(#linear-gradient-3)" fill-opacity=".8" fill-rule="evenodd"/><path d="M203.34,109.88c-3.67,14.13-16.37,77.21-30.33,119.22l65.72,11.61c6.22-55.35,16.3-146.44,17.42-162.66,2.56-37.02-35.68-29.6-40.39-15.28-4.71,14.33-7.98,29.97-12.42,47.1Z" fill="url(#radial-gradient-4)"/><path d="M308.65,109.88c3.67,14.13,16.37,77.21,30.33,119.22l-65.72,11.61c-6.22-55.35-16.3-146.44-17.42-162.66-2.56-37.02,35.68-29.6,40.39-15.28,4.71,14.33,7.98,29.97,12.42,47.1Z" fill="url(#radial-gradient-5)"/><path d="M203.34,109.88c-3.67,14.13-16.37,77.21-30.33,119.22l65.72,11.61c6.22-55.35,16.3-146.44,17.42-162.66,2.56-37.02-35.68-29.6-40.39-15.28-4.71,14.33-7.98,29.97-12.42,47.1Z" fill="url(#linear-gradient-4)"/><path d="M308.65,109.88c3.67,14.13,16.37,77.21,30.33,119.22l-65.72,11.61c-6.22-55.35-16.3-146.44-17.42-162.66-2.56-37.02,35.68-29.6,40.39-15.28,4.71,14.33,7.98,29.97,12.42,47.1Z" fill="url(#linear-gradient-5)"/><path d="M287.39,137.92c-13.38,2.12-27.2-14.86-30.87-37.93-3.67-23.07,4.2-43.49,17.58-45.61,13.38-2.12,27.2,14.86,30.87,37.93,3.67,23.07-4.2,43.49-17.58,45.61Z" fill="url(#radial-gradient-6)" isolation="isolate" opacity=".7"/><path d="M225.65,137.92c13.38,2.12,27.2-14.86,30.87-37.93,3.67-23.07-4.2-43.49-17.58-45.61-13.38-2.12-27.2,14.86-30.87,37.93-3.67,23.07,4.2,43.49,17.58,45.61Z" fill="url(#radial-gradient-7)" isolation="isolate" opacity=".7"/><path d="M152.54,261.79c-15.33,27.98-42.19,51.53-53.36,61.93l78.02,102.84c9.67-24.89,39.33-21.28,64.23-49.82,27.89-31.98,8.57-130.77,3.77-149.51-4.8-18.75,6.35-92.74,3.83-120.8-2.53-28.06-32.73-25.35-37.28-6.45-3.8,15.76-40.04,126.84-59.21,161.81Z" fill="url(#radial-gradient-8)"/><path d="M152.54,261.79c-15.33,27.98-42.19,51.53-53.36,61.93l78.02,102.84c9.67-24.89,39.33-21.28,64.23-49.82,27.89-31.98,8.57-130.77,3.77-149.51-4.8-18.75,6.35-92.74,3.83-120.8-2.53-28.06-32.73-25.35-37.28-6.45-3.8,15.76-40.04,126.84-59.21,161.81Z" fill="url(#radial-gradient-9)"/><path d="M359.46,261.79c15.33,27.98,42.19,51.53,53.36,61.93l-78.02,102.84c-9.67-24.89-39.34-21.28-64.23-49.82-27.9-31.98-8.57-130.77-3.77-149.51,4.8-18.75-6.35-92.74-3.83-120.8,2.53-28.06,32.72-25.35,37.28-6.45,3.8,15.76,40.04,126.84,59.21,161.81Z" fill="url(#radial-gradient-10)"/><path d="M359.46,261.79c15.33,27.98,42.19,51.53,53.36,61.93l-78.02,102.84c-9.67-24.89-39.34-21.28-64.23-49.82-27.9-31.98-8.57-130.77-3.77-149.51,4.8-18.75-6.35-92.74-3.83-120.8,2.53-28.06,32.72-25.35,37.28-6.45,3.8,15.76,40.04,126.84,59.21,161.81Z" fill="url(#radial-gradient-11)"/><path d="M152.54,261.79c-15.33,27.98-42.19,51.53-53.36,61.93l78.02,102.84c9.67-24.89,39.33-21.28,64.23-49.82,27.89-31.98,8.57-130.77,3.77-149.51-4.8-18.75,6.35-92.74,3.83-120.8-2.53-28.06-32.73-25.35-37.28-6.45-3.8,15.76-40.04,126.84-59.21,161.81Z" fill="url(#linear-gradient-6)"/><path d="M152.54,261.79c-15.33,27.98-42.19,51.53-53.36,61.93l78.02,102.84c9.67-24.89,39.33-21.28,64.23-49.82,27.89-31.98,8.57-130.77,3.77-149.51-4.8-18.75,6.35-92.74,3.83-120.8-2.53-28.06-32.73-25.35-37.28-6.45-3.8,15.76-40.04,126.84-59.21,161.81Z" fill="url(#radial-gradient-12)"/><path d="M152.54,261.79c-15.33,27.98-42.19,51.53-53.36,61.93l78.02,102.84c9.67-24.89,39.33-21.28,64.23-49.82,27.89-31.98,8.57-130.77,3.77-149.51-4.8-18.75,6.35-92.74,3.83-120.8-2.53-28.06-32.73-25.35-37.28-6.45-3.8,15.76-40.04,126.84-59.21,161.81Z" fill="url(#radial-gradient-13)" fill-opacity=".5"/><path d="M325.67,236.54c-5.92,1.51-18.59-28.1-28.31-66.13-9.72-38.03-12.81-70.08-6.89-71.59,5.92-1.51,18.59,28.1,28.31,66.13,9.72,38.03,12.8,70.08,6.89,71.59Z" fill="url(#radial-gradient-14)" isolation="isolate" opacity=".8"/><path d="M359.46,261.79c15.33,27.98,42.19,51.53,53.36,61.93l-78.02,102.84c-9.67-24.89-39.34-21.28-64.23-49.82-27.9-31.98-8.57-130.77-3.77-149.51,4.8-18.75-6.35-92.74-3.83-120.8,2.53-28.06,32.72-25.35,37.28-6.45,3.8,15.76,40.04,126.84,59.21,161.81Z" fill="url(#linear-gradient-7)"/><path d="M359.46,261.79c15.33,27.98,42.19,51.53,53.36,61.93l-78.02,102.84c-9.67-24.89-39.34-21.28-64.23-49.82-27.9-31.98-8.57-130.77-3.77-149.51,4.8-18.75-6.35-92.74-3.83-120.8,2.53-28.06,32.72-25.35,37.28-6.45,3.8,15.76,40.04,126.84,59.21,161.81Z" fill="url(#radial-gradient-15)" fill-opacity=".8"/><path d="M359.46,261.79c15.33,27.98,42.19,51.53,53.36,61.93l-78.02,102.84c-9.67-24.89-39.34-21.28-64.23-49.82-27.9-31.98-8.57-130.77-3.77-149.51,4.8-18.75-6.35-92.74-3.83-120.8,2.53-28.06,32.72-25.35,37.28-6.45,3.8,15.76,40.04,126.84,59.21,161.81Z" fill="url(#radial-gradient-16)" fill-opacity=".5"/><path d="M359.46,261.79c15.33,27.98,42.19,51.53,53.36,61.93l-78.02,102.84c-9.67-24.89-39.34-21.28-64.23-49.82-27.9-31.98-8.57-130.77-3.77-149.51,4.8-18.75-6.35-92.74-3.83-120.8,2.53-28.06,32.72-25.35,37.28-6.45,3.8,15.76,40.04,126.84,59.21,161.81Z" fill="url(#radial-gradient-17)"/><path d="M183.34,427.4l-83.95-110.63c-2.53-3.33-7.26-4.01-10.61-1.52l-40.74,30.14c-3.28,2.43-4.07,7-1.8,10.38l80.26,119.74c2.57,3.83,7.93,4.52,11.39,1.47l44.42-39.26c2.99-2.64,3.44-7.14,1.03-10.32Z" fill="url(#radial-gradient-18)"/><path d="M183.34,427.4l-83.95-110.63c-2.53-3.33-7.26-4.01-10.61-1.52l-40.74,30.14c-3.28,2.43-4.07,7-1.8,10.38l80.26,119.74c2.57,3.83,7.93,4.52,11.39,1.47l44.42-39.26c2.99-2.64,3.44-7.14,1.03-10.32Z" fill="url(#linear-gradient-8)" fill-opacity=".9"/><path d="M328.66,427.4l83.95-110.63c2.53-3.33,7.26-4.01,10.61-1.52l40.74,30.14c3.28,2.43,4.07,7,1.8,10.38l-80.26,119.74c-2.57,3.83-7.93,4.52-11.39,1.47l-44.42-39.26c-2.99-2.64-3.44-7.14-1.03-10.32Z" fill="url(#radial-gradient-19)"/><path d="M328.66,427.4l83.95-110.63c2.53-3.33,7.26-4.01,10.61-1.52l40.74,30.14c3.28,2.43,4.07,7,1.8,10.38l-80.26,119.74c-2.57,3.83-7.93,4.52-11.39,1.47l-44.42-39.26c-2.99-2.64-3.44-7.14-1.03-10.32Z" fill="url(#linear-gradient-9)" fill-opacity=".9"/></svg>