<?xml version="1.0" encoding="UTF-8"?><svg id="Layer_59" xmlns="http://www.w3.org/2000/svg" xmlns:xlink="http://www.w3.org/1999/xlink" viewBox="0 0 512 512"><defs><radialGradient id="radial-gradient" cx="-1567.29" cy="1939.21" fx="-1567.29" fy="1939.21" r="1" gradientTransform="translate(527619.77 652617.02) scale(336.49 -336.49)" gradientUnits="userSpaceOnUse"><stop offset="0" stop-color="#fff1b6"/><stop offset=".43" stop-color="#ffd400"/><stop offset=".7" stop-color="#ffd400"/><stop offset="1" stop-color="#ff8e00"/></radialGradient><radialGradient id="radial-gradient-2" cx="-1566.36" cy="1944.64" fx="-1566.36" fy="1944.64" r="1" gradientTransform="translate(-242694.03 857155.84) rotate(54.7) scale(356.99 -356.58)" gradientUnits="userSpaceOnUse"><stop offset=".61" stop-color="#ffe437" stop-opacity="0"/><stop offset=".86" stop-color="#ff79b1" stop-opacity=".45"/><stop offset=".99" stop-color="#ff3673" stop-opacity=".56"/></radialGradient><radialGradient id="radial-gradient-3" cx="-1578.76" cy="1934.83" fx="-1578.76" fy="1934.83" r="1" gradientTransform="translate(366277.11 -312359.78) rotate(-90) scale(198.02 -189.18)" gradientUnits="userSpaceOnUse"><stop offset=".85" stop-color="#ffc60c" stop-opacity="0"/><stop offset="1" stop-color="#ff7039" stop-opacity=".68"/></radialGradient><radialGradient id="radial-gradient-4" cx="-1564.86" cy="1951.66" fx="-1564.86" fy="1951.66" r="1" gradientTransform="translate(-363967.42 294748.66) rotate(90) scale(188.2 -186.62)" gradientUnits="userSpaceOnUse"><stop offset=".85" stop-color="#fe789b" stop-opacity="0"/><stop offset="1" stop-color="#f11414" stop-opacity=".41"/></radialGradient><radialGradient id="radial-gradient-5" cx="-1543.34" cy="1961.57" fx="-1543.34" fy="1961.57" r="1" gradientTransform="translate(-168482.75 72348.48) rotate(90) scale(46.79 -86.02)" gradientUnits="userSpaceOnUse"><stop offset="0" stop-color="#fff"/><stop offset="1" stop-color="#ffed49" stop-opacity="0"/></radialGradient><linearGradient id="linear-gradient" x1="326.45" y1="-315.88" x2="315.79" y2="-352.5" gradientTransform="translate(0 -113.62) scale(1 -1)" gradientUnits="userSpaceOnUse"><stop offset=".03" stop-color="#fd9e28"/><stop offset="1" stop-color="#ffdf90"/></linearGradient><linearGradient id="linear-gradient-2" x1="211.19" y1="-311.82" x2="188.58" y2="-357.28" xlink:href="#linear-gradient"/><linearGradient id="linear-gradient-3" x1="266.23" y1="-395.64" x2="266.23" y2="-481.82" gradientTransform="translate(0 -113.62) scale(1 -1)" gradientUnits="userSpaceOnUse"><stop offset="0" stop-color="#fd9e28" stop-opacity=".57"/><stop offset=".43" stop-color="#ffcf5e"/><stop offset="1" stop-color="#ffe25e" stop-opacity=".8"/></linearGradient><radialGradient id="radial-gradient-6" cx="-1578.37" cy="1963.16" fx="-1578.37" fy="1963.16" r="1" gradientTransform="translate(-245335.6 -79659.12) rotate(149.96) scale(109.33 -97.76)" gradientUnits="userSpaceOnUse"><stop offset=".82" stop-color="#9c2800"/><stop offset="1" stop-color="#c24c1e"/></radialGradient><radialGradient id="radial-gradient-7" cx="-1554.28" cy="1935.6" fx="-1554.28" fy="1935.6" r="1" gradientTransform="translate(98032.24 234932.53) rotate(19.32) scale(109.29 -97.79)" xlink:href="#radial-gradient-6"/><radialGradient id="radial-gradient-8" cx="-1567.15" cy="1985.85" fx="-1567.15" fy="1985.85" r="1" gradientTransform="translate(-103633.39 -20967.64) rotate(126.48) scale(28.5 -48.48)" gradientUnits="userSpaceOnUse"><stop offset="0" stop-color="#e80000"/><stop offset="1" stop-color="#ffa101" stop-opacity="0"/></radialGradient><radialGradient id="radial-gradient-9" cx="-1570.09" cy="1997.81" fx="-1570.09" fy="1997.81" r="1" gradientTransform="translate(-91256.04 -6311.63) rotate(128.56) scale(33.09 -37.94)" gradientUnits="userSpaceOnUse"><stop offset="0" stop-color="#e80000"/><stop offset="1" stop-color="#ffcb02" stop-opacity="0"/></radialGradient><radialGradient id="radial-gradient-10" cx="-1580.66" cy="1985.24" fx="-1580.66" fy="1985.24" r="1" gradientTransform="translate(-116500.98 -29250.49) rotate(141.41) scale(46.1 -48.37)" gradientUnits="userSpaceOnUse"><stop offset="0" stop-color="#c40000"/><stop offset="1" stop-color="#ff9c02" stop-opacity="0"/></radialGradient><linearGradient id="linear-gradient-4" x1="386.27" y1="-398.95" x2="356.51" y2="-509.84" gradientTransform="translate(0 -113.62) scale(1 -1)" gradientUnits="userSpaceOnUse"><stop offset="0" stop-color="#ff6464"/><stop offset=".42" stop-color="#ff1a1a"/><stop offset="1" stop-color="#d1002d"/></linearGradient><linearGradient id="linear-gradient-5" x1="391.53" y1="-400.29" x2="337.88" y2="-516.51" gradientTransform="translate(0 -113.62) scale(1 -1)" gradientUnits="userSpaceOnUse"><stop offset="0" stop-color="#ff4f37"/><stop offset=".42" stop-color="#ea002d"/><stop offset="1" stop-color="#d30d81"/></linearGradient><radialGradient id="radial-gradient-11" cx="-1552.71" cy="1947.1" fx="-1552.71" fy="1947.1" r="1" gradientTransform="translate(-59451.46 255681.37) rotate(51.77) scale(105.36 -105.31)" gradientUnits="userSpaceOnUse"><stop offset=".62" stop-color="#e20a26" stop-opacity="0"/><stop offset="1" stop-color="#c40000"/></radialGradient><radialGradient id="radial-gradient-12" cx="-1637.93" cy="1974.27" fx="-1637.93" fy="1974.27" r="1" gradientTransform="translate(-30049.74 -66055.29) rotate(-164.98) scale(28.43 -28.47)" gradientUnits="userSpaceOnUse"><stop offset="0" stop-color="#f99" stop-opacity=".6"/><stop offset="1" stop-color="#ff1f1f" stop-opacity="0"/></radialGradient></defs><path d="M251.52,436.25c99.41,0,180-80.59,180-180S350.93,76.25,251.52,76.25,71.52,156.84,71.52,256.25s80.59,180,180,180Z" fill="url(#radial-gradient)"/><path d="M251.52,436.25c99.41,0,180-80.59,180-180S350.93,76.25,251.52,76.25,71.52,156.84,71.52,256.25s80.59,180,180,180Z" fill="url(#radial-gradient-2)"/><path d="M251.61,435.75c99.41,0,180-80.59,180-180S351.02,75.75,251.61,75.75,71.61,156.34,71.61,255.75s80.59,180,180,180Z" fill="url(#radial-gradient-3)" fill-opacity=".8"/><path d="M251.61,75.75c-99.41,0-180,80.59-180,180s80.59,180,180,180,180-80.59,180-180S351.02,75.75,251.61,75.75Z" fill="url(#radial-gradient-4)" fill-opacity=".8"/><g opacity=".4"><path d="M344.02,134.97c0,25.84-41.05,46.79-91.69,46.79s-91.69-20.95-91.69-46.79,41.05-46.79,91.69-46.79,91.69,20.95,91.69,46.79Z" fill="url(#radial-gradient-5)"/></g><path d="M275.58,240.63l.04,.03c1.79,1.52,4.05,2.51,6.66,2.4,2.35-.1,4.27-1.07,5.59-1.9,1.33-.83,2.64-1.9,3.74-2.82,.25-.21,.49-.41,.73-.61,.94-.78,1.85-1.55,2.88-2.35,4.81-3.72,11.55-7.66,23.35-6.48,9.14,.92,14.23,4.37,17.98,7.97,1.47,1.42,2.66,2.77,3.93,4.21,.52,.59,1.04,1.19,1.61,1.82,1.75,1.93,4.03,4.32,7,5.79,1.39,.69,3.28,1.16,5.36,.64,2.08-.52,3.51-1.81,4.39-3.03,1.57-2.18,1.97-4.89,2.07-6.9,.2-4.39-.9-10.07-3.33-15.7-4.94-11.45-16.05-24.17-35.87-26.15-18.87-1.89-32.41,6.37-40.37,15.7-3.93,4.6-6.61,9.58-7.94,13.94-.66,2.15-1.07,4.42-.96,6.57,.05,1.04,.25,2.46,.88,3.86l-.1,1,2.17,1.84c.06,.05,.13,.11,.19,.16Z" fill="url(#linear-gradient)" fill-rule="evenodd"/><path d="M279.5,236.09c6.77,5.75,12.14-15.91,39.67-13.15,21.41,2.14,25.17,16.71,32.59,20.38,7.42,3.67,3.64-36.35-30.65-39.79-33.2-3.32-46.82,28.81-41.61,32.56h0Z" fill="#421d30"/><path d="M218.16,246.48c-4.67,6.08-11.54,10.33-19.58,10.33s-14.9-4.25-19.58-10.33c-4.67-6.07-7.38-14.2-7.38-22.93s2.71-16.86,7.38-22.93c4.67-6.08,11.54-10.33,19.58-10.33s14.9,4.25,19.58,10.33c4.67,6.07,7.38,14.2,7.38,22.93s-2.72,16.86-7.38,22.93Z" fill="url(#linear-gradient-2)" fill-rule="evenodd"/><path d="M219.54,223.54c0,15.05-9.38,27.26-20.96,27.26s-20.96-12.21-20.96-27.26,9.38-27.26,20.96-27.26,20.96,12.2,20.96,27.26Z" fill="#421d30"/><path d="M288.81,286.81c3.86,3.67,6.2,8.59,6.2,14.7,0,10.71-7.11,17.29-14.13,20.86-.07,.04-.14,.07-.21,.11,.21,.14,.43,.28,.64,.42,3.38,2.27,6.69,5.09,9.21,8.37,2.5,3.26,4.5,7.36,4.5,12.03,0,6.05-2.2,10.9-6.04,14.47-3.61,3.37-8.3,5.27-12.8,6.47-4.55,1.22-9.51,1.88-14.06,2.41-1.11,.13-2.2,.25-3.25,.36-3.42,.38-6.51,.72-9.32,1.22-5.66,.99-11.13-3.29-11.13-9.3,0-5.27,4.17-9.03,8.69-9.52,4.37-.47,9.19-1.95,12.79-3.81,1.81-.94,3.04-1.84,3.73-2.54,.07-.07,.13-.13,.18-.19-.11-.27-.34-.68-.79-1.24-.9-1.12-2.36-2.42-4.43-3.88-3.2-2.26-7.01-4.35-10.95-6.51-1.25-.69-2.51-1.38-3.76-2.09-6.32-3.55-6.15-12.62,.53-15.78,2.2-1.04,4.58-2.08,6.87-3.08,.67-.29,1.33-.58,1.98-.87,2.94-1.29,5.66-2.53,8-3.79,2.39-1.28,4.03-2.41,5.02-3.38,.38-.37,.57-.63,.67-.79-.08-.13-.24-.35-.57-.65-.85-.8-2.33-1.74-4.54-2.65-4.39-1.83-10.27-3.01-15.45-3.36-4.76-.32-8.94-4.22-8.94-9.46s4.45-9.69,9.94-9.3c.89,.06,1.82,.13,2.8,.19,7.42,.49,17.24,1.14,25.47,3.57,4.71,1.39,9.49,3.52,13.16,7Zm-21.8,14.81s0-.01-.01-.04c.01,.03,.01,.04,.01,.04Zm0-.3s0-.03,.01-.03,0,.01-.01,.03Zm-2.95,41.21s0,.01-.02,.03c0-.02,.01-.03,.02-.03Z" fill="url(#linear-gradient-3)" fill-rule="evenodd"/><path d="M289.02,301.51c0-17.69-26.15-18.35-42.06-19.48-1.91-.14-3.51,1.4-3.51,3.31s1.5,3.35,3.34,3.48c11.31,.76,26.21,5.14,26.21,12.69s-15.06,12.09-26.02,17.28c-2.21,1.05-2.3,3.93-.16,5.13,9.81,5.52,23.1,11.84,23.1,19.38,0,5.34-12,10.97-22.17,12.08-1.84,.2-3.34,1.7-3.34,3.55,0,2.15,1.98,3.76,4.1,3.39,15.62-2.75,40.52-1.25,40.52-19.02,0-11.68-20.05-22.08-28.29-22.08,8.78,0,28.29-4.62,28.29-19.71Z" fill="#3f1c30"/><path d="M167.11,157.59c16.35-9.45,29.53-11.7,38.01-9.73,3.3,.77,5.7,3.18,6.27,6.33,.2,1.11,.07,2.48-.27,3.84-1.09,4.3-5.51,6.06-9.86,6.92-20.11,3.96-35.06,10.53-51.65,24.6-4.34,3.67-11.31,13.74-14.43,11.66-3.12-2.09,1.45-11.96,5.61-18.17,6.45-9.64,16.68-19.89,26.34-25.47v.02Z" fill="url(#radial-gradient-6)"/><path d="M167.11,157.59c16.35-9.45,29.53-11.7,38.01-9.73,3.3,.77,5.7,3.18,6.27,6.33,.2,1.11,.07,2.48-.27,3.84-1.09,4.3-5.51,6.06-9.86,6.92-20.11,3.96-35.06,10.53-51.65,24.6-4.34,3.67-11.31,13.74-14.43,11.66-3.12-2.09,1.45-11.96,5.61-18.17,6.45-9.64,16.68-19.89,26.34-25.47v.02Z" fill="#421d30"/><path d="M333.32,163.13c-17.82-6.25-31.18-6.01-39.16-2.48-3.1,1.38-5.01,4.19-4.99,7.39,0,1.13,.39,2.45,.98,3.72,1.86,4.03,6.54,4.93,10.98,4.97,20.49,.15,36.39,3.82,55.3,14.56,4.94,2.8,13.73,10.89,16.41,8.26,2.68-2.63-4.45-12.47-8.49-16.59-8.12-8.27-20.53-16.15-31.05-19.84l.02,.02Z" fill="url(#radial-gradient-7)"/><path d="M333.32,163.13c-17.82-6.25-31.18-6.01-39.16-2.48-3.1,1.38-5.01,4.19-4.99,7.39,0,1.13,.39,2.45,.98,3.72,1.86,4.03,6.54,4.93,10.98,4.97,20.49,.15,36.39,3.82,55.3,14.56,4.94,2.8,13.73,10.89,16.41,8.26,2.68-2.63-4.45-12.47-8.49-16.59-8.12-8.27-20.53-16.15-31.05-19.84l.02,.02Z" fill="#814d1e"/><path d="M333.32,163.13c-17.82-6.25-31.18-6.01-39.16-2.48-3.1,1.38-5.01,4.19-4.99,7.39,0,1.13,.39,2.45,.98,3.72,1.86,4.03,6.54,4.93,10.98,4.97,20.49,.15,36.39,3.82,55.3,14.56,4.94,2.8,13.73,10.89,16.41,8.26,2.68-2.63-4.45-12.47-8.49-16.59-8.12-8.27-20.53-16.15-31.05-19.84l.02,.02Z" fill="#421d30"/><path d="M298.04,343.56c8.61,33.37,37.69,54.7,64.93,47.64,27.25-7.05,42.36-39.83,33.74-73.2-8.61-33.37-37.68-54.7-64.93-47.64-27.25,7.06-42.35,39.83-33.74,73.2Z" fill="url(#radial-gradient-8)"/><path d="M359.66,299.92c1.75,19.24,18.79,33.41,38.06,31.65s33.47-18.78,31.71-38.02c-1.75-19.24-18.79-33.41-38.06-31.65-19.27,1.76-33.47,18.79-31.71,38.02Z" fill="url(#radial-gradient-9)" isolation="isolate" opacity=".6"/><path d="M304.77,363.84c9.69,25.38,35.73,38.99,58.17,30.4,22.44-8.59,32.78-36.13,23.09-61.51-9.69-25.38-35.73-38.99-58.17-30.4-22.44,8.59-32.78,36.13-23.09,61.51Z" fill="url(#radial-gradient-10)"/><path d="M332.12,267.93c18.79-10.29,44.88,.6,53.36,20.4,15.43-12.24,46.08-8.73,56.39,9.06,8.34,14.37,13.92,42.44-16.23,67.94-24.99,19.83-58.54,33.48-68.97,30.68-10.43-2.8-32.67-31.42-44.41-61.11-13.39-37.19,5.29-58.99,19.86-66.97Z" fill="url(#linear-gradient-4)"/><path d="M332.12,267.93c18.79-10.29,44.88,.6,53.36,20.4,15.43-12.24,46.08-8.73,56.39,9.06,8.34,14.37,13.92,42.44-16.23,67.94-24.99,19.83-58.54,33.48-68.97,30.68-10.43-2.8-32.67-31.42-44.41-61.11-13.39-37.19,5.29-58.99,19.86-66.97Z" fill="url(#linear-gradient-5)"/><path d="M332.12,267.93c18.79-10.29,44.88,.6,53.36,20.4,15.43-12.24,46.08-8.73,56.39,9.06,8.34,14.37,13.92,42.44-16.23,67.94-24.99,19.83-58.54,33.48-68.97,30.68-10.43-2.8-32.67-31.42-44.41-61.11-13.39-37.19,5.29-58.99,19.86-66.97Z" fill="url(#radial-gradient-11)"/><path d="M347.07,324.22c-15.37-4.13-24.49-19.95-20.37-35.34,4.12-15.4,19.92-24.53,35.29-20.41,15.37,4.12,24.49,19.95,20.37,35.34-4.12,15.4-19.92,24.53-35.29,20.41Z" fill="url(#radial-gradient-12)" isolation="isolate" opacity=".9"/></svg>