<?xml version="1.0" encoding="UTF-8"?><svg id="Layer_59" xmlns="http://www.w3.org/2000/svg" xmlns:xlink="http://www.w3.org/1999/xlink" viewBox="0 0 512 512"><defs><radialGradient id="radial-gradient" cx="-1569.12" cy="725.75" fx="-1569.12" fy="725.75" r="1" gradientTransform="translate(528241.14 244302.5) scale(336.49 -336.49)" gradientUnits="userSpaceOnUse"><stop offset="0" stop-color="#fff1b6"/><stop offset=".43" stop-color="#ffd400"/><stop offset=".7" stop-color="#ffd400"/><stop offset="1" stop-color="#ff8e00"/></radialGradient><radialGradient id="radial-gradient-2" cx="-1564.6" cy="731.4" fx="-1564.6" fy="731.4" r="1" gradientTransform="translate(110041.58 606674.05) rotate(54.7) scale(356.99 -356.58)" gradientUnits="userSpaceOnUse"><stop offset=".61" stop-color="#ffe437" stop-opacity="0"/><stop offset=".86" stop-color="#ff79b1" stop-opacity=".45"/><stop offset=".99" stop-color="#ff3673" stop-opacity=".56"/></radialGradient><radialGradient id="radial-gradient-3" cx="-1584.86" cy="728.23" fx="-1584.86" fy="728.23" r="1" gradientTransform="translate(138019.51 -313568.65) rotate(-90) scale(198.02 -189.18)" gradientUnits="userSpaceOnUse"><stop offset=".85" stop-color="#ffc60c" stop-opacity="0"/><stop offset="1" stop-color="#ff7039" stop-opacity=".68"/></radialGradient><radialGradient id="radial-gradient-4" cx="-1558.44" cy="738.49" fx="-1558.44" fy="738.49" r="1" gradientTransform="translate(-137560.72 293539.79) rotate(90) scale(188.2 -186.62)" gradientUnits="userSpaceOnUse"><stop offset=".85" stop-color="#fe789b" stop-opacity="0"/><stop offset="1" stop-color="#f11414" stop-opacity=".41"/></radialGradient><radialGradient id="radial-gradient-5" cx="-1517.5" cy="744.53" fx="-1517.5" fy="744.53" r="1" gradientTransform="translate(-63788.04 71139.44) rotate(90) scale(46.79 -86.02)" gradientUnits="userSpaceOnUse"><stop offset="0" stop-color="#fff"/><stop offset="1" stop-color="#ffed49" stop-opacity="0"/></radialGradient><radialGradient id="radial-gradient-6" cx="357.94" cy="199.9" fx="357.94" fy="199.9" r="55.19" gradientTransform="translate(-41.75 265.71) rotate(-38.97)" gradientUnits="userSpaceOnUse"><stop offset=".46" stop-color="#d75639"/><stop offset="1" stop-color="#ffa637" stop-opacity="0"/></radialGradient><radialGradient id="radial-gradient-7" cx="193.87" cy="45.19" fx="193.87" fy="45.19" r="55.19" gradientTransform="translate(-3.33 77.57) rotate(24.14)" xlink:href="#radial-gradient-6"/><linearGradient id="linear-gradient" x1="256.22" y1="-2787.73" x2="256.22" y2="-2893.14" gradientTransform="translate(0 -2533.36) scale(1 -1)" gradientUnits="userSpaceOnUse"><stop offset="0" stop-color="#fd9e28" stop-opacity=".4"/><stop offset="1" stop-color="#fff2b7"/></linearGradient><radialGradient id="radial-gradient-8" cx="253.44" cy="509.13" fx="253.44" fy="509.13" r="183" gradientUnits="userSpaceOnUse"><stop offset=".83" stop-color="#ef164a"/><stop offset=".9" stop-color="#ff71a4"/><stop offset="1" stop-color="#ff7294"/></radialGradient><radialGradient id="radial-gradient-9" cx="-1579.92" cy="736.7" fx="-1579.92" fy="736.7" r="1" gradientTransform="translate(-192640.2 -556756.1) rotate(178.99) scale(115.89 -760.59)" gradientUnits="userSpaceOnUse"><stop offset="0" stop-color="#c9c9c9"/><stop offset="1" stop-color="#d2d2d2" stop-opacity=".6"/></radialGradient><linearGradient id="linear-gradient-2" x1="157.38" y1="-2661.04" x2="188.07" y2="-2775.56" gradientTransform="translate(0 -2533.36) scale(1 -1)" gradientUnits="userSpaceOnUse"><stop offset="0" stop-color="#ff6464"/><stop offset=".42" stop-color="#ff1a1a"/><stop offset="1" stop-color="#d1002d"/></linearGradient><linearGradient id="linear-gradient-3" x1="141.84" y1="-2656.76" x2="212.49" y2="-2762.42" gradientTransform="translate(0 -2533.36) scale(1 -1)" gradientUnits="userSpaceOnUse"><stop offset="0" stop-color="#ff4f37"/><stop offset=".42" stop-color="#ea002d"/><stop offset="1" stop-color="#d30d81"/></linearGradient><radialGradient id="radial-gradient-10" cx="113.37" cy="131.7" fx="113.37" fy="131.7" r="131.74" gradientUnits="userSpaceOnUse"><stop offset=".4" stop-color="#ff4570" stop-opacity="0"/><stop offset=".79" stop-color="#750a77" stop-opacity=".8"/><stop offset=".99" stop-color="#f459ad"/></radialGradient><radialGradient id="radial-gradient-11" cx="-1560.09" cy="614.52" fx="-1560.09" fy="614.52" r="1" gradientTransform="translate(38223.03 4471.81) rotate(-15) scale(22.83 -22.83)" gradientUnits="userSpaceOnUse"><stop offset="0" stop-color="#f99" stop-opacity=".6"/><stop offset="1" stop-color="#ff1f1f" stop-opacity="0"/></radialGradient><linearGradient id="linear-gradient-4" x1="355.54" y1="-2661.04" x2="324.85" y2="-2775.56" xlink:href="#linear-gradient-2"/><linearGradient id="linear-gradient-5" x1="371.62" y1="-2656.87" x2="298.69" y2="-2763.27" xlink:href="#linear-gradient-3"/><radialGradient id="radial-gradient-12" cx="310.82" cy="117.47" fx="310.82" fy="117.47" r="125.18" xlink:href="#radial-gradient-10"/><radialGradient id="radial-gradient-13" cx="-1626.11" cy="808.6" fx="-1626.11" fy="808.6" r="1" gradientTransform="translate(-39700.22 -35193.55) rotate(-165) scale(29.4 -29.4)" xlink:href="#radial-gradient-11"/></defs><path d="M255.96,436.25c99.41,0,180-80.59,180-180S355.37,76.25,255.96,76.25,75.96,156.84,75.96,256.25s80.59,180,180,180Z" fill="url(#radial-gradient)"/><path d="M255.96,436.25c99.41,0,180-80.59,180-180S355.37,76.25,255.96,76.25,75.96,156.84,75.96,256.25s80.59,180,180,180Z" fill="url(#radial-gradient-2)"/><path d="M256.04,435.75c99.41,0,180-80.59,180-180s-80.59-180-180-180S76.04,156.34,76.04,255.75s80.59,180,180,180Z" fill="url(#radial-gradient-3)" fill-opacity=".8"/><path d="M256.04,75.75c-99.41,0-180,80.59-180,180s80.59,180,180,180,180-80.59,180-180-80.59-180-180-180Z" fill="url(#radial-gradient-4)" fill-opacity=".8"/><g opacity=".4"><path d="M348.46,134.97c0,25.84-41.05,46.79-91.69,46.79s-91.69-20.95-91.69-46.79,41.05-46.79,91.69-46.79,91.69,20.95,91.69,46.79Z" fill="url(#radial-gradient-5)"/></g><path d="M384.78,247.94c-40.42,18.7-73.67-26.39-80.31-46.35,8.93-22.22,79.53-48.06,100.63-39.66,19.01,7.56,11.61,71.24-20.32,86.01Z" fill="url(#radial-gradient-6)"/><path d="M118.99,241.67c-34.96-27.59-9.79-77.64,5.02-92.58,23.85-2.09,78.83,49.19,80.89,71.81,1.86,20.38-58.29,42.57-85.9,20.78Z" fill="url(#radial-gradient-7)"/><path d="M141.04,248.58c3.46-1.71,7.63-1.6,11.14,.29,23.2,12.52,63.45,18.83,104.64,18.99,41.14,.17,81.2-5.79,103.78-16.28,3.49-1.62,7.46-1.52,10.73,.15,3.38,1.73,6,5.17,6.19,9.62,1.61,38.18-33.17,105.43-121.55,105.43-43.42,0-73.59-18.59-92.9-41.41-19.07-22.55-27.65-49.33-28.18-66.49-.15-4.73,2.51-8.5,6.15-10.3Z" fill="url(#linear-gradient)" fill-rule="evenodd"/><path d="M148.85,255.04c-3.17-1.71-7.08,.03-6.97,3.63,.97,30.99,31.76,101.12,114.08,101.12s116.01-63.56,114.55-98.14c-.14-3.42-3.86-5.16-6.97-3.72-47.95,22.29-165.18,23.84-214.7-2.9Z" fill="#3f1c30"/><path d="M311.48,348.43c-5.1-13.04-27.91-22.87-55.27-22.87s-48.84,9.27-54.77,21.74c14.26,7.35,31.42,12.08,51.81,12.47,.98,.01,1.97,.02,2.97,.02,21.83-.03,40.15-4.36,55.26-11.36Z" fill="url(#radial-gradient-8)"/><path d="M359.97,259.72c0,13.4-10.72,44.64-103.43,44.64s-103.42-34.04-103.42-44.64c0-.86,.02-1.69,.07-2.5,50.44,23.84,158.25,22.46,206.78,2.28v.22Z" fill="#fff"/><path d="M359.97,259.72c0,13.4-56.49,21.99-103.43,21.99s-103.42-11.4-103.42-21.99c0-.86,.02-1.69,.07-2.5,50.44,23.84,158.25,22.46,206.78,2.28v.22Z" fill="url(#radial-gradient-9)"/><path d="M213.36,109.73c-19.44-10.63-46.42,.62-55.18,21.07-15.95-12.65-47.66-9.02-58.32,9.34-8.63,14.85-14.4,43.82,16.79,70.15,25.84,20.47,60.54,34.57,71.33,31.68,10.79-2.89,33.79-32.44,45.93-63.09,13.84-38.4-5.47-60.91-20.54-69.15Z" fill="url(#linear-gradient-2)"/><path d="M213.36,109.73c-19.44-10.63-46.42,.62-55.18,21.07-15.95-12.65-47.66-9.02-58.32,9.34-8.63,14.85-14.4,43.82,16.79,70.15,25.84,20.47,60.54,34.57,71.33,31.68,10.79-2.89,33.79-32.44,45.93-63.09,13.84-38.4-5.47-60.91-20.54-69.15Z" fill="url(#linear-gradient-3)"/><path d="M213.36,109.73c-19.44-10.63-46.42,.62-55.18,21.07-15.95-12.65-47.66-9.02-58.32,9.34-8.63,14.85-14.4,43.82,16.79,70.15,25.84,20.47,60.54,34.57,71.33,31.68,10.79-2.89,33.79-32.44,45.93-63.09,13.84-38.4-5.47-60.91-20.54-69.15Z" fill="url(#radial-gradient-10)" opacity=".4"/><path d="M196.17,161.41c12.34-3.31,19.67-16,16.36-28.34-3.31-12.34-15.99-19.67-28.34-16.36-12.34,3.31-19.67,16-16.36,28.34,3.31,12.34,15.99,19.67,28.34,16.36Z" fill="url(#radial-gradient-11)" isolation="isolate" opacity=".9"/><path d="M299.56,109.73c19.44-10.63,46.42,.62,55.18,21.07,15.96-12.65,47.65-9.02,58.32,9.34,8.63,14.85,14.4,43.82-16.79,70.15-25.84,20.47-60.54,34.57-71.32,31.68-10.79-2.89-33.79-32.44-45.93-63.09-13.84-38.4,5.47-60.91,20.54-69.15Z" fill="url(#linear-gradient-4)"/><path d="M299.56,109.73c19.44-10.63,46.42,.62,55.18,21.07,15.96-12.65,47.65-9.02,58.32,9.34,8.63,14.85,14.4,43.82-16.79,70.15-25.84,20.47-60.54,34.57-71.32,31.68-10.79-2.89-33.79-32.44-45.93-63.09-13.84-38.4,5.47-60.91,20.54-69.15Z" fill="url(#linear-gradient-5)"/><path d="M299.56,109.73c19.44-10.63,46.42,.62,55.18,21.07,15.96-12.65,47.65-9.02,58.32,9.34,8.63,14.85,14.4,43.82-16.79,70.15-25.84,20.47-60.54,34.57-71.32,31.68-10.79-2.89-33.79-32.44-45.93-63.09-13.84-38.4,5.47-60.91,20.54-69.15Z" fill="url(#radial-gradient-12)" opacity=".4"/><path d="M315.02,167.84c-15.89-4.26-25.33-20.6-21.07-36.49,4.26-15.9,20.6-25.33,36.49-21.07,15.9,4.26,25.33,20.6,21.07,36.49-4.26,15.9-20.6,25.33-36.49,21.07Z" fill="url(#radial-gradient-13)" isolation="isolate" opacity=".9"/></svg>