<?xml version="1.0" encoding="UTF-8"?><svg id="Layer_59" xmlns="http://www.w3.org/2000/svg" xmlns:xlink="http://www.w3.org/1999/xlink" viewBox="0 0 512 512"><defs><radialGradient id="radial-gradient" cx="-1564.78" cy="119.22" fx="-1564.78" fy="119.22" r="1" gradientTransform="translate(296262.61 375827.47) rotate(48.21) scale(305.1 -247.88)" gradientUnits="userSpaceOnUse"><stop offset="0" stop-color="#d757ff"/><stop offset=".49" stop-color="#b01bff"/><stop offset=".9" stop-color="#7000d1"/></radialGradient><linearGradient id="linear-gradient" x1="120.94" y1="-4007.42" x2="257.73" y2="-4123.56" gradientTransform="translate(0 -3743.22) scale(1 -1)" gradientUnits="userSpaceOnUse"><stop offset=".44" stop-color="#ff4570" stop-opacity="0"/><stop offset=".99" stop-color="#f45959"/></linearGradient><linearGradient id="linear-gradient-2" x1="173.11" y1="150.1" x2="364.54" y2="311.89" gradientUnits="userSpaceOnUse"><stop offset=".07" stop-color="#d57bff"/><stop offset=".43" stop-color="#cf69ff"/><stop offset=".7" stop-color="#b871ff"/></linearGradient><radialGradient id="radial-gradient-2" cx="-1555.87" cy="115.11" fx="-1555.87" fy="115.11" r="1" gradientTransform="translate(124188.71 193979.08) rotate(52.86) scale(147.4 -157.27)" gradientUnits="userSpaceOnUse"><stop offset="0" stop-color="#fff1b6"/><stop offset=".43" stop-color="#ffd400"/><stop offset=".7" stop-color="#ffd400"/><stop offset="1" stop-color="#f66447"/></radialGradient><radialGradient id="radial-gradient-3" cx="-1546.64" cy="106.94" fx="-1546.64" fy="106.94" r="1" gradientTransform="translate(79914.15 119031.8) rotate(51.83) scale(92.22 -99.34)" xlink:href="#radial-gradient-2"/><radialGradient id="radial-gradient-4" cx="-1527.52" cy="95.65" fx="-1527.52" fy="95.65" r="1" gradientTransform="translate(27416.42 20690.95) rotate(21.8) scale(21.54 -92.07)" gradientUnits="userSpaceOnUse"><stop offset="0" stop-color="#fffce2" stop-opacity=".6"/><stop offset="1" stop-color="#f2d3ff" stop-opacity="0"/></radialGradient><radialGradient id="radial-gradient-5" cx="157.45" cy="366.52" fx="157.45" fy="366.52" r="216.99" gradientUnits="userSpaceOnUse"><stop offset="0" stop-color="#d757ff"/><stop offset=".63" stop-color="#b01bff"/><stop offset=".97" stop-color="#7000d1"/></radialGradient><radialGradient id="radial-gradient-6" cx="-1575.81" cy="113.29" fx="-1575.81" fy="113.29" r="1" gradientTransform="translate(209563.41 5500.62) rotate(-5) scale(132 -206.84)" gradientUnits="userSpaceOnUse"><stop offset="0" stop-color="#ffdd64"/><stop offset=".42" stop-color="#ffbf1a"/><stop offset="1" stop-color="#efd700"/></radialGradient><linearGradient id="linear-gradient-3" x1="334.72" y1="-3960.49" x2="273.59" y2="-3994.4" gradientTransform="translate(0 -3743.22) scale(1 -1)" gradientUnits="userSpaceOnUse"><stop offset="0" stop-color="#39d0ff"/><stop offset=".9" stop-color="#06a0ee"/></linearGradient><linearGradient id="linear-gradient-4" x1="397.57" y1="172.01" x2="404.15" y2="185.57" gradientUnits="userSpaceOnUse"><stop offset="0" stop-color="#d757ff"/><stop offset=".49" stop-color="#b01bff"/><stop offset=".9" stop-color="#7000d1"/></linearGradient><linearGradient id="linear-gradient-5" x1="437.31" y1="324.04" x2="410.73" y2="306.21" xlink:href="#linear-gradient-4"/><linearGradient id="linear-gradient-6" x1="331.34" y1="-3824.99" x2="285.49" y2="-3909.33" gradientTransform="translate(0 -3743.22) scale(1 -1)" gradientUnits="userSpaceOnUse"><stop offset="0" stop-color="#ff6464"/><stop offset=".42" stop-color="#ff1a1a"/><stop offset="1" stop-color="#dc002f"/></linearGradient><radialGradient id="radial-gradient-7" cx="-1597.62" cy="125.79" fx="-1597.62" fy="125.79" r="1" gradientTransform="translate(135184.86 -135212.07) rotate(-63.1) scale(113.82 -470.08)" xlink:href="#radial-gradient-6"/></defs><g><path d="M173.24,143.83c-20.71,25.23-81.75,180.38-98.84,246.11-4.06,15.63,2.51,31.24,14.8,42.43,12.33,11.13,28.85,16.46,44.01,10.9,63.78-23.4,212.3-99.24,235.4-122.3,13.24-13.22-29.38-63.15-79.68-108.76-49.11-44.54-103.81-82.85-115.69-68.38Z" fill="url(#radial-gradient)"/><path d="M173.24,143.83c-20.71,25.23-81.75,180.38-98.84,246.11-4.06,15.63,2.51,31.24,14.8,42.43,12.33,11.13,28.85,16.46,44.01,10.9,63.78-23.4,212.3-99.24,235.4-122.3,13.24-13.22-29.38-63.15-79.68-108.76-49.11-44.54-103.81-82.85-115.69-68.38Z" fill="url(#linear-gradient)" fill-opacity=".7"/><path d="M242.7,263.51c54.19,48.77,110.62,74.42,126.04,57.3,15.41-17.12-16.03-70.53-70.22-119.3-54.2-48.77-110.63-74.42-126.04-57.3-15.42,17.12,16.02,70.53,70.22,119.3Z" fill="url(#linear-gradient-2)" fill-rule="evenodd"/><path d="M309.38,358.91c-21.34-2.54-62.96-21.63-101.36-55.44-39.96-35.18-64.75-72.33-68.28-93.54-6,13.92-12.25,29.1-18.44,44.71,7.13,21.02,29.49,50.82,61.61,79.1,28.87,25.42,58.43,43.36,79.96,49.96,16.36-8.41,32.21-16.84,46.51-24.79Z" fill="url(#radial-gradient-2)"/><path d="M217.15,406.44c-21.44-8.24-46.89-21.7-69.83-40.42-20.46-18.01-35.9-38.65-46.48-57.51-5.48,15.1-10.56,29.73-14.95,43.14,9.16,15.23,21.16,31.13,36.4,44.55,15.8,13.91,33.1,24.06,49.08,31.42,14.23-6.27,29.8-13.49,45.78-21.18Z" fill="url(#radial-gradient-3)" fill-rule="evenodd"/><path d="M278.46,209.11c0,6.57-5.33,11.9-11.9,11.9s-11.9-5.33-11.9-11.9,5.33-11.89,11.9-11.89,11.9,5.33,11.9,11.89Z" fill="#ffd045"/><path d="M179.97,199.91c-11.68-5.08-41.08,36.61-65.67,93.13-24.58,56.51-35.04,106.44-23.36,111.52,11.69,5.08,41.09-36.61,65.68-93.13,24.58-56.51,35.04-106.44,23.35-111.52Z" fill="url(#radial-gradient-4)"/><path d="M363.95,315.1c-12.89,14.31-71.37-15.92-116.66-56.68-45.3-40.76-79.57-93.9-66.68-108.21,12.88-14.31,68.03,15.63,113.33,56.39,45.29,40.76,82.88,94.19,70,108.5Z" fill="url(#radial-gradient-5)"/><path d="M423.93,279.08c-52.39-23.04-98.56-8.71-117.28-.06-3.81,1.76-8.34,.1-10.1-3.72-1.76-3.82-.1-8.34,3.72-10.1,20.96-9.69,71.96-25.49,129.79-.06,3.84,1.69,5.59,6.18,3.9,10.03-1.69,3.85-6.18,5.6-10.03,3.9Z" fill="url(#radial-gradient-6)" fill-rule="evenodd"/><path d="M355.64,221.61c-38.06-3.44-62.64,18.79-72.13,33.81-2.24,3.55-6.94,4.62-10.5,2.37-3.55-2.24-4.62-6.95-2.37-10.5,11.63-18.43,41.12-44.94,86.38-40.85,4.18,.38,7.27,4.08,6.89,8.27-.38,4.19-4.08,7.27-8.27,6.9Z" fill="url(#linear-gradient-3)" fill-rule="evenodd"/><path d="M392.89,179.07c-.82-1.42-.33-3.24,1.09-4.06l7-4.04c1.43-.82,3.24-.33,4.07,1.09l4.04,7c.82,1.42,.34,3.24-1.08,4.06l-7.01,4.04c-1.42,.82-3.24,.33-4.06-1.09l-4.05-7Z" fill="url(#linear-gradient-4)"/><path d="M412.32,304.05c.73-2.73,3.55-4.35,6.28-3.62l13.45,3.6c2.73,.73,4.35,3.54,3.62,6.28l-3.6,13.44c-.73,2.73-3.54,4.35-6.28,3.62l-13.45-3.6c-2.73-.73-4.35-3.54-3.62-6.27l3.6-13.45Z" fill="url(#linear-gradient-5)"/><path d="M229.05,111.14c0,6.57-5.32,11.89-11.89,11.89s-11.9-5.33-11.9-11.89,5.33-11.89,11.9-11.89,11.89,5.33,11.89,11.89Z" fill="#ff2121"/><path d="M384.56,102.18c0,6.57-5.32,11.89-11.89,11.89s-11.9-5.33-11.9-11.89,5.33-11.89,11.9-11.89,11.89,5.33,11.89,11.89Z" fill="#29c1fa"/><path d="M372.67,247.07c0,6.57-5.33,11.89-11.9,11.89s-11.9-5.33-11.9-11.89,5.33-11.89,11.9-11.89,11.9,5.33,11.9,11.89Z" fill="#29c1fa"/><path d="M314.78,87.73c-2.04,1.45-4.21,4.03-4.57,9.9-.24,4.03,1.43,5.75,5.74,9.67,.05,.05,.11,.1,.16,.15,1.93,1.75,4.84,4.39,6.71,7.93,2.2,4.14,2.74,8.88,1.25,14.24-1.34,4.83-3.55,8.47-6.59,11.22-2.85,2.59-6.05,3.99-8.28,4.95-.15,.06-.3,.12-.44,.19-4.21,1.81-6.52,2.79-8.59,6.79-1.28,2.45-1.56,4.2-1.53,5.4,.02,1.19,.37,2.3,1.07,3.48,1.6,2.69,4.55,5.02,8.26,7.75,3.39,2.49,4.12,7.26,1.62,10.64-2.49,3.39-7.25,4.11-10.64,1.62-.08-.05-.15-.11-.23-.17-3.33-2.45-8.75-6.43-12.1-12.07-1.81-3.05-3.11-6.69-3.21-10.89-.1-4.19,1-8.46,3.24-12.78,4.62-8.9,11.36-11.76,15.8-13.64,.25-.11,.5-.21,.74-.31,2.21-.95,3.27-1.52,4.07-2.24,.62-.56,1.46-1.58,2.14-4.02,.53-1.9,.2-2.59-.03-3.02-.49-.92-1.43-1.92-3.67-3.96-.15-.14-.3-.28-.46-.42-4.09-3.7-10.93-9.89-10.22-21.44,.62-10.16,4.9-17.1,10.94-21.38,5.63-3.99,12.04-5.15,16.14-5.65,4.18-.5,7.97,2.47,8.47,6.65,.51,4.17-2.47,7.96-6.65,8.47-3.39,.41-6.69,1.2-9.14,2.95Z" fill="url(#linear-gradient-6)" fill-rule="evenodd"/><path d="M218.43,75.24c3.75-1.9,8.33-.4,10.23,3.35,29.52,58.28,12.69,105.79-.76,123.27-2.56,3.33-7.34,3.96-10.68,1.39-3.33-2.56-3.95-7.34-1.39-10.68,10.01-13.01,26.02-54.24-.75-107.1-1.9-3.75-.4-8.33,3.35-10.23Z" fill="url(#radial-gradient-7)" fill-rule="evenodd"/></g><path d="M290.36,187.6c0,6.57-5.32,11.89-11.89,11.89s-11.9-5.33-11.9-11.89,5.33-11.89,11.9-11.89,11.89,5.33,11.89,11.89Z" fill="#fcc513"/></svg>