<?xml version="1.0" encoding="UTF-8"?><svg id="Layer_59" xmlns="http://www.w3.org/2000/svg" xmlns:xlink="http://www.w3.org/1999/xlink" viewBox="0 0 512 512"><defs><radialGradient id="radial-gradient" cx="242.37" cy="52.81" fx="242.37" fy="52.81" r="397.72" gradientUnits="userSpaceOnUse"><stop offset="0" stop-color="#ff6b17"/><stop offset=".3" stop-color="#ff6b00"/><stop offset=".68" stop-color="#ff6e2a"/><stop offset="1" stop-color="#ffab03"/></radialGradient><radialGradient id="radial-gradient-2" cx="-8.71" cy="121.37" fx="-8.71" fy="121.37" r="1" gradientTransform="translate(-32291 17246.62) rotate(65.95) scale(269.28 -301.68)" gradientUnits="userSpaceOnUse"><stop offset=".57" stop-color="#ff4570" stop-opacity="0"/><stop offset=".93" stop-color="#ff50c9"/></radialGradient><radialGradient id="radial-gradient-3" cx="192.2" cy="170.31" fx="192.2" fy="170.31" r="268.49" gradientUnits="userSpaceOnUse"><stop offset=".21" stop-color="#ffb800"/><stop offset=".8" stop-color="#fe9800"/><stop offset="1" stop-color="#ffca99"/></radialGradient><radialGradient id="radial-gradient-4" cx="226.25" cy="265.45" fx="226.25" fy="265.45" r="131.45" gradientUnits="userSpaceOnUse"><stop offset=".08" stop-color="#ffcd05"/><stop offset="1" stop-color="#fde587"/></radialGradient><radialGradient id="radial-gradient-5" cx="1.16" cy="92.37" fx="1.16" fy="92.37" r="1" gradientTransform="translate(-5593.59 3960.57) rotate(55.8) scale(129.77 -73.97)" gradientUnits="userSpaceOnUse"><stop offset=".21" stop-color="#ec500b"/><stop offset=".53" stop-color="#ec500b" stop-opacity="0"/></radialGradient><radialGradient id="radial-gradient-6" cx="7.49" cy="146.07" fx="7.49" fy="146.07" r="1" gradientTransform="translate(-8716.23 -5754.9) rotate(118.21) scale(129.77 -73.97)" gradientUnits="userSpaceOnUse"><stop offset=".24" stop-color="#ec500b"/><stop offset=".67" stop-color="#ec500b" stop-opacity="0"/></radialGradient><radialGradient id="radial-gradient-7" cx="-40.52" cy="131.71" fx="-40.52" fy="131.71" r="1" gradientTransform="translate(23732.19 -7757.76) rotate(-90) scale(197.61 -178.25)" gradientUnits="userSpaceOnUse"><stop offset=".72" stop-color="#fe789b" stop-opacity="0"/><stop offset="1" stop-color="#ff1d1d" stop-opacity=".41"/></radialGradient><radialGradient id="radial-gradient-8" cx="8034.75" cy="6709.76" fx="8034.75" fy="6709.76" r="1" gradientTransform="translate(935.36 -3647.56) rotate(125.15) scale(.43 -.26)" gradientUnits="userSpaceOnUse"><stop offset="0" stop-color="#ffcfab" stop-opacity=".6"/><stop offset="1" stop-color="#fff" stop-opacity="0"/></radialGradient><radialGradient id="radial-gradient-9" cx="71.33" cy="81.47" fx="71.33" fy="81.47" r="1" gradientTransform="translate(-1776.79 -2398.17) rotate(84.62) scale(40.1 -19.96)" gradientUnits="userSpaceOnUse"><stop offset="0" stop-color="#ffcfab" stop-opacity=".5"/><stop offset=".7" stop-color="#fff" stop-opacity="0"/></radialGradient><radialGradient id="radial-gradient-10" cx="376.08" cy="233.7" fx="376.08" fy="233.7" r="22.63" gradientTransform="translate(303.64 -312.74) rotate(35.47) scale(1 1.72)" gradientUnits="userSpaceOnUse"><stop offset="0" stop-color="#ffcfab" stop-opacity=".6"/><stop offset=".67" stop-color="#fff" stop-opacity="0"/></radialGradient></defs><g><path d="M246.41,453.63c-163.2,0-190.26-151.08-158.59-208.81,33.49-61.06,36.49,6.44,67.59,18.48-7.44-14.98-7.99-69.61,24.96-104.58,36.62-38.86,33.51-88.71,61.6-99.99,15.15-6.08,98.19,66.16,90.83,174.77,23.78-6.52,40.92-54.96,57.87-55.24,23.77-.4,55.43,42.02,41.82,123.7-12.75,76.54-70.81,151.66-186.08,151.66h0Z" fill="url(#radial-gradient)"/><path d="M246.41,453.63c-163.2,0-190.26-151.08-158.59-208.81,33.49-61.06,36.49,6.44,67.59,18.48-7.44-14.98-7.99-69.61,24.96-104.58,36.62-38.86,33.51-88.71,61.6-99.99,15.15-6.08,98.19,66.16,90.83,174.77,23.78-6.52,40.92-54.96,57.87-55.24,23.77-.4,55.43,42.02,41.82,123.7-12.75,76.54-70.81,151.66-186.08,151.66h0Z" fill="url(#radial-gradient-2)" opacity=".65"/><path d="M246.65,425.57c-100.79,0-117.5-93.31-97.94-128.96,20.68-37.71,22.54,3.98,41.74,11.41-4.59-9.25-4.93-42.99,15.42-64.59,22.62-24,20.7-65.79,38.04-72.75,9.36-3.75,60.64,51.86,56.1,118.94,14.69-4.03,25.27-33.94,35.74-34.12,14.68-.25,34.23,25.95,25.83,76.4-7.87,47.27-43.73,93.66-114.92,93.66h0Z" fill="url(#radial-gradient-3)"/><path d="M258.86,395.5c-63.39,18.1-83.24-57.8-67.78-83.76,10.68-20.4,12.1,17.02,33.9,19.32-13.26-33.59,9.21-83.96,23.27-79.41,10.82,3.5-3.33,39.4,36,74.73,21.45,19.27,11.48,58.61-25.39,69.13h0Z" fill="url(#radial-gradient-4)"/><path d="M246.41,453.63c-163.2,0-190.26-151.08-158.59-208.81,33.49-61.06,36.49,6.44,67.59,18.48-7.44-14.98-7.99-69.61,24.96-104.58,36.62-38.86,33.51-88.71,61.6-99.99,15.15-6.08,98.19,66.16,90.83,174.77,23.78-6.52,40.92-54.96,57.87-55.24,23.77-.4,55.43,42.02,41.82,123.7-12.75,76.54-70.81,151.66-186.08,151.66h0Z" fill="url(#radial-gradient-5)"/><path d="M246.41,453.63c-163.2,0-190.26-151.08-158.59-208.81,33.49-61.06,36.49,6.44,67.59,18.48-7.44-14.98-7.99-69.61,24.96-104.58,36.62-38.86,33.51-88.71,61.6-99.99,15.15-6.08,98.19,66.16,90.83,174.77,23.78-6.52,40.92-54.96,57.87-55.24,23.77-.4,55.43,42.02,41.82,123.7-12.75,76.54-70.81,151.66-186.08,151.66h0Z" fill="url(#radial-gradient-6)"/><path d="M246.41,453.63c-163.2,0-190.26-151.08-158.59-208.81,33.49-61.06,36.49,6.44,67.59,18.48-7.44-14.98-7.99-69.61,24.96-104.58,36.62-38.86,33.51-88.71,61.6-99.99,15.15-6.08,98.19,66.16,90.83,174.77,23.78-6.52,40.92-54.96,57.87-55.24,23.77-.4,55.43,42.02,41.82,123.7-12.75,76.54-70.81,151.66-186.08,151.66h0Z" fill="url(#radial-gradient-7)" fill-opacity=".8"/><path d="M393.93,247.72c11.28-16.02,12.32-34.72,2.33-41.76-10-7.04-27.25,.24-38.53,16.26-11.28,16.02-12.32,34.72-2.32,41.76,10,7.04,27.25-.24,38.53-16.26Z" fill="url(#radial-gradient-8)"/></g><path d="M114.31,336.83c11.4-1.07,18.93-20.03,16.83-42.34-2.1-22.31-13.04-39.52-24.44-38.45-11.4,1.07-18.93,20.03-16.83,42.34,2.1,22.31,13.04,39.52,24.44,38.45Z" fill="url(#radial-gradient-9)"/><path d="M393.93,247.72c11.28-16.02,12.32-34.72,2.33-41.76-10-7.04-27.25,.24-38.53,16.26-11.28,16.02-12.32,34.72-2.32,41.76,10,7.04,27.25-.24,38.53-16.26Z" fill="url(#radial-gradient-10)"/></svg>