<?xml version="1.0" encoding="UTF-8"?><svg id="Layer_59" xmlns="http://www.w3.org/2000/svg" xmlns:xlink="http://www.w3.org/1999/xlink" viewBox="0 0 512 512"><defs><radialGradient id="radial-gradient" cx="248.12" cy="97.03" fx="248.12" fy="97.03" r="338.54" gradientUnits="userSpaceOnUse"><stop offset="0" stop-color="#fff1b6"/><stop offset=".43" stop-color="#ffd400"/><stop offset=".7" stop-color="#ffd400"/><stop offset="1" stop-color="#ff8e00"/></radialGradient><radialGradient id="radial-gradient-2" cx="181.74" cy="105.57" fx="181.74" fy="105.57" r="337.89" gradientUnits="userSpaceOnUse"><stop offset=".61" stop-color="#ffe437" stop-opacity="0"/><stop offset=".86" stop-color="#ff79b1" stop-opacity=".45"/><stop offset=".99" stop-color="#ff3673" stop-opacity=".56"/></radialGradient><radialGradient id="radial-gradient-3" cx="253.08" cy="275.3" fx="253.08" fy="275.3" r="209.43" gradientUnits="userSpaceOnUse"><stop offset=".85" stop-color="#ffc60c" stop-opacity="0"/><stop offset="1" stop-color="#ff7039" stop-opacity=".68"/></radialGradient><radialGradient id="radial-gradient-4" cx="251.91" cy="236.42" fx="251.91" fy="236.42" r="200.09" gradientUnits="userSpaceOnUse"><stop offset=".85" stop-color="#fe789b" stop-opacity="0"/><stop offset="1" stop-color="#f11414" stop-opacity=".41"/></radialGradient><radialGradient id="radial-gradient-5" cx="253.8" cy="130.89" fx="253.8" fy="130.89" r="47.64" gradientUnits="userSpaceOnUse"><stop offset="0" stop-color="#fff"/><stop offset="1" stop-color="#ffed49" stop-opacity="0"/></radialGradient><linearGradient id="linear-gradient" x1="330.19" y1="-5108.39" x2="330.19" y2="-5164.17" gradientTransform="translate(0 -4953.09) scale(1 -1)" gradientUnits="userSpaceOnUse"><stop offset="0" stop-color="#ffe259" stop-opacity="0"/><stop offset="1" stop-color="#ffe794"/></linearGradient><linearGradient id="linear-gradient-2" x1="176.51" x2="176.51" xlink:href="#linear-gradient"/><radialGradient id="radial-gradient-6" cx="-30.82" cy="-513.76" fx="-30.82" fy="-513.76" r="1" gradientTransform="translate(3795.72 -61614.37) scale(120.29 -120.29)" gradientUnits="userSpaceOnUse"><stop offset="0" stop-color="#39d0ff"/><stop offset=".74" stop-color="#00b6ff"/><stop offset="1" stop-color="#0089ce"/></radialGradient><radialGradient id="radial-gradient-7" cx="12.66" cy="-459.31" fx="12.66" fy="-459.31" r="1" gradientTransform="translate(43023.14 36776.26) rotate(132.03) scale(122.68 -122.69)" gradientUnits="userSpaceOnUse"><stop offset="0" stop-color="#39d0ff"/><stop offset=".66" stop-color="#00b6ff"/><stop offset="1" stop-color="#66d1ff"/></radialGradient><radialGradient id="radial-gradient-8" cx="67.75" cy="-314.83" fx="67.75" fy="-314.83" r="1" gradientTransform="translate(5581.25 3847.27) rotate(146.89) scale(38.8 -19.17)" gradientUnits="userSpaceOnUse"><stop offset="0" stop-color="#c5f1ff" stop-opacity=".6"/><stop offset="1" stop-color="#02adf5" stop-opacity="0"/></radialGradient><radialGradient id="radial-gradient-9" cx="3.84" cy="-512.01" fx="3.84" fy="-512.01" r="1" gradientTransform="translate(42007.85 -35485.93) rotate(49.81) scale(107.08 -107.08)" gradientUnits="userSpaceOnUse"><stop offset="0" stop-color="#39d0ff"/><stop offset=".46" stop-color="#00b6ff"/><stop offset=".9" stop-color="#0063bf"/><stop offset="1" stop-color="#0068c8"/></radialGradient><radialGradient id="radial-gradient-10" cx="3.79" cy="-512.06" fx="3.79" fy="-512.06" r="1" gradientTransform="translate(41935.98 -35541.03) rotate(49.71) scale(107.04 -107.04)" gradientUnits="userSpaceOnUse"><stop offset="0" stop-color="#39d0ff"/><stop offset=".51" stop-color="#00b6ff"/><stop offset="1" stop-color="#91deff"/></radialGradient><radialGradient id="radial-gradient-11" cx="383.88" cy="201.78" fx="383.88" fy="201.78" r="131.15" gradientTransform="matrix(1, 0, 0, 1, 0, 0)" xlink:href="#radial-gradient-7"/><radialGradient id="radial-gradient-12" cx="15.94" cy="-706" fx="15.94" fy="-706" r="1" gradientTransform="translate(7295.52 -11453.57) rotate(33.11) scale(39.32 -19.17)" xlink:href="#radial-gradient-8"/><radialGradient id="radial-gradient-13" cx="-65" cy="-472.96" fx="-65" fy="-472.96" r="1" gradientTransform="translate(-150890.67 -7720.92) rotate(-89.46) scale(101.85 -319.75)" gradientUnits="userSpaceOnUse"><stop offset="0" stop-color="#5c1800"/><stop offset="1" stop-color="#942a00"/></radialGradient><linearGradient id="linear-gradient-3" x1="254.38" y1="227.63" x2="254.38" y2="374.53" gradientUnits="userSpaceOnUse"><stop offset="0" stop-color="#fd9e28" stop-opacity=".4"/><stop offset="1" stop-color="#fff2b7"/></linearGradient><radialGradient id="radial-gradient-14" cx="263.23" cy="541.25" fx="263.23" fy="541.25" r="215.71" gradientUnits="userSpaceOnUse"><stop offset=".8" stop-color="#ef164a"/><stop offset=".93" stop-color="#ff71a4"/><stop offset="1" stop-color="#ff8ea9"/></radialGradient></defs><path d="M252.99,436.25c99.41,0,180-80.59,180-180S352.4,76.25,252.99,76.25,72.99,156.84,72.99,256.25s80.59,180,180,180Z" fill="url(#radial-gradient)"/><path d="M252.99,436.25c99.41,0,180-80.59,180-180S352.4,76.25,252.99,76.25,72.99,156.84,72.99,256.25s80.59,180,180,180Z" fill="url(#radial-gradient-2)"/><path d="M253.08,435.75c99.41,0,180-80.59,180-180S352.49,75.75,253.08,75.75,73.08,156.34,73.08,255.75s80.58,180,180,180Z" fill="url(#radial-gradient-3)" fill-opacity=".8"/><path d="M253.07,75.75c-99.41,0-180,80.59-180,180s80.59,180,180,180,180-80.59,180-180S352.48,75.75,253.07,75.75Z" fill="url(#radial-gradient-4)" fill-opacity=".8"/><g opacity=".4"><path d="M345.49,134.97c0,25.84-41.05,46.79-91.69,46.79s-91.69-20.95-91.69-46.79,41.05-46.79,91.69-46.79,91.69,20.95,91.69,46.79Z" fill="url(#radial-gradient-5)"/></g><path d="M281.62,179.93c-.68-12.25,14.67-19.87,34.73-23.26,22.32-3.77,47.07,1.38,59.89,11.09,4.56,3.46,2.19,8.29-1.17,7.85-20.12-2.65-48.3-4.64-67.51,4.33,8.64,10.81,29.85,18.34,42.88,20.73,5.39,.98,7.57,8.85,.53,10.18-13.02,2.45-68.51-15.78-69.35-30.91Z" fill="#50233c"/><path d="M350.97,210.84c7.04-1.34,4.86-9.2-.53-10.18-11.11-2.04-28.18-7.82-38.32-16.17-1.75-1.44-3.29-2.96-4.56-4.55,1.89-.88,3.87-1.66,5.92-2.34,18.77-6.23,43.45-4.38,61.59-1.99,3.36,.45,5.73-4.38,1.17-7.85-12.82-9.7-37.57-14.86-59.89-11.08-20.06,3.39-35.41,11.01-34.73,23.26,.84,15.13,56.33,33.36,69.35,30.91Zm-75.34-30.58c.2,3.68,2.01,6.82,4.07,9.29,2.1,2.51,4.86,4.81,7.88,6.88,6.04,4.15,13.92,7.97,21.95,11.13,8.06,3.17,16.54,5.79,23.9,7.46,3.68,.84,7.16,1.46,10.22,1.78,2.96,.31,5.94,.4,8.43-.07h.01c2.88-.55,5.54-1.92,7.34-4.33,1.79-2.4,2.24-5.21,1.87-7.69-.71-4.7-4.47-9-9.78-9.97-6.06-1.11-14.17-3.46-21.75-6.79-3.99-1.76-7.63-3.71-10.69-5.77,6.69-1.75,14.21-2.59,22.04-2.78,11.52-.28,23.24,.84,33.16,2.14,5.01,.66,8.98-2.7,10.12-6.79,1.23-4.41-.69-8.87-4.54-11.78h0c-7.38-5.58-17.72-9.57-28.87-11.71-11.22-2.15-23.72-2.53-35.64-.51-10.38,1.75-20.1,4.68-27.29,9.11-7.23,4.45-12.95,11.18-12.43,20.4Z" fill="url(#linear-gradient)" fill-rule="evenodd"/><path d="M225.07,179.93c.69-12.25-14.67-19.87-34.73-23.26-22.32-3.77-47.07,1.38-59.88,11.09-4.57,3.46-2.19,8.29,1.17,7.85,20.11-2.65,48.29-4.64,67.5,4.33-8.63,10.81-29.85,18.34-42.88,20.73-5.38,.98-7.57,8.85-.53,10.18,13.02,2.45,68.52-15.78,69.35-30.91Z" fill="#50233c"/><path d="M155.72,210.84c-7.04-1.34-4.85-9.2,.53-10.18,11.11-2.04,28.18-7.82,38.32-16.17,1.75-1.44,3.29-2.96,4.56-4.55-1.89-.88-3.87-1.66-5.92-2.34-18.76-6.23-43.45-4.38-61.58-1.99-3.36,.45-5.74-4.38-1.17-7.85,12.81-9.7,37.56-14.86,59.88-11.08,20.06,3.39,35.42,11.01,34.73,23.26-.83,15.13-56.33,33.36-69.35,30.91Zm75.35-30.58c-.21,3.68-2.02,6.82-4.08,9.29-2.1,2.51-4.86,4.81-7.87,6.88-6.05,4.15-13.93,7.97-21.96,11.13-8.06,3.17-16.53,5.79-23.9,7.46-3.68,.84-7.16,1.46-10.22,1.78-2.96,.31-5.94,.4-8.43-.07h-.01c-2.88-.55-5.54-1.92-7.33-4.33-1.79-2.4-2.25-5.21-1.88-7.69,.71-4.7,4.48-9,9.78-9.97,6.07-1.11,14.18-3.46,21.75-6.79,4-1.76,7.64-3.71,10.69-5.77-6.69-1.75-14.2-2.59-22.04-2.78-11.51-.28-23.24,.84-33.16,2.14-5.01,.66-8.98-2.7-10.12-6.79-1.23-4.41,.7-8.87,4.54-11.78h.01c7.37-5.58,17.72-9.57,28.87-11.71,11.22-2.15,23.71-2.53,35.63-.51,10.39,1.75,20.1,4.68,27.3,9.11,7.22,4.45,12.94,11.18,12.43,20.4Z" fill="url(#linear-gradient-2)" fill-rule="evenodd"/><path d="M33.09,233.88c23.63-26.55,75.62-45.86,89.38-33.61,14.1,12.55-1.07,68.03-23.01,92.68-15.73,17.69-43.35,18.79-61.68,2.48-18.33-16.31-20.43-43.87-4.7-61.55h.01Z" fill="url(#radial-gradient-6)"/><path d="M33.09,233.88c23.63-26.55,75.62-45.86,89.38-33.61,14.1,12.55-1.07,68.03-23.01,92.68-15.73,17.69-43.35,18.79-61.68,2.48-18.33-16.31-20.43-43.87-4.7-61.55h.01Z" fill="url(#radial-gradient-7)"/><path d="M91.35,243.24c17.37-11.32,26.74-27.71,20.94-36.6-5.79-8.89-24.57-6.92-41.93,4.4-17.37,11.32-26.74,27.71-20.94,36.6,5.79,8.89,24.57,6.92,41.93-4.4Z" fill="url(#radial-gradient-8)"/><path d="M478.39,235.58c-24.82-27.89-79.43-48.17-93.88-35.32-14.82,13.19,1.13,71.46,24.16,97.36,16.52,18.57,45.54,19.75,64.78,2.61,19.25-17.13,21.46-46.08,4.93-64.65h.01Z" fill="url(#radial-gradient-9)"/><path d="M478.39,235.58c-24.82-27.89-79.43-48.17-93.88-35.32-14.82,13.19,1.13,71.46,24.16,97.36,16.52,18.57,45.54,19.75,64.78,2.61,19.25-17.13,21.46-46.08,4.93-64.65h.01Z" fill="url(#radial-gradient-10)"/><path d="M478.39,235.58c-24.82-27.89-79.43-48.17-93.88-35.32-14.82,13.19,1.13,71.46,24.16,97.36,16.52,18.57,45.54,19.75,64.78,2.61,19.25-17.13,21.46-46.08,4.93-64.65h.01Z" fill="url(#radial-gradient-11)"/><path d="M458.88,248.24c5.8-8.89-3.76-25.4-21.36-36.88-17.59-11.47-36.56-13.57-42.36-4.68-5.79,8.89,3.77,25.4,21.36,36.88,17.6,11.47,36.56,13.57,42.36,4.68Z" fill="url(#radial-gradient-12)"/><path d="M254.79,235.16c-41.62,0-81.08,6.16-104.81,19.02-6.74,3.65-10.6,9.13-9.83,16.22,3.04,28.22,20.06,98.8,114.23,98.8s111.2-70.58,114.24-98.8c.76-7.09-3.44-12.74-9.83-16.22-23.59-12.86-58.98-19.02-104-19.02Z" fill="url(#radial-gradient-13)"/><path d="M254.79,235.16c-41.62,0-81.08,6.16-104.81,19.02-6.74,3.65-10.6,9.13-9.83,16.22,3.04,28.22,20.06,98.8,114.23,98.8s111.2-70.58,114.24-98.8c.76-7.09-3.44-12.74-9.83-16.22-23.59-12.86-58.98-19.02-104-19.02Z" fill="#341c3c" isolation="isolate" opacity=".8"/><path d="M146.64,248.02c25.3-13.71,66.2-19.86,108.15-19.86,45.41,0,82.21,6.17,107.35,19.87,7.95,4.34,14.61,12.29,13.44,23.12-1.59,14.71-6.83,40.88-24.37,63.52-17.81,22.99-47.71,41.53-96.83,41.53s-79.01-18.54-96.82-41.53c-17.54-22.63-22.79-48.81-24.37-63.52-1.16-10.75,5.04-18.57,13.45-23.12Zm3.34,6.15c23.73-12.86,63.19-19.02,104.81-19.02,45.02,0,80.41,6.16,104,19.02,6.39,3.48,10.59,9.13,9.83,16.22-3.04,28.22-20.06,98.8-114.24,98.8s-111.19-70.58-114.23-98.8c-.77-7.09,3.09-12.57,9.83-16.22Z" fill="url(#linear-gradient-3)" fill-rule="evenodd" isolation="isolate" opacity=".8"/><path d="M363.99,257.99c-25.89,13.38-65.69,21.94-110.33,21.94s-83.52-8.37-109.42-21.48c1.54-1.63,3.48-3.05,5.74-4.28,23.73-12.86,63.19-19.02,104.81-19.02,45.02,0,80.41,6.16,104,19.02,1.97,1.07,3.73,2.35,5.2,3.81Z" fill="#fff" fill-rule="evenodd"/><path d="M363.99,257.99c-25.89,13.38-65.69,21.94-110.33,21.94s-83.52-8.37-109.42-21.48c1.54-1.63,3.48-3.05,5.74-4.28,23.73-12.86,63.19-19.02,104.81-19.02,45.02,0,80.41,6.16,104,19.02,1.97,1.07,3.73,2.35,5.2,3.81Z" fill="#fff" fill-rule="evenodd"/><path d="M335.37,341.67c-17.48-10.76-47.23-17.85-80.99-17.85s-63.5,7.08-80.98,17.85c17.03,15.8,42.6,27.53,80.98,27.53s63.96-11.73,80.99-27.53Z" fill="url(#radial-gradient-14)" fill-rule="evenodd"/><path d="M363.99,257.99c-1.85,.96-3.78,1.89-5.77,2.8-30.15-9.02-64.91-16.13-102.53-16.13-42,0-77.34,7.64-105.7,16.53-1.98-.89-3.9-1.8-5.75-2.73,1.54-1.63,3.48-3.05,5.74-4.28,23.73-12.86,63.19-19.02,104.81-19.02,45.02,0,80.41,6.16,104,19.02,1.97,1.07,3.73,2.35,5.2,3.81Z" fill="#cecece" fill-rule="evenodd"/></svg>