<?xml version="1.0" encoding="UTF-8"?><svg id="Layer_59" xmlns="http://www.w3.org/2000/svg" xmlns:xlink="http://www.w3.org/1999/xlink" viewBox="0 0 512 512"><defs><radialGradient id="radial-gradient" cx="282.18" cy="91.23" fx="282.18" fy="91.23" r="385.71" gradientUnits="userSpaceOnUse"><stop offset="0" stop-color="#fff1b6"/><stop offset=".7" stop-color="#ffd400"/><stop offset="1" stop-color="#ffb100"/></radialGradient><radialGradient id="radial-gradient-2" cx="-29.67" cy="-1105.8" fx="-29.67" fy="-1105.8" r=".98" gradientTransform="translate(5202.85 -230462.06) rotate(-.32) scale(208.67 -208.67)" gradientUnits="userSpaceOnUse"><stop offset=".77" stop-color="#ffd400" stop-opacity="0"/><stop offset="1" stop-color="#ff8e00" stop-opacity=".85"/></radialGradient><radialGradient id="radial-gradient-3" cx="294.2" cy="184.1" fx="294.2" fy="184.1" r="281.66" gradientUnits="userSpaceOnUse"><stop offset=".52" stop-color="#ffc42e" stop-opacity="0"/><stop offset="1" stop-color="#ff7dbe"/></radialGradient><radialGradient id="radial-gradient-4" cx="-3.86" cy="-1045.63" fx="-3.86" fy="-1045.63" r="1" gradientTransform="translate(3916.17 147213.44) rotate(178.41) scale(113.21 -140.51)" gradientUnits="userSpaceOnUse"><stop offset=".15" stop-color="#c62400" stop-opacity=".8"/><stop offset="1" stop-color="#ffd400" stop-opacity="0"/></radialGradient><radialGradient id="radial-gradient-5" cx="-83.18" cy="-1179.88" fx="-83.18" fy="-1179.88" r="1" gradientTransform="translate(-8180.88 -53718.75) rotate(-12.89) scale(46.31 -46.31)" gradientUnits="userSpaceOnUse"><stop offset="0" stop-color="#a80000"/><stop offset="1" stop-color="#ffd400" stop-opacity="0"/></radialGradient><radialGradient id="radial-gradient-6" cx="-2.95" cy="-956.33" fx="-2.95" fy="-956.33" r="1" gradientTransform="translate(-941.48 39613.54) rotate(-178.53) scale(92.37 -41.01)" gradientUnits="userSpaceOnUse"><stop offset="0" stop-color="#fff1b6"/><stop offset=".7" stop-color="#ffd400"/><stop offset="1" stop-color="#f7b700"/></radialGradient><radialGradient id="radial-gradient-7" cx="3.12" cy="-940.78" fx="3.12" fy="-940.78" r="1" gradientTransform="translate(4145.07 32684.37) rotate(173.74) scale(97.15 -34.56)" gradientUnits="userSpaceOnUse"><stop offset=".37" stop-color="#da4e00" stop-opacity=".5"/><stop offset="1" stop-color="#ffe918" stop-opacity="0"/></radialGradient><radialGradient id="radial-gradient-8" cx="-2.75" cy="-954.56" fx="-2.75" fy="-954.56" r="1" gradientTransform="translate(-1825.64 39229.81) rotate(-177.16) scale(84.58 -40.74)" gradientUnits="userSpaceOnUse"><stop offset="0" stop-color="#f76d42"/><stop offset="1" stop-color="#f7b701" stop-opacity="0"/></radialGradient><radialGradient id="radial-gradient-9" cx="-36.76" cy="-1129.45" fx="-36.76" fy="-1129.45" r="1" gradientTransform="translate(4429.41 -119420.82) scale(113.31 -106.08)" gradientUnits="userSpaceOnUse"><stop offset=".76" stop-color="#ffd400" stop-opacity="0"/><stop offset=".99" stop-color="#ff8e00" stop-opacity=".6"/></radialGradient><radialGradient id="radial-gradient-10" cx="-36.33" cy="-1181.33" fx="-36.33" fy="-1181.33" r="1" gradientTransform="translate(13804.23 -61278.59) rotate(10.64) scale(53.4 -53.4)" xlink:href="#radial-gradient-5"/><radialGradient id="radial-gradient-11" cx="-6.01" cy="-981.87" fx="-6.01" fy="-981.87" r="1" gradientTransform="translate(-1184.27 50801.99) rotate(-179.04) scale(114.34 -51.38)" xlink:href="#radial-gradient-6"/><radialGradient id="radial-gradient-12" cx="-.97" cy="-954.08" fx="-.97" fy="-954.08" r="1" gradientTransform="translate(3019.82 37221.72) rotate(175.62) scale(108.93 -38.75)" gradientUnits="userSpaceOnUse"><stop offset=".44" stop-color="#da4e00" stop-opacity=".5"/><stop offset="1" stop-color="#ffe918" stop-opacity="0"/></radialGradient><radialGradient id="radial-gradient-13" cx="5.09" cy="-948.39" fx="5.09" fy="-948.39" r="1" gradientTransform="translate(3595.14 35307.26) rotate(175.36) scale(84.47 -37.02)" xlink:href="#radial-gradient-8"/><radialGradient id="radial-gradient-14" cx="-35.84" cy="-1126.68" fx="-35.84" fy="-1126.68" r="1" gradientTransform="translate(4590.41 -126489.67) scale(120.24 -112.57)" gradientUnits="userSpaceOnUse"><stop offset=".76" stop-color="#ffd400" stop-opacity="0"/><stop offset=".98" stop-color="#ff8e00" stop-opacity=".6"/></radialGradient><radialGradient id="radial-gradient-15" cx="64.88" cy="150.52" fx="64.88" fy="150.52" r="262.34" gradientUnits="userSpaceOnUse"><stop offset=".76" stop-color="#ffd400" stop-opacity="0"/><stop offset=".89" stop-color="#ff9c1f" stop-opacity=".8"/></radialGradient><radialGradient id="radial-gradient-16" cx="175.95" cy="162.42" fx="175.95" fy="162.42" r="70.53" gradientUnits="userSpaceOnUse"><stop offset=".32" stop-color="#ff8e00" stop-opacity=".9"/><stop offset=".84" stop-color="#ffd400" stop-opacity="0"/></radialGradient><radialGradient id="radial-gradient-17" cx="-38.2" cy="-1188.5" fx="-38.2" fy="-1188.5" r="1" gradientTransform="translate(12700.97 -57577.46) rotate(10.3) scale(49.76 -49.76)" gradientUnits="userSpaceOnUse"><stop offset="0" stop-color="#ba4e00"/><stop offset="1" stop-color="#ffd400" stop-opacity="0"/></radialGradient><radialGradient id="radial-gradient-18" cx="-36.33" cy="-1181.33" fx="-36.33" fy="-1181.33" r="1" gradientTransform="translate(13798.55 -61326.37) rotate(10.64) scale(53.4 -53.4)" gradientUnits="userSpaceOnUse"><stop offset="0" stop-color="#a81e00"/><stop offset="1" stop-color="#ffd400" stop-opacity="0"/></radialGradient><radialGradient id="radial-gradient-19" cx="-7.3" cy="-994.37" fx="-7.3" fy="-994.37" r="1" gradientTransform="translate(-2873.76 59109) rotate(-177.69) scale(116.27 -59.2)" xlink:href="#radial-gradient-6"/><radialGradient id="radial-gradient-20" cx="3.06" cy="-964.71" fx="3.06" fy="-964.71" r="1" gradientTransform="translate(5642.38 39764.6) rotate(172.74) scale(100.92 -41.29)" xlink:href="#radial-gradient-12"/><radialGradient id="radial-gradient-21" cx="2.43" cy="-951.56" fx="2.43" fy="-951.56" r="1" gradientTransform="translate(3288.57 36352.3) rotate(175.67) scale(92.92 -38.02)" xlink:href="#radial-gradient-8"/><radialGradient id="radial-gradient-22" cx="-36.28" cy="-1128.01" fx="-36.28" fy="-1128.01" r="1" gradientTransform="translate(4536.83 -123067.28) scale(116.81 -109.36)" gradientUnits="userSpaceOnUse"><stop offset=".75" stop-color="#ffd400" stop-opacity="0"/><stop offset=".99" stop-color="#ff8e00" stop-opacity=".6"/></radialGradient><radialGradient id="radial-gradient-23" cx="356.2" cy="272.03" fx="356.2" fy="272.03" r="105.28" gradientTransform="matrix(1, 0, 0, 1, 0, 0)" xlink:href="#radial-gradient-6"/><radialGradient id="radial-gradient-24" cx="54.81" cy="-985.15" fx="54.81" fy="-985.15" r="1" gradientTransform="translate(21106.92 27015.9) rotate(147.17) scale(56.31 -34.3)" gradientUnits="userSpaceOnUse"><stop offset="0" stop-color="#fff" stop-opacity=".4"/><stop offset="1" stop-color="#fff" stop-opacity="0"/></radialGradient><radialGradient id="radial-gradient-25" cx="321.6" cy="266.6" fx="321.6" fy="266.6" r="79.05" gradientUnits="userSpaceOnUse"><stop offset=".66" stop-color="#ffd400" stop-opacity="0"/><stop offset="1" stop-color="#ff8e00" stop-opacity=".6"/></radialGradient><radialGradient id="radial-gradient-26" cx="148.42" cy="-1157.39" fx="148.42" fy="-1157.39" r="1" gradientTransform="translate(17437.68 750.2) rotate(110.18) scale(36.15 -14.13)" xlink:href="#radial-gradient-24"/></defs><path d="M243.97,442.36c-88.33,0-125.18-22.76-137.4-88.23-14.55-72.35,38.52-132.41,58.93-149.79,21.58-18.37,44.93-47.19,53.53-87.19,6.66-48.32,78.06-57,73.23,20.15-1.43,40.18-25.65,67.18-3.24,91.04,8.02,7.68,42.02,6.68,42.02,6.68,10.82,1.55,12.68,1.77,19.54,1.98,44.86,9.6,11.66,37,13.62,61.21,9.34,30.57,4.2,144.15-120.23,144.15Z" fill="url(#radial-gradient)"/><path d="M243.97,442.36c-88.33,0-125.18-22.76-137.4-88.23-14.55-72.35,38.52-132.41,58.93-149.79,21.58-18.37,95.63-3.33,118.04,20.53,37.88,40.34-.93,21.52,28.53,25.84,58.97,8.63,49.96,20.47,52.14,47.5,9.34,30.57,5.81,144.15-120.23,144.15h-.01Z" fill="url(#radial-gradient-2)"/><path d="M243.97,442.36c-88.33,0-125.18-22.76-137.4-88.23-14.55-72.35,38.52-132.41,58.93-149.79,21.58-18.37,95.63-3.33,118.04,20.53,37.88,40.34-.93,21.52,28.53,25.84,58.97,8.63,49.96,20.47,52.14,47.5,9.34,30.57,5.81,144.15-120.23,144.15h-.01Z" fill="url(#radial-gradient-3)" fill-opacity=".8"/><path d="M138.35,339.67c112.33,6.83,63.64,96.75,137.07,83.95,18.9-3.3,19.36-148.81,18.85-177.1-32.45-7.4-24.05,15.12-24.05,15.12,0,0-20.93,74.39-131.87,78.04h0Z" fill="url(#radial-gradient-4)"/><path d="M199.41,397.25c-5.14,27.36,16.11,47.2,43.86,44.94,32.45-2.64,50.07,1.03,55.21-26.33,5.14-27.36-12.87-53.7-40.23-58.84-27.36-5.14-53.7,12.87-58.84,40.23Z" fill="url(#radial-gradient-5)"/><path d="M263.33,379.74c-26.47,2.61-33.66,47.59-9.44,57.3,32.39,12.99,85.71,14.39,105.05,1.57,19.34-12.82,22.91-44.89-2.63-54.04-25.55-9.15-66.51-7.44-92.98-4.83Z" fill="url(#radial-gradient-6)"/><path d="M263.33,379.74c-26.47,2.61-33.66,47.59-9.44,57.3,32.39,12.99,85.71,14.39,105.05,1.57,19.34-12.82,22.91-44.89-2.63-54.04-25.55-9.15-66.51-7.44-92.98-4.83Z" fill="url(#radial-gradient-7)"/><path d="M263.33,379.74c-26.47,2.61-33.66,47.59-9.44,57.3,32.39,12.99,85.71,14.39,105.05,1.57,19.34-12.82,22.91-44.89-2.63-54.04-25.55-9.15-66.51-7.44-92.98-4.83Z" fill="url(#radial-gradient-8)"/><path d="M263.33,379.74c-26.47,2.61-33.66,47.59-9.44,57.3,32.39,12.99,85.71,14.39,105.05,1.57,19.34-12.82,22.91-44.89-2.63-54.04-25.55-9.15-66.51-7.44-92.98-4.83Z" fill="url(#radial-gradient-9)"/><path d="M249.65,414.85c27.83,0,50.4-22.57,50.4-50.4s-22.57-50.4-50.4-50.4-50.4,22.56-50.4,50.4,22.56,50.4,50.4,50.4Z" fill="url(#radial-gradient-10)"/><path d="M265.12,336.88c-30.71,2.52-45.2,52.62-10.85,62.57,38.53,11.16,99.51,15.31,121.9,2.56,22.39-12.75,26.56-50.7-3.13-59.95-29.69-9.24-77.21-7.7-107.92-5.18Z" fill="url(#radial-gradient-11)"/><path d="M265.12,336.88c-30.71,2.52-45.2,52.62-10.85,62.57,38.53,11.16,99.51,15.31,121.9,2.56,22.39-12.75,26.56-50.7-3.13-59.95-29.69-9.24-77.21-7.7-107.92-5.18Z" fill="url(#radial-gradient-12)"/><path d="M265.12,336.88c-30.71,2.52-45.2,52.62-10.85,62.57,38.53,11.16,99.51,15.31,121.9,2.56,22.39-12.75,26.56-50.7-3.13-59.95-29.69-9.24-77.21-7.7-107.92-5.18Z" fill="url(#radial-gradient-13)"/><path d="M265.12,336.88c-30.71,2.52-45.2,52.62-10.85,62.57,38.53,11.16,99.51,15.31,121.9,2.56,22.39-12.75,26.56-50.7-3.13-59.95-29.69-9.24-77.21-7.7-107.92-5.18Z" fill="url(#radial-gradient-14)"/><path d="M350.59,237.01c-6.86-.21-8.72-.43-19.54-1.98,0,0-34,1-42.02-6.68-22.41-23.86,1.81-50.86,3.24-91.04,4.82-77.15-65.61-69.11-73.23-20.15-6.29,40.43-31.95,68.82-53.53,87.19-2.8,2.39-6.22,5.58-9.99,9.49,25.67,17.39,123.41,79.95,190.42,72.05,8.99-1.06,16.55-4.45,22.89-9.61,6.28-17.02,13.26-32.54-18.24-39.27Z" fill="url(#radial-gradient-15)"/><path d="M350.59,237.01c-6.86-.21-12.73,.68-23.55-.87,0,0-29.99-.11-38.01-7.78-22.41-23.86,1.81-50.86,3.24-91.04,4.82-77.15-65.61-69.11-73.23-20.15-6.29,40.43-31.95,68.82-53.53,87.19-2.8,2.39-25.63,24.6-35.52,42.64,25.67,17.39,148.94,46.81,215.95,38.91,8.99-1.06,16.55-4.45,22.89-9.61,6.28-17.02,13.26-32.54-18.24-39.27Z" fill="url(#radial-gradient-16)" fill-opacity=".7"/><path d="M253.36,319.26c27.83,0,50.4-22.57,50.4-50.4s-22.57-50.4-50.4-50.4-50.4,22.57-50.4,50.4,22.56,50.4,50.4,50.4Z" fill="url(#radial-gradient-17)"/><path d="M243.98,367.07c27.83,0,50.4-22.57,50.4-50.4s-22.57-50.4-50.4-50.4-50.4,22.57-50.4,50.4,22.56,50.4,50.4,50.4Z" fill="url(#radial-gradient-18)"/><path d="M262.97,288.64c-32.14,3.38-46.64,49.94-11.09,62.57,43.94,15.61,113.69,15.93,136.66,3.19,22.97-12.73,27.21-50.69-3.25-59.96-30.46-9.27-90.9-9.11-122.32-5.8Z" fill="url(#radial-gradient-19)"/><path d="M262.97,288.64c-32.14,3.38-46.64,49.94-11.09,62.57,43.94,15.61,113.69,15.93,136.66,3.19,22.97-12.73,27.21-50.69-3.25-59.96-30.46-9.27-90.9-9.11-122.32-5.8Z" fill="url(#radial-gradient-20)"/><path d="M262.97,288.64c-32.14,3.38-46.64,49.94-11.09,62.57,43.94,15.61,113.69,15.93,136.66,3.19,22.97-12.73,27.21-50.69-3.25-59.96-30.46-9.27-90.9-9.11-122.32-5.8Z" fill="url(#radial-gradient-21)"/><path d="M262.97,288.64c-32.14,3.38-46.64,49.94-11.09,62.57,43.94,15.61,113.69,15.93,136.66,3.19,22.97-12.73,27.21-50.69-3.25-59.96-30.46-9.27-90.9-9.11-122.32-5.8Z" fill="url(#radial-gradient-22)"/><path d="M281.39,238.1c-29,5.08-45.72,42.98-13.31,54.49,40.06,14.23,98.35,12.77,119.3,1.15,20.94-11.61,23.82-49.35-3.95-57.8-27.77-8.45-69.96-4.04-102.04,2.15Z" fill="url(#radial-gradient-23)"/><path d="M215.93,322.63c26.57-17.15,39.44-44.49,28.74-61.08-10.7-16.59-40.92-16.13-67.49,1.01-26.58,17.15-39.44,44.49-28.74,61.07,10.7,16.59,40.92,16.13,67.49-1.01Z" fill="url(#radial-gradient-24)"/><path d="M281.39,238.1c-29,5.08-45.72,42.98-13.31,54.49,40.06,14.23,98.35,12.77,119.3,1.15,20.94-11.61,23.82-49.35-3.95-57.8-27.77-8.45-69.96-4.04-102.04,2.15Z" fill="url(#radial-gradient-25)"/><path d="M229.81,177.66c10.2,3.75,24.15-8.66,31.15-27.71,7-19.06,4.41-37.54-5.79-41.29-10.21-3.75-24.15,8.66-31.15,27.71-7,19.06-4.41,37.54,5.79,41.29Z" fill="url(#radial-gradient-26)"/></svg>