<?xml version="1.0" encoding="UTF-8"?><svg id="Layer_59" xmlns="http://www.w3.org/2000/svg" xmlns:xlink="http://www.w3.org/1999/xlink" viewBox="0 0 512 512"><defs><radialGradient id="radial-gradient" cx="257.73" cy="236.86" fx="257.73" fy="236.86" r="138.11" gradientUnits="userSpaceOnUse"><stop offset="0" stop-color="#cb6431"/><stop offset=".53" stop-color="#9e370a"/><stop offset="1" stop-color="#862807"/></radialGradient><radialGradient id="radial-gradient-2" cx="251.8" cy="450.32" fx="251.8" fy="450.32" r="321.97" gradientUnits="userSpaceOnUse"><stop offset=".52" stop-color="#c77842" stop-opacity="0"/><stop offset="1" stop-color="#ff9d73" stop-opacity=".5"/></radialGradient><radialGradient id="radial-gradient-3" cx="257.73" cy="295.31" fx="257.73" fy="295.31" r="196.42" gradientUnits="userSpaceOnUse"><stop offset=".52" stop-color="#c77842" stop-opacity="0"/><stop offset="1" stop-color="#923f1c" stop-opacity=".4"/></radialGradient><radialGradient id="radial-gradient-4" cx="143.84" cy="203.64" fx="143.84" fy="203.64" r="121.01" gradientUnits="userSpaceOnUse"><stop offset=".75" stop-color="#540f00"/><stop offset=".97" stop-color="#8e310f" stop-opacity="0"/></radialGradient><radialGradient id="radial-gradient-5" cx="366.34" cy="163.73" fx="366.34" fy="163.73" r="151.48" gradientUnits="userSpaceOnUse"><stop offset=".78" stop-color="#540f00"/><stop offset="1" stop-color="#8e310f" stop-opacity="0"/></radialGradient><radialGradient id="radial-gradient-6" cx="130.29" cy="303.78" fx="130.29" fy="303.78" r="39.43" gradientUnits="userSpaceOnUse"><stop offset="0" stop-color="#7d280a"/><stop offset="1" stop-color="#9b3d15" stop-opacity="0"/></radialGradient><radialGradient id="radial-gradient-7" cx="384.79" cy="291.35" fx="384.79" fy="291.35" r="39.4" xlink:href="#radial-gradient-6"/><radialGradient id="radial-gradient-8" cx="256.03" cy="32.72" fx="256.03" fy="32.72" r="128.71" gradientUnits="userSpaceOnUse"><stop offset=".8" stop-color="#7e1700"/><stop offset=".98" stop-color="#8e310f" stop-opacity="0"/></radialGradient><radialGradient id="radial-gradient-9" cx="260.97" cy="364.01" fx="260.97" fy="364.01" r="67.55" gradientTransform="translate(969.47 103.03) rotate(90) scale(1 1.95)" gradientUnits="userSpaceOnUse"><stop offset=".25" stop-color="#ce7b50"/><stop offset=".36" stop-color="#ce7c51" stop-opacity=".86"/><stop offset=".59" stop-color="#d18055" stop-opacity=".5"/><stop offset=".67" stop-color="#d28257" stop-opacity=".37"/><stop offset=".94" stop-color="#912f09" stop-opacity="0"/></radialGradient><linearGradient id="linear-gradient" x1="202.49" y1="209.92" x2="200.99" y2="294.25" gradientUnits="userSpaceOnUse"><stop offset="0" stop-color="#fff"/><stop offset=".79" stop-color="#eee"/><stop offset="1" stop-color="#dcdcdc"/></linearGradient><linearGradient id="linear-gradient-2" x1="201.93" y1="204.36" x2="201.55" y2="298.48" gradientUnits="userSpaceOnUse"><stop offset="0" stop-color="#651901"/><stop offset="1" stop-color="#cd6a3a"/></linearGradient><linearGradient id="linear-gradient-3" x1="309.72" y1="213.56" x2="310.85" y2="291.49" xlink:href="#linear-gradient"/><linearGradient id="linear-gradient-4" x1="311.6" y1="206.12" x2="308.97" y2="297.97" xlink:href="#linear-gradient-2"/><linearGradient id="linear-gradient-5" x1="259.22" y1="388.48" x2="259.22" y2="321.08" gradientUnits="userSpaceOnUse"><stop offset="0" stop-color="#b24a1b"/><stop offset="1" stop-color="#4b1300"/></linearGradient></defs><path d="M164.8,203.66s-.01,0-.01,0c-23.47-17.89-12.25-60.68,14.9-76.85,8.95-5.34,19.12-8.92,28.92-12.38,12.89-4.55,25.15-8.88,33.26-16.67,7-6.73,10.61-12.84,13.63-17.94,3.84-6.49,6.71-11.35,14.38-13.83,19.38-6.24,42.8,26.79,36.23,58.75,34.3-7.42,71.3,36.16,48.62,78.33,36.12-7.3,65.62,39.58,40.3,78.57,42.46,5.46,61.9,43.23,55.09,83.83-8.96,53.43-88.9,81.29-196.4,81.29s-179.08-25.73-190.97-78.67c-9.71-43.21,13.54-73.02,54.62-76.91-24.29-32.47,8.81-89.44,47.42-87.53,0,0,.01,0,.01,0Z" fill="#ad4719" fill-rule="evenodd"/><path d="M353.73,203.24c.04-.06,.09-.11,.13-.17h0c22.69-42.17-14.31-85.75-48.62-78.33,6.57-31.96-16.85-65-36.23-58.75-7.66,2.47-10.54,7.34-14.38,13.83-3.02,5.1-6.63,11.21-13.63,17.94-8.1,7.79-20.37,12.12-33.25,16.67-9.81,3.46-19.97,7.05-28.93,12.38-27.13,16.16-38.36,58.91-14.94,76.81-38.19-.92-70.53,55.37-46.43,87.57h.01s-.09,0-.09,0c-41.08,3.88-64.34,33.69-54.63,76.91,11.89,52.94,83.47,78.67,190.97,78.67s187.44-27.86,196.4-81.29c6.81-40.58-12.6-78.34-55.01-83.83h0c25.33-39-4.18-85.88-40.3-78.58,0,0-.37,.06-1.07,.16Z" fill="url(#radial-gradient)" fill-rule="evenodd"/><path d="M395.03,281.66c25.33-39-4.18-85.88-40.3-78.58,22.69-42.18-14.31-85.76-48.62-78.34,6.56-31.96-16.86-65-36.23-58.75-13.69,4.41-12.11,16.48-28.01,31.77-14.27,13.72-41.45,16.71-62.18,29.05-27.15,16.18-38.37,58.96-14.9,76.85-38.61-1.92-71.71,55.06-47.41,87.53-41.08,3.88-64.34,33.69-54.63,76.91,11.89,52.94,83.47,78.67,190.97,78.67s187.44-27.86,196.4-81.29c6.81-40.61-12.63-78.38-55.09-83.83h0Z" fill="url(#radial-gradient-2)"/><path d="M395.03,281.66c25.33-39-4.18-85.88-40.3-78.58,22.69-42.18-14.31-85.76-48.62-78.34,6.56-31.96-16.86-65-36.23-58.75-13.69,4.41-12.11,16.48-28.01,31.77-14.27,13.72-41.45,16.71-62.18,29.05-27.15,16.18-38.37,58.96-14.9,76.85-38.61-1.92-71.71,55.06-47.41,87.53-41.08,3.88-64.34,33.69-54.63,76.91,11.89,52.94,83.47,78.67,190.97,78.67s187.44-27.86,196.4-81.29c6.81-40.61-12.63-78.38-55.09-83.83h0Z" fill="url(#radial-gradient-3)"/><path d="M175.92,320.52c-37.98-7.19-51.78-21.13-57.96-28.98-14.41,0-28.26,6.26-37.28,13.56,38.47,28.17,80.75,16.96,95.24,15.42Z" fill="url(#radial-gradient-4)"/><path d="M337.11,310.39c37.98-7.19,51.83-20.85,58.01-28.71,14,1.62,25.98,8.1,35.01,15.4-38.47,28.17-78.53,14.85-93.02,13.31Z" fill="url(#radial-gradient-5)"/><path d="M156.3,274.55c-17.9-17.91-47.07-8.89-47.07-8.89,0,0-1.99,20.96,19.21,36.14,19.52,12.24,26.1,13.75,39.88,17.58,2.09-6.02,5.89-26.92-12.02-44.83Z" fill="url(#radial-gradient-6)"/><path d="M356.73,264.42c17.9-17.9,47.42-9.15,47.42-9.15,0,0-2.52,25.82-19.71,36.73-18.65,13.01-27.33,13.41-39.73,17.25-2.08-6.02-5.89-26.92,12.02-44.83Z" fill="url(#radial-gradient-7)"/><path d="M257.56,161.5c25.24-7.31,44.85-20.58,48.68-37,17.3-3.39,30.1,6.44,34.46,9.2-42.1,26.07-65.51,29.67-83.14,27.8Z" fill="url(#radial-gradient-8)"/><path d="M392.24,363c0,40.87-59.63,74-133.18,74s-133.18-33.13-133.18-74,59.62-74,133.18-74,133.18,33.13,133.18,74Z" fill="url(#radial-gradient-9)" isolation="isolate" opacity=".7"/><g><path d="M242.41,252.27c0,24.43-18.21,44.24-40.68,44.24s-40.67-19.8-40.67-44.24,18.21-44.24,40.67-44.24,40.68,19.81,40.68,44.24Z" fill="url(#linear-gradient)"/><path d="M201.73,211.54c-20.26,0-37.17,17.96-37.17,40.74s16.91,40.74,37.17,40.74,37.18-17.96,37.18-40.74-16.92-40.74-37.18-40.74Zm-44.17,40.74c0-26.08,19.5-47.74,44.17-47.74s44.18,21.65,44.18,47.74-19.51,47.74-44.18,47.74-44.17-21.65-44.17-47.74Z" fill="url(#linear-gradient-2)" fill-rule="evenodd"/><path d="M228.76,255.16c0,13.86-10.33,25.1-23.08,25.1s-23.08-11.24-23.08-25.1,10.34-25.1,23.08-25.1,23.08,11.24,23.08,25.1Z" fill="#421d30"/></g><g><path d="M269.6,252.27c0,24.43,18.21,44.24,40.67,44.24s40.68-19.8,40.68-44.24-18.21-44.24-40.68-44.24-40.67,19.81-40.67,44.24Z" fill="url(#linear-gradient-3)"/><path d="M310.27,211.54c20.26,0,37.18,17.96,37.18,40.74s-16.92,40.74-37.18,40.74-37.17-17.96-37.17-40.74,16.91-40.74,37.17-40.74Zm44.18,40.74c0-26.08-19.51-47.74-44.18-47.74s-44.17,21.65-44.17,47.74,19.5,47.74,44.17,47.74,44.18-21.65,44.18-47.74Z" fill="url(#linear-gradient-4)" fill-rule="evenodd"/><path d="M283.24,255.16c0,13.86,10.33,25.1,23.08,25.1s23.08-11.24,23.08-25.1-10.33-25.1-23.08-25.1-23.08,11.24-23.08,25.1Z" fill="#421d30"/></g><g><path d="M191.06,323.63c-5.24-1.9-12.91,3.11-11.04,8.37,24.16,67.7,134.23,67.74,158.4,0,1.88-5.25-5.79-10.27-11.04-8.37-41.46,15.05-94.85,15.05-136.32,0Z" fill="#fff"/><path d="M188.57,320.9c41.47,15.05,100.01,15.55,141.47,.5l11.04,5.83c-43.52,22.28-120.48,23.31-163.4-.52l10.89-5.81Z" fill="#c1c1c1"/><path d="M178.8,319.44c3.67-2.62,9.3-4.33,14.65-2.39,39.92,14.49,91.62,14.49,131.54,0,5.36-1.94,10.99-.24,14.65,2.39,3.61,2.58,7.81,8.09,5.37,14.91-13.34,37.4-50.15,55.44-85.79,55.44-35.64,0-72.45-18.05-85.79-55.44-2.43-6.82,1.76-12.33,5.37-14.91Zm1.22,12.56c-1.87-5.25,5.8-10.27,11.04-8.37,41.47,15.05,94.86,15.05,136.32,0,5.25-1.9,12.92,3.11,11.04,8.37-24.17,67.74-134.24,67.7-158.4,0Z" fill="url(#linear-gradient-5)" fill-rule="evenodd"/></g></svg>