<?xml version="1.0" encoding="UTF-8"?><svg id="Layer_59" xmlns="http://www.w3.org/2000/svg" xmlns:xlink="http://www.w3.org/1999/xlink" viewBox="0 0 512 512"><defs><radialGradient id="radial-gradient" cx="248.37" cy="392.68" fx="248.37" fy="392.68" r="67.72" gradientUnits="userSpaceOnUse"><stop offset="0" stop-color="#b263ff"/><stop offset=".7" stop-color="#9c06e5"/><stop offset="1" stop-color="#b2218e"/></radialGradient><radialGradient id="radial-gradient-2" cx="-86.89" cy="-2431.2" fx="-86.89" fy="-2431.2" r="1" gradientTransform="translate(4062.6 -109264.4) scale(45.1 -45.1)" xlink:href="#radial-gradient"/><radialGradient id="radial-gradient-3" cx="-30.97" cy="-2312.62" fx="-30.97" fy="-2312.62" r="1" gradientTransform="translate(9566.74 -685488.6) scale(296.45 -296.45)" gradientUnits="userSpaceOnUse"><stop offset=".12" stop-color="#c60eff"/><stop offset="1" stop-color="#80f"/></radialGradient><radialGradient id="radial-gradient-4" cx="-32.55" cy="-2315.96" fx="-32.55" fy="-2315.96" r="1" gradientTransform="translate(8570.25 -593256.57) scale(256.21 -256.21)" gradientUnits="userSpaceOnUse"><stop offset=".63" stop-color="#c60eff" stop-opacity="0"/><stop offset=".93" stop-color="#7a00d1"/></radialGradient><radialGradient id="radial-gradient-5" cx="-63.64" cy="-2381.91" fx="-63.64" fy="-2381.91" r="1" gradientTransform="translate(4775.16 -165695.06) scale(69.65 -69.65)" gradientUnits="userSpaceOnUse"><stop offset=".5" stop-color="#7a00d1"/><stop offset="1" stop-color="#c60eff" stop-opacity="0"/></radialGradient><linearGradient id="linear-gradient" x1="258.04" y1="110.01" x2="393.14" y2="294.89" gradientUnits="userSpaceOnUse"><stop offset=".44" stop-color="#ff4570" stop-opacity="0"/><stop offset=".99" stop-color="#f45959"/></linearGradient><radialGradient id="radial-gradient-6" cx="-32.81" cy="-2316.52" fx="-32.81" fy="-2316.52" r="1" gradientTransform="translate(8604.79 -580162.76) scale(250.59 -250.59)" gradientUnits="userSpaceOnUse"><stop offset=".74" stop-color="#d450ff" stop-opacity="0"/><stop offset="1" stop-color="#fff" stop-opacity=".6"/></radialGradient><radialGradient id="radial-gradient-7" cx="204.42" cy="-2346.4" fx="204.42" fy="-2346.4" r="1" gradientTransform="translate(127100.37 -5601.69) rotate(90) scale(27.99 -54.02)" gradientUnits="userSpaceOnUse"><stop offset="0" stop-color="#fbf0ff" stop-opacity=".6"/><stop offset="1" stop-color="#be23ff" stop-opacity="0"/></radialGradient><radialGradient id="radial-gradient-8" cx="-37.4" cy="-2326.27" fx="-37.4" fy="-2326.27" r="1" gradientTransform="translate(6888.71 -419985.36) scale(180.62 -180.62)" xlink:href="#radial-gradient-3"/><radialGradient id="radial-gradient-9" cx="-38.89" cy="-2329.42" fx="-38.89" fy="-2329.42" r="1" gradientTransform="translate(6499.2 -385700.1) scale(165.64 -165.67)" xlink:href="#radial-gradient-4"/><radialGradient id="radial-gradient-10" cx="-87.82" cy="-2433.16" fx="-87.82" fy="-2433.16" r="1" gradientTransform="translate(4038.66 -107965.01) scale(44.47 -44.48)" gradientUnits="userSpaceOnUse"><stop offset=".42" stop-color="#7a00d1"/><stop offset="1" stop-color="#c60eff" stop-opacity="0"/></radialGradient><radialGradient id="radial-gradient-11" cx="13.64" cy="-2333.58" fx="13.64" fy="-2333.58" r="1" gradientTransform="translate(270650.22 -138734.62) rotate(63.13) scale(123.85 -130.33)" gradientUnits="userSpaceOnUse"><stop offset=".51" stop-color="#ff4570" stop-opacity="0"/><stop offset=".99" stop-color="#f45959"/></radialGradient><radialGradient id="radial-gradient-12" cx="-38.66" cy="-2328.93" fx="-38.66" fy="-2328.93" r="1" gradientTransform="translate(6677.27 -390506.61) scale(167.82 -167.82)" xlink:href="#radial-gradient-6"/><radialGradient id="radial-gradient-13" cx="135.9" cy="203.19" fx="135.9" fy="203.19" r="24.87" gradientTransform="translate(0 84.27) scale(1 .59)" gradientUnits="userSpaceOnUse"><stop offset="0" stop-color="#fbf0ff" stop-opacity=".8"/><stop offset="1" stop-color="#be23ff" stop-opacity="0"/></radialGradient></defs><path d="M270.86,451.78c19.1,0,34.6-15.04,34.6-33.58s-15.5-33.58-34.6-33.58-34.6,15.03-34.6,33.58,15.49,33.58,34.6,33.58Z" fill="url(#radial-gradient)" fill-opacity=".9"/><path d="M166.78,424.16c12.49-4.83,18.82-18.56,14.14-30.68-4.69-12.12-18.61-18.03-31.09-13.2-12.49,4.83-18.82,18.56-14.13,30.68,4.68,12.12,18.6,18.03,31.08,13.2Z" fill="url(#radial-gradient-2)" fill-opacity=".9"/><path d="M282.23,367.15c-25.41-3.85-33.39-28.53-25.41-52.98,14.18-43.46,63.22-57.95,83.6-65.27,30.73-11.03,34.04-27.96,34.04-43.73,0-14.62-8.43-26.95-28.93-26.95s-29.54,16.98-29.07,31.98c.76,24.34-20.48,42.79-44.17,41.73-26.07-1.17-37.57-22.42-40.81-37.8-6.18-29.39,2.55-73.69,27.88-97.53,79.2-74.52,222.2-19.32,207.41,85.48-6.01,42.59-32.55,79.82-118.92,109.92-32.61,12.84-22.33,61.5-65.62,55.16h0Z" fill="url(#radial-gradient-3)"/><path d="M282.23,367.15c-25.41-3.85-33.39-28.53-25.41-52.98,14.18-43.46,63.22-57.95,83.6-65.27,30.73-11.03,34.04-27.96,34.04-43.73,0-14.62-8.43-26.95-28.93-26.95s-29.54,16.98-29.07,31.98c.76,24.34-20.48,42.79-44.17,41.73-26.07-1.17-37.57-22.42-40.81-37.8-6.18-29.39,2.55-73.69,27.88-97.53,79.2-74.52,222.2-19.32,207.41,85.48-6.01,42.59-32.55,79.82-118.92,109.92-32.61,12.84-22.33,61.5-65.62,55.16h0Z" fill="url(#radial-gradient-4)"/><path d="M282.23,367.15c-25.41-3.85-33.39-28.53-25.41-52.98,14.18-43.46,63.22-57.95,83.6-65.27,30.73-11.03,34.04-27.96,34.04-43.73,0-14.62-8.43-26.95-28.93-26.95s-29.54,16.98-29.07,31.98c.76,24.34-20.48,42.79-44.17,41.73-26.07-1.17-37.57-22.42-40.81-37.8-6.18-29.39,2.55-73.69,27.88-97.53,79.2-74.52,222.2-19.32,207.41,85.48-6.01,42.59-32.55,79.82-118.92,109.92-32.61,12.84-22.33,61.5-65.62,55.16h0Z" fill="url(#radial-gradient-5)"/><path d="M282.23,367.15c-25.41-3.85-33.39-28.53-25.41-52.98,14.18-43.46,63.22-57.95,83.6-65.27,30.73-11.03,34.04-27.96,34.04-43.73,0-14.62-8.43-26.95-28.93-26.95s-29.54,16.98-29.07,31.98c.76,24.34-20.48,42.79-44.17,41.73-26.07-1.17-37.57-22.42-40.81-37.8-6.18-29.39,2.55-73.69,27.88-97.53,79.2-74.52,222.2-19.32,207.41,85.48-6.01,42.59-32.55,79.82-118.92,109.92-32.61,12.84-22.33,61.5-65.62,55.16h0Z" fill="url(#linear-gradient)" fill-opacity=".9" opacity=".5"/><path d="M374.46,205.16c-.38-12.68-8.58-26.81-28.93-26.95-17.85-.12-29.54,16.98-29.07,31.98,.76,24.34-20.48,42.79-44.17,41.73-26.07-1.17-37.57-22.42-40.81-37.8-6.18-29.39,2.55-73.69,27.88-97.53,79.2-74.52,222.2-19.32,207.41,85.48-4,28.34-91.84,19.24-92.32,3.09h.01Z" fill="url(#radial-gradient-6)"/><g opacity=".6"><path d="M346.78,148.09c30.38-1.32,54.49-14.42,53.84-29.25-.64-14.83-25.79-25.78-56.17-24.46-30.38,1.32-54.49,14.42-53.84,29.25,.64,14.83,25.79,25.78,56.17,24.46Z" fill="url(#radial-gradient-7)"/></g><path d="M151.17,366.69c-16.96,3.87-26.19-14.42-27.04-30.28-1.51-28.19,9.65-41.94,19.76-50.69,15.24-13.2,15.11-26.72,11.24-35.91-4.26-10.12-16.07-12.74-25.24-9.27-10.31,3.9-16.93,14.79-8.42,28.21,8.05,12.7,1.04,32.4-16.16,33.88-37.57,3.23-48.85-51.56-37.57-75.08,29.03-60.57,123.7-60.6,138.52,3.06,4.01,17.22,5.65,40.93-33.42,82.46-17.71,18.82,10.58,46.26-21.67,53.62Z" fill="url(#radial-gradient-8)"/><path d="M151.17,366.69c-16.96,3.87-26.19-14.42-27.04-30.28-1.51-28.19,9.65-41.94,19.76-50.69,15.24-13.2,15.11-26.72,11.24-35.91-4.26-10.12-16.07-12.74-25.24-9.27-10.31,3.9-16.93,14.79-8.42,28.21,8.05,12.7,1.04,32.4-16.16,33.88-37.57,3.23-48.85-51.56-37.57-75.08,29.03-60.57,123.7-60.6,138.52,3.06,4.01,17.22,5.65,40.93-33.42,82.46-17.71,18.82,10.58,46.26-21.67,53.62Z" fill="url(#radial-gradient-9)"/><path d="M151.17,366.69c-16.96,3.87-26.19-14.42-27.04-30.28-1.51-28.19,9.65-41.94,19.76-50.69,15.24-13.2,15.11-26.72,11.24-35.91-4.26-10.12-16.07-12.74-25.24-9.27-10.31,3.9-16.93,14.79-8.42,28.21,8.05,12.7,1.04,32.4-16.16,33.88-37.57,3.23-48.85-51.56-37.57-75.08,29.03-60.57,123.7-60.6,138.52,3.06,4.01,17.22,5.65,40.93-33.42,82.46-17.71,18.82,10.58,46.26-21.67,53.62Z" fill="url(#radial-gradient-10)"/><path d="M151.17,366.69c-16.96,3.87-26.19-14.42-27.04-30.28-1.51-28.19,9.65-41.94,19.76-50.69,15.24-13.2,15.11-26.72,11.24-35.91-4.26-10.12-16.07-12.74-25.24-9.27-10.31,3.9-16.93,14.79-8.42,28.21,8.05,12.7,1.04,32.4-16.16,33.88-37.57,3.23-48.85-51.56-37.57-75.08,29.03-60.57,123.7-60.6,138.52,3.06,4.01,17.22,5.65,40.93-33.42,82.46-17.71,18.82,10.58,46.26-21.67,53.62Z" fill="url(#radial-gradient-11)" fill-opacity=".7" opacity=".5"/><path d="M155.98,251.17c-5.25-12.43-19.3-14.13-27.09-10.3-8.96,4.42-16.11,14.13-7.42,27.88,8.02,14.23,1.19,28.61-11.35,32.82-34.97,11.74-55.89-45.84-42.38-74.02,29.03-60.57,123.7-60.6,138.52,3.06,4.01,17.22-46.4,29.75-50.28,20.56Z" fill="url(#radial-gradient-12)"/><g opacity=".6"><path d="M136.74,217.22c15.87-.95,28.36-8,27.89-15.74-.46-7.74-13.69-13.26-29.57-12.31-15.86,.95-28.35,8-27.89,15.74,.46,7.75,13.7,13.26,29.57,12.31Z" fill="url(#radial-gradient-13)"/></g></svg>