<?xml version="1.0" encoding="UTF-8"?><svg id="Layer_59" xmlns="http://www.w3.org/2000/svg" xmlns:xlink="http://www.w3.org/1999/xlink" viewBox="0 0 512 512"><defs><radialGradient id="radial-gradient" cx="-31.58" cy="1330.35" fx="-31.58" fy="1330.35" r="1" gradientTransform="translate(10878.25 447745.22) scale(336.49 -336.49)" gradientUnits="userSpaceOnUse"><stop offset="0" stop-color="#fff1b6"/><stop offset=".43" stop-color="#ffd400"/><stop offset=".7" stop-color="#ffd400"/><stop offset="1" stop-color="#ff8e00"/></radialGradient><radialGradient id="radial-gradient-2" cx="-20.66" cy="1325.75" fx="-20.66" fy="1325.75" r="1" gradientTransform="translate(-381404.15 279270.54) rotate(54.7) scale(356.99 -356.58)" gradientUnits="userSpaceOnUse"><stop offset=".61" stop-color="#ffe437" stop-opacity="0"/><stop offset=".86" stop-color="#ff79b1" stop-opacity=".45"/><stop offset=".99" stop-color="#ff3673" stop-opacity=".56"/></radialGradient><radialGradient id="radial-gradient-3" cx="-34.37" cy="1357.19" fx="-34.37" fy="1357.19" r="1" gradientTransform="translate(257005.92 -6540.78) rotate(-90) scale(198.02 -189.18)" gradientUnits="userSpaceOnUse"><stop offset=".85" stop-color="#ffc60c" stop-opacity="0"/><stop offset="1" stop-color="#ff7039" stop-opacity=".68"/></radialGradient><radialGradient id="radial-gradient-4" cx="-6.81" cy="1319.06" fx="-6.81" fy="1319.06" r="1" gradientTransform="translate(-245906.46 1528.69) rotate(90) scale(188.2 -186.62)" gradientUnits="userSpaceOnUse"><stop offset=".85" stop-color="#fe789b" stop-opacity="0"/><stop offset="1" stop-color="#f11414" stop-opacity=".41"/></radialGradient><radialGradient id="radial-gradient-5" cx="35.9" cy="1296.61" fx="35.9" fy="1296.61" r="1" gradientTransform="translate(-111277.87 -1544.44) rotate(90) scale(46.79 -86.02)" gradientUnits="userSpaceOnUse"><stop offset="0" stop-color="#fff"/><stop offset="1" stop-color="#ffed49" stop-opacity="0"/></radialGradient><radialGradient id="radial-gradient-6" cx="-60.85" cy="1308.63" fx="-60.85" fy="1308.63" r="1" gradientTransform="translate(5629.28 117728.61) scale(89.77 -89.77)" gradientUnits="userSpaceOnUse"><stop offset=".82" stop-color="#842200"/><stop offset="1" stop-color="#c63800"/></radialGradient><linearGradient id="linear-gradient" x1="164.62" y1="153.39" x2="164.62" y2="235.99" gradientUnits="userSpaceOnUse"><stop offset=".2" stop-color="#fd9e28"/><stop offset="1" stop-color="#ffdf90"/></linearGradient><radialGradient id="radial-gradient-7" cx="-60.18" cy="1309.13" fx="-60.18" fy="1309.13" r="1" gradientTransform="translate(5841.83 119775.12) scale(91.3 -91.3)" xlink:href="#radial-gradient-6"/><linearGradient id="linear-gradient-2" x1="350.09" y1="157.32" x2="350.09" y2="232.88" xlink:href="#linear-gradient"/><radialGradient id="radial-gradient-8" cx="-42.41" cy="1322.48" fx="-42.41" fy="1322.48" r="1" gradientTransform="translate(7002.15 223233.18) scale(159.01 -168.52)" gradientUnits="userSpaceOnUse"><stop offset=".4" stop-color="#b24620"/><stop offset="1" stop-color="#431b0c"/></radialGradient><radialGradient id="radial-gradient-9" cx="-57.46" cy="1328.02" fx="-57.46" fy="1328.02" r="1" gradientTransform="translate(5623.2 345295.6) scale(93.5 -259.68)" gradientUnits="userSpaceOnUse"><stop offset=".52" stop-color="#a8360d"/><stop offset="1" stop-color="#2e0c00"/></radialGradient><radialGradient id="radial-gradient-10" cx="256.46" cy="390.5" fx="256.46" fy="390.5" r="99.12" gradientUnits="userSpaceOnUse"><stop offset=".8" stop-color="#d20939"/><stop offset=".95" stop-color="#ff5bc0"/><stop offset="1" stop-color="#ff8ec6"/></radialGradient><linearGradient id="linear-gradient-3" x1="256.16" y1="-1557.17" x2="256.16" y2="-1646.87" gradientTransform="translate(0 -1323.49) scale(1 -1)" gradientUnits="userSpaceOnUse"><stop offset="0" stop-color="#fd9e28"/><stop offset=".91" stop-color="#ffe092"/></linearGradient><radialGradient id="radial-gradient-11" cx="34.23" cy="1343.76" fx="34.23" fy="1343.76" r="1.01" gradientTransform="translate(-26696.47 -602326.41) rotate(176.89) scale(64.16 -448.85) skewX(2.38)" gradientUnits="userSpaceOnUse"><stop offset="0" stop-color="#c1c1c1"/><stop offset="1" stop-color="#cacaca" stop-opacity=".6"/></radialGradient><linearGradient id="linear-gradient-4" x1="160.39" y1="181.13" x2="160.39" y2="416.07" gradientUnits="userSpaceOnUse"><stop offset="0" stop-color="#00b6ff"/><stop offset=".29" stop-color="#77dfff"/><stop offset=".61" stop-color="#00b6ff"/><stop offset="1" stop-color="#17a0e0"/></linearGradient><linearGradient id="linear-gradient-5" x1="354.41" y1="178.49" x2="354.41" y2="437.16" xlink:href="#linear-gradient-4"/></defs><path d="M256,436c99.41,0,180-80.59,180-180S355.41,76,256,76,76,156.59,76,256s80.59,180,180,180Z" fill="url(#radial-gradient)"/><path d="M256,436c99.41,0,180-80.59,180-180S355.41,76,256,76,76,156.59,76,256s80.59,180,180,180Z" fill="url(#radial-gradient-2)"/><path d="M256,436c99.41,0,180-80.59,180-180S355.41,76,256,76,76,156.59,76,256s80.59,180,180,180Z" fill="url(#radial-gradient-3)" fill-opacity=".8"/><path d="M256,76c-99.41,0-180,80.59-180,180s80.59,180,180,180,180-80.59,180-180S355.41,76,256,76Z" fill="url(#radial-gradient-4)" fill-opacity=".8"/><g opacity=".4"><path d="M348.46,134.97c0,25.84-41.05,46.79-91.69,46.79s-91.69-20.95-91.69-46.79,41.05-46.79,91.69-46.79,91.69,20.95,91.69,46.79Z" fill="url(#radial-gradient-5)"/></g><path d="M210.59,212.33c-8.81,6.95-13.51-31.75-45.97-25.74-28.48,5.27-34.86,48.04-44.19,52.05-11.28,4.85-2.58-66.01,46.1-76.69,39.09-8.57,53.02,43.31,44.06,50.37h0Z" fill="url(#radial-gradient-6)"/><path d="M210.59,212.33c-8.81,6.95-13.51-31.75-45.97-25.74-28.48,5.27-34.86,48.04-44.19,52.05-11.28,4.85-2.58-66.01,46.1-76.69,39.09-8.57,53.02,43.31,44.06,50.37h0Z" fill="#421d30"/><path d="M216.59,215.24l-2.28,1.8c-1.13,.89-2.53,1.66-4.21,1.97-1.71,.32-3.33,.11-4.75-.41-2.56-.94-4.43-2.88-5.65-4.31-1.32-1.54-2.64-3.43-3.87-5.19l-.11-.15c-1.26-1.8-2.53-3.62-3.96-5.44-2.93-3.73-6.21-7.03-10.27-9.14-3.92-2.04-8.93-3.15-15.77-1.89-11.29,2.09-18.84,11.72-25.08,23.42-1.9,3.57-3.43,6.8-4.91,9.93-1.02,2.16-2.02,4.28-3.11,6.43-1.21,2.4-2.5,4.75-3.9,6.7-1.32,1.83-3.23,4.03-5.92,5.18m93.79-28.91v0Zm0-.71c1.2-1.8,1.83-3.83,2.18-5.62,.55-2.85,.55-6.06,.18-9.33-.75-6.55-3.14-14.2-7.15-21.27-8.05-14.19-23.57-27.26-46.55-22.23-27.19,5.97-42.69,28.59-49.87,47.94-3.62,9.74-5.36,19.19-5.35,26.18,.01,3.34,.4,6.88,1.78,9.64,.72,1.43,1.99,3.24,4.2,4.27,2.41,1.13,4.86,.86,6.79,.02m83.46-31.82c1.43,1.04,2.82,1.19,4.33,0h0c8.96-7.07-4.97-58.95-44.06-50.38-48.68,10.68-57.38,81.54-46.1,76.69,3.26-1.4,6.15-7.5,9.74-15.08,6.72-14.18,15.9-33.53,34.45-36.97,20.16-3.73,29.61,9.77,35.99,18.88,1.46,2.08,2.76,3.94,3.98,5.3,.57,.62,1.11,1.15,1.66,1.54,0,0,0,0,.01,.01Z" fill="url(#linear-gradient)" fill-rule="evenodd"/><path d="M304.11,212.33c8.81,6.95,13.51-31.75,45.97-25.74,28.48,5.27,34.86,48.04,44.19,52.05,11.28,4.85,2.58-66.01-46.1-76.69-39.09-8.57-53.02,43.31-44.06,50.37h0Z" fill="url(#radial-gradient-7)"/><path d="M304.11,212.33c8.81,6.95,13.51-31.75,45.97-25.74,28.48,5.27,34.86,48.04,44.19,52.05,11.28,4.85,2.58-66.01-46.1-76.69-39.09-8.57-53.02,43.31-44.06,50.37h0Z" fill="#421d30"/><path d="M298.11,214.53c-1.19-1.8-1.83-3.83-2.17-5.62-.55-2.85-.55-6.06-.18-9.33,.75-6.55,3.14-14.2,7.15-21.27,8.05-14.19,23.57-27.26,46.55-22.23,27.19,5.97,42.69,28.59,49.87,47.94,3.62,9.74,5.36,19.19,5.35,26.18,0,3.34-.41,6.88-1.78,9.64-.72,1.43-1.99,3.24-4.2,4.27-2.41,1.13-4.86,.86-6.8,.02-2.69-1.16-4.59-3.35-5.91-5.18-1.4-1.95-2.69-4.3-3.91-6.7-1.08-2.15-2.08-4.27-3.11-6.43-1.47-3.13-3-6.35-4.9-9.93-6.24-11.7-13.79-21.33-25.08-23.42-6.84-1.27-11.86-.15-15.78,1.89-4.05,2.11-7.33,5.42-10.26,9.14-1.43,1.81-2.7,3.63-3.97,5.44l-.1,.15c-1.23,1.76-2.56,3.65-3.87,5.19-1.22,1.42-3.09,3.37-5.65,4.31-1.42,.52-3.04,.74-4.75,.41-1.68-.32-3.08-1.08-4.21-1.97l-2.29-1.8v-.71Zm96.16,24.11c11.28,4.85,2.58-66.01-46.1-76.69-39.09-8.57-53.02,43.31-44.06,50.37h0c1.52,1.2,2.91,1.05,4.34,.01,0,0,.01,0,.01-.01,.54-.39,1.09-.92,1.65-1.54,1.23-1.37,2.53-3.22,3.99-5.3,6.38-9.11,15.83-22.61,35.98-18.88,18.56,3.43,27.74,22.79,34.46,36.97,3.59,7.58,6.48,13.68,9.73,15.08Z" fill="url(#linear-gradient-2)" fill-rule="evenodd"/><path d="M211.29,292.03c0-32.23,20.09-58.35,44.87-58.35s44.87,26.13,44.87,58.35c0,9.63-1.05,18.85-4.52,24.78-1.46,2.51-4.7,2.43-7.07,.88-5.43-3.54-16.53-8.99-33.28-8.99s-27.07,6.63-32.09,10.98c-2.23,1.93-5.54,2.47-7.15-.05-3.94-6.16-5.62-17.05-5.62-27.59h0Z" fill="url(#radial-gradient-8)"/><path d="M211.29,292.03c0-32.23,20.09-58.35,44.87-58.35s44.87,26.13,44.87,58.35c0,9.63-1.05,18.85-4.52,24.78-1.46,2.51-4.7,2.43-7.07,.88-5.43-3.54-16.53-8.99-33.28-8.99s-27.07,6.63-32.09,10.98c-2.23,1.93-5.54,2.47-7.15-.05-3.94-6.16-5.62-17.05-5.62-27.59h0Z" fill="url(#radial-gradient-9)"/><path d="M211.29,292.03c0-32.23,20.09-58.35,44.87-58.35s44.87,26.13,44.87,58.35c0,9.63-1.05,18.85-4.52,24.78-1.46,2.51-4.7,2.43-7.07,.88-5.43-3.54-16.53-8.99-33.28-8.99s-27.07,6.63-32.09,10.98c-2.23,1.93-5.54,2.47-7.15-.05-3.94-6.16-5.62-17.05-5.62-27.59h0Z" fill="#421d30"/><path d="M292.35,318.75c-.35,1.01-1.21,1.7-1.65,2.57-1.27,2.51-3.62-2.09-5.68-3.63-4.71-3.54-14.34-11.13-28.87-11.13s-23.48,8.77-27.84,13.12c-1.93,1.93-2.31,6.07-3.71,3.54-.86-1.54-3.23,.1-3.85-1.95,0-17.98,17.64-31.78,35.4-31.78h0c17.66,.01,36.19,13.59,36.19,29.27Z" fill="url(#radial-gradient-10)" fill-rule="evenodd"/><path d="M204.69,292.03c0-34.69,21.84-65.35,51.47-65.35s51.47,30.67,51.47,65.35c0,9.72-.98,20.72-5.51,28.47-2.04,3.49-5.32,5.02-8.32,5.26-2.86,.22-5.62-.66-7.82-2.1-4.58-2.98-14.48-10.09-29.82-10.09s-23.84,8.01-27.91,11.53c-2.03,1.76-4.75,3.08-7.7,3.22-3.16,.15-6.78-1.13-9.11-4.76-2.66-4.16-4.3-9.44-5.29-14.7-1.02-5.35-1.46-11.18-1.46-16.82h0Zm51.47-58.36c-24.78,0-44.87,26.12-44.87,58.35h0c0,10.55,1.68,21.44,5.62,27.6,1.61,2.52,4.93,1.98,7.15,.05,5.02-4.35,15.41-13.12,32.09-13.12s27.84,7.59,33.28,11.13c2.37,1.55,5.6,1.62,7.07-.88,3.47-5.93,4.52-15.15,4.52-24.78,0-32.22-20.09-58.35-44.87-58.35Z" fill="url(#linear-gradient-3)" fill-rule="evenodd"/><path d="M289.86,253.53c-8.22-12.17-20.27-19.86-33.7-19.86-14.13,0-26.02,7.25-34.25,20.52,10.73,11.21,54.59,11.9,67.95-.66h0Z" fill="#fff"/><path d="M287.2,249.91c-9.46-4.66-19.68-7.73-30.43-7.73-11.81,0-22.82,3.19-32.17,7.85,8.98-11.15,19.46-16.36,31.56-16.36s22.98,6.19,31.04,16.25Z" fill="url(#radial-gradient-11)" fill-rule="evenodd"/><path d="M207.16,429.37v.02c-28.03,9.94-75.24-22.95-85.08-48.81-16.46-43.25-5.26-123.9,2.95-146.15,8.5-23.04,30.11-65.11,62.3-43.54-23.79,39.41-25.16,193.28,19.82,238.47v.02Z" fill="url(#linear-gradient-4)"/><path d="M307.63,429.33v.02c28.03,9.94,75.25-22.95,85.09-48.81,16.46-43.25,5.26-123.9-2.96-146.15-8.5-23.04-30.1-65.11-62.29-43.54,23.79,39.41,25.15,193.28-19.83,238.47v.02Z" fill="url(#linear-gradient-5)"/></svg>