<?xml version="1.0" encoding="UTF-8"?><svg id="Layer_64" xmlns="http://www.w3.org/2000/svg" xmlns:xlink="http://www.w3.org/1999/xlink" viewBox="0 0 512 512"><defs><radialGradient id="radial-gradient" cx="257.65" cy="103.79" fx="257.65" fy="103.79" r="331.45" gradientUnits="userSpaceOnUse"><stop offset="0" stop-color="#ffb9b2"/><stop offset=".43" stop-color="#ff836c"/><stop offset=".71" stop-color="#ff6b49"/><stop offset="1" stop-color="#d40e22"/></radialGradient><linearGradient id="linear-gradient" x1="254.52" y1="82.44" x2="257.49" y2="429.79" gradientUnits="userSpaceOnUse"><stop offset="0" stop-color="#ff2c1f" stop-opacity="0"/><stop offset=".7" stop-color="#ff2c1f"/></linearGradient><radialGradient id="radial-gradient-2" cx="-24.41" cy="1927.64" fx="-24.41" fy="1927.64" r="1" gradientTransform="translate(-448180.83 347009.08) rotate(52.91) scale(256.05 -294.05)" gradientUnits="userSpaceOnUse"><stop offset=".51" stop-color="#ff4570" stop-opacity="0"/><stop offset=".99" stop-color="#f459ad"/></radialGradient><radialGradient id="radial-gradient-3" cx="258.14" cy="264.14" fx="258.14" fy="264.14" r="188.61" gradientUnits="userSpaceOnUse"><stop offset=".85" stop-color="#ff0c0c" stop-opacity="0"/><stop offset="1" stop-color="#ff3939" stop-opacity=".78"/></radialGradient><radialGradient id="radial-gradient-4" cx="-27.18" cy="1909.19" fx="-27.18" fy="1909.19" r="1" gradientTransform="translate(-209328.77 151212.6) rotate(54.92) scale(116.66 -135.33)" gradientUnits="userSpaceOnUse"><stop offset=".87" stop-color="#751900"/><stop offset="1" stop-color="#4d1300"/></radialGradient><linearGradient id="linear-gradient-2" x1="338.18" y1="-321.41" x2="342.77" y2="-368.31" gradientTransform="translate(0 -113.62) scale(1 -1)" gradientUnits="userSpaceOnUse"><stop offset=".2" stop-color="#ea412a"/><stop offset="1" stop-color="#ff848b"/></linearGradient><radialGradient id="radial-gradient-5" cx="11.33" cy="1926.42" fx="11.33" fy="1926.42" r="1" gradientTransform="translate(-224991.69 -150582.6) rotate(123.49) scale(124.49 -140.67)" gradientUnits="userSpaceOnUse"><stop offset=".89" stop-color="#751900"/><stop offset="1" stop-color="#4d1300"/></radialGradient><linearGradient id="linear-gradient-3" x1="181.15" y1="-315.12" x2="153.41" y2="-365.73" xlink:href="#linear-gradient-2"/><radialGradient id="radial-gradient-6" cx="-42.81" cy="1983.44" fx="-42.81" fy="1983.44" r="1" gradientTransform="translate(206390.95 -3637.65) rotate(-90) scale(93.63 -103.93)" gradientUnits="userSpaceOnUse"><stop offset=".52" stop-color="#9b2800"/><stop offset="1" stop-color="#4c1200"/></radialGradient><linearGradient id="linear-gradient-4" x1="256.01" y1="267.58" x2="256.01" y2="331.79" gradientTransform="matrix(1, 0, 0, 1, 0, 0)" xlink:href="#linear-gradient-2"/></defs><path d="M256.01,436c99.41,0,180-80.59,180-180s-80.59-180-180-180S76.01,156.59,76.01,256s80.59,180,180,180Z" fill="url(#radial-gradient)"/><path d="M256.01,436c99.41,0,180-80.59,180-180s-80.59-180-180-180S76.01,156.59,76.01,256s80.59,180,180,180Z" fill="url(#linear-gradient)"/><path d="M256.01,436c99.41,0,180-80.59,180-180s-80.59-180-180-180S76.01,156.59,76.01,256s80.59,180,180,180Z" fill="url(#radial-gradient-2)" fill-opacity=".8"/><path d="M256.01,436c99.41,0,180-80.59,180-180s-80.59-180-180-180S76.01,156.59,76.01,256s80.59,180,180,180Z" fill="url(#radial-gradient-3)" fill-opacity=".8"/><path d="M330.89,256.24c-16.49,0-27.44-4.72-33-10.77-2.16-2.36-2.92-5.69-1.98-8.75,.94-3.06,3.44-5.39,6.55-6.12,33.89-7.97,56.82-29.19,63.06-33.35,6.59-4.39,12.03-9.65,15.32-8.16,4.53,2.06-1.85,11.98-5.1,15.76-.94,1.09-18.66,21.43-45.37,34.62,7.31,.24,16.77-1.49,26.56-3.55,4.88-1.02,13.81-4.44,15.26-1.02,1.45,3.42-5.55,10.49-9.87,12.96-9.08,5.19-21.71,8.39-31.45,8.39h.02Z" fill="url(#radial-gradient-4)"/><path d="M330.89,256.24c-16.49,0-27.44-4.72-33-10.77-2.16-2.36-2.92-5.69-1.98-8.75,.94-3.06,3.44-5.39,6.55-6.12,33.89-7.97,56.82-29.19,63.06-33.35,6.59-4.39,12.03-9.65,15.32-8.16,4.53,2.06-1.85,11.98-5.1,15.76-.94,1.09-18.66,21.43-45.37,34.62,7.31,.24,16.77-1.49,26.56-3.55,4.88-1.02,13.81-4.44,15.26-1.02,1.45,3.42-5.55,10.49-9.87,12.96-9.08,5.19-21.71,8.39-31.45,8.39h.02Z" fill="#421d30"/><path d="M329.44,256.23c.47,0,.94,.01,1.42,.01h0s.01,0,.02,0h0c.47,0,.94,0,1.41-.02,9.52-.29,21.38-3.43,30.02-8.37,4.32-2.47,11.32-9.54,9.87-12.96-1.14-2.69-6.9-1.15-11.69,.12-1.3,.35-2.53,.68-3.57,.9-4.09,.86-8.12,1.66-11.97,2.29-5.35,.87-10.34,1.4-14.59,1.26,4.41-2.18,8.57-4.55,12.45-7,19.65-12.38,32.13-26.71,32.92-27.62,3.25-3.78,9.63-13.7,5.1-15.76-2.48-1.12-6.16,1.57-10.64,4.85-1.48,1.08-3.05,2.22-4.68,3.31-1,.67-2.43,1.77-4.27,3.19-9.61,7.43-30.34,23.46-58.79,30.16-3.11,.73-5.61,3.06-6.55,6.12-.94,3.06-.18,6.39,1.98,8.75,5.39,5.87,15.87,10.49,31.55,10.76Zm-28.35-31.47c26.94-6.34,46.3-21.24,56.2-28.86,2.04-1.57,3.68-2.83,4.9-3.65h0c1.52-1.01,2.99-2.09,4.5-3.19l.05-.04c1.44-1.05,2.97-2.16,4.42-3.1,1.43-.93,3.14-1.91,4.95-2.51,1.84-.6,4.48-1.02,7.2,.21h.01c1.72,.79,3.13,2.07,4.03,3.76,.85,1.6,1.07,3.23,1.06,4.56-.03,2.51-.9,4.97-1.73,6.83-1.72,3.86-4.49,7.77-6.39,9.99h0c-.74,.87-9.11,10.48-22.82,20.86,.45-.12,.94-.25,1.47-.39,.23-.06,.46-.12,.7-.18,1.54-.41,3.36-.88,5.13-1.21,1.67-.31,3.82-.59,5.89-.32,2.06,.27,5.49,1.34,7.06,5.04,1.33,3.14,.4,6.16-.35,7.88-.84,1.9-2.1,3.68-3.36,5.17-2.49,2.96-5.84,5.83-8.71,7.47h0c-10,5.72-23.66,9.18-34.42,9.18h0c-17.44-.01-30.29-5-37.39-12.72h-.01c-3.59-3.93-4.86-9.47-3.29-14.57,1.57-5.1,5.73-8.98,10.91-10.2" fill="url(#linear-gradient-2)" fill-rule="evenodd"/><path d="M181.14,256.24c16.49,0,27.44-4.72,33-10.77,2.16-2.36,2.92-5.69,1.98-8.75-.94-3.06-3.44-5.39-6.55-6.12-33.89-7.97-56.82-29.19-63.06-33.35-6.59-4.39-12.03-9.65-15.32-8.16-4.53,2.06,1.85,11.98,5.1,15.76,.94,1.09,18.66,21.43,45.37,34.62-7.31,.24-16.77-1.49-26.56-3.55-4.88-1.02-13.81-4.44-15.26-1.02-1.45,3.42,5.55,10.49,9.87,12.96,9.08,5.19,21.71,8.39,31.45,8.39h-.02Z" fill="url(#radial-gradient-5)"/><path d="M181.14,256.24c16.49,0,27.44-4.72,33-10.77,2.16-2.36,2.92-5.69,1.98-8.75-.94-3.06-3.44-5.39-6.55-6.12-33.89-7.97-56.82-29.19-63.06-33.35-6.59-4.39-12.03-9.65-15.32-8.16-4.53,2.06,1.85,11.98,5.1,15.76,.94,1.09,18.66,21.43,45.37,34.62-7.31,.24-16.77-1.49-26.56-3.55-4.88-1.02-13.81-4.44-15.26-1.02-1.45,3.42,5.55,10.49,9.87,12.96,9.08,5.19,21.71,8.39,31.45,8.39h-.02Z" fill="#421d30"/><path d="M214.14,245.47c-5.4,5.87-15.87,10.49-31.56,10.76-.47,0-.94,.01-1.42,.01h0s-.02,0-.02,0h0c-.46,0-.93,0-1.41-.02-9.52-.29-21.37-3.43-30.01-8.37-4.32-2.47-11.32-9.54-9.87-12.96,1.14-2.69,6.9-1.15,11.68,.12,1.3,.35,2.53,.68,3.58,.9,4.09,.86,8.12,1.66,11.96,2.29,5.35,.87,10.34,1.4,14.6,1.26-4.41-2.18-8.57-4.55-12.46-7-19.64-12.38-32.13-26.71-32.91-27.62-3.25-3.78-9.63-13.7-5.1-15.76,2.47-1.12,6.16,1.57,10.64,4.85,1.48,1.08,3.04,2.22,4.68,3.31,1,.67,2.43,1.77,4.27,3.19,9.61,7.43,30.33,23.46,58.79,30.16,3.11,.73,5.61,3.06,6.55,6.12,.94,3.06,.18,6.39-1.98,8.75Zm-3.2-20.71c5.18,1.22,9.35,5.1,10.91,10.2,1.57,5.11,.3,10.64-3.29,14.56h0c-7.09,7.73-19.94,12.71-37.39,12.72h0c-10.77,0-24.43-3.45-34.43-9.17h0c-2.86-1.64-6.22-4.51-8.71-7.47-1.25-1.49-2.52-3.26-3.35-5.17-.76-1.72-1.69-4.74-.36-7.88,1.57-3.7,5-4.77,7.07-5.04,2.06-.27,4.21,.01,5.88,.32,1.77,.32,3.59,.8,5.14,1.21,.24,.06,.47,.12,.69,.18,.54,.14,1.03,.27,1.48,.39-13.71-10.38-22.09-20-22.83-20.86h0c-1.91-2.22-4.67-6.13-6.4-9.99-.83-1.86-1.7-4.31-1.72-6.83-.02-1.32,.2-2.95,1.05-4.56,.9-1.69,2.32-2.98,4.03-3.76h0c2.72-1.24,5.37-.81,7.2-.21,1.82,.59,3.53,1.58,4.96,2.51,1.45,.94,2.97,2.05,4.41,3.1l.06,.04c1.5,1.1,2.97,2.18,4.49,3.19h.01c1.22,.82,2.85,2.08,4.89,3.65,9.91,7.62,29.26,22.52,56.21,28.86Z" fill="url(#linear-gradient-3)" fill-rule="evenodd"/><path d="M256.05,274.78c-46.17,0-65.07,43.99-54.72,48.68,2.37,1.06,4.03-.34,6.77-2.64,5.76-4.83,15.87-18.56,47.95-18.56s42.18,13.72,47.94,18.56c2.74,2.3,4.41,3.7,6.78,2.64,10.35-4.69-9.43-48.68-54.72-48.68Z" fill="url(#radial-gradient-6)"/><path d="M256.05,274.78c-46.17,0-65.07,43.99-54.72,48.68,2.37,1.06,4.03-.34,6.77-2.64,5.76-4.83,15.87-18.56,47.95-18.56s42.18,13.72,47.94,18.56c2.74,2.3,4.41,3.7,6.78,2.64,10.35-4.69-9.43-48.68-54.72-48.68Z" fill="#421d30"/><path d="M198.45,329.85h-.01c-3.83-1.74-5.72-5.12-6.45-8.24-.69-3-.46-6.23,.19-9.21,1.31-6.05,4.72-12.94,9.83-19.39,10.35-13.02,28.54-25.23,54.04-25.23,25.1,0,43.26,12.24,53.68,25.2,5.16,6.42,8.65,13.3,10.04,19.32,.69,2.98,.97,6.2,.31,9.22-.69,3.14-2.57,6.57-6.43,8.32h0s-.02,.02-.02,.02c-3.26,1.45-6.42,1.15-9.13-.14-1.89-.9-3.62-2.37-4.75-3.32-.09-.07-.17-.15-.25-.21-1.08-.91-2.08-1.84-3.09-2.79-2.56-2.42-5.26-4.95-9.91-7.54-6.11-3.4-15.47-6.58-30.44-6.58s-24.33,3.19-30.44,6.58c-4.66,2.59-7.36,5.13-9.92,7.54-1.01,.95-2,1.88-3.09,2.79-.08,.07-.16,.14-.25,.21-1.13,.95-2.86,2.42-4.75,3.32-2.71,1.3-5.87,1.59-9.13,.14h-.02Zm112.32-6.39c-2.37,1.06-4.04-.34-6.78-2.64-.7-.59-1.47-1.31-2.34-2.13-6.22-5.85-17.45-16.43-45.6-16.43s-39.39,10.58-45.61,16.43c-.87,.82-1.63,1.54-2.34,2.13-2.74,2.3-4.4,3.7-6.77,2.64-10.35-4.69,8.55-48.69,54.72-48.68,45.29,0,65.07,43.99,54.72,48.68Z" fill="url(#linear-gradient-4)" fill-rule="evenodd"/></svg>