<?xml version="1.0" encoding="UTF-8"?><svg id="Layer_59" xmlns="http://www.w3.org/2000/svg" xmlns:xlink="http://www.w3.org/1999/xlink" viewBox="0 0 512 512"><defs><radialGradient id="radial-gradient" cx="-1574.28" cy="-486.77" fx="-1574.28" fy="-486.77" r="1" gradientTransform="translate(577785.31 -178148.33) scale(366.83 -366.83)" gradientUnits="userSpaceOnUse"><stop offset="0" stop-color="#fff1b6"/><stop offset=".7" stop-color="#ffd400"/><stop offset="1" stop-color="#ffb100"/></radialGradient><radialGradient id="radial-gradient-2" cx="-1560.73" cy="-464.82" fx="-1560.73" fy="-464.82" r="1" gradientTransform="translate(-224626.83 217602.15) rotate(160.3) scale(182.64 -277.24)" gradientUnits="userSpaceOnUse"><stop offset=".56" stop-color="#ffd400" stop-opacity="0"/><stop offset="1" stop-color="#ff8e00" stop-opacity=".85"/></radialGradient><radialGradient id="radial-gradient-3" cx="-1565.49" cy="-449.68" fx="-1565.49" fy="-449.68" r="1" gradientTransform="translate(-178645.22 58407.69) rotate(-178.41) scale(113.21 -140.51)" gradientUnits="userSpaceOnUse"><stop offset=".15" stop-color="#c62400" stop-opacity=".8"/><stop offset="1" stop-color="#ffd400" stop-opacity="0"/></radialGradient><radialGradient id="radial-gradient-4" cx="-1571.61" cy="-559.58" fx="-1571.61" fy="-559.58" r="1" gradientTransform="translate(76976.65 -8922.02) rotate(12.89) scale(46.31 -46.31)" gradientUnits="userSpaceOnUse"><stop offset="0" stop-color="#a80000"/><stop offset="1" stop-color="#ffd400" stop-opacity="0"/></radialGradient><radialGradient id="radial-gradient-5" cx="-1561.85" cy="-385.61" fx="-1561.85" fy="-385.61" r="1" gradientTransform="translate(-143475.79 19611.88) rotate(178.53) scale(92.37 -41.01)" gradientUnits="userSpaceOnUse"><stop offset="0" stop-color="#fff1b6"/><stop offset=".7" stop-color="#ffd400"/><stop offset="1" stop-color="#f7b700"/></radialGradient><radialGradient id="radial-gradient-6" cx="-1567.6" cy="-365.97" fx="-1567.6" fy="-365.97" r="1" gradientTransform="translate(-152464.71 -3921.13) rotate(-173.74) scale(97.15 -34.56)" gradientUnits="userSpaceOnUse"><stop offset=".37" stop-color="#da4e00" stop-opacity=".5"/><stop offset="1" stop-color="#ffe918" stop-opacity="0"/></radialGradient><radialGradient id="radial-gradient-7" cx="-1559.87" cy="-385.58" fx="-1559.87" fy="-385.58" r="1" gradientTransform="translate(-130669.6 22334.41) rotate(177.16) scale(84.58 -40.74)" gradientUnits="userSpaceOnUse"><stop offset="0" stop-color="#f76d42"/><stop offset="1" stop-color="#f7b701" stop-opacity="0"/></radialGradient><radialGradient id="radial-gradient-8" cx="-1579.4" cy="-511.92" fx="-1579.4" fy="-511.92" r="1" gradientTransform="translate(179226.89 -54187.93) scale(113.31 -106.08)" gradientUnits="userSpaceOnUse"><stop offset=".79" stop-color="#ffd400" stop-opacity="0"/><stop offset=".99" stop-color="#ff8e00" stop-opacity=".4"/></radialGradient><radialGradient id="radial-gradient-9" cx="-1600.43" cy="-542.7" fx="-1600.43" fy="-542.7" r="1" gradientTransform="translate(78892.68 -44111.2) rotate(-10.64) scale(53.4 -53.4)" xlink:href="#radial-gradient-4"/><radialGradient id="radial-gradient-10" cx="-1564.08" cy="-403.8" fx="-1564.08" fy="-403.8" r="1" gradientTransform="translate(-178108.33 23898.15) rotate(179.04) scale(114.34 -51.38)" xlink:href="#radial-gradient-5"/><radialGradient id="radial-gradient-11" cx="-1566.92" cy="-378.35" fx="-1566.92" fy="-378.35" r="1" gradientTransform="translate(-171006.54 1764.72) rotate(-175.62) scale(108.93 -38.75)" gradientUnits="userSpaceOnUse"><stop offset=".44" stop-color="#da4e00" stop-opacity=".5"/><stop offset="1" stop-color="#ffe918" stop-opacity="0"/></radialGradient><radialGradient id="radial-gradient-12" cx="-1565.66" cy="-373.69" fx="-1565.66" fy="-373.69" r="1" gradientTransform="translate(-132610.77 3261.77) rotate(-175.36) scale(84.47 -37.02)" xlink:href="#radial-gradient-7"/><radialGradient id="radial-gradient-13" cx="-1578.98" cy="-509.88" fx="-1578.98" fy="-509.88" r="1" gradientTransform="translate(190136.67 -57227.53) scale(120.24 -112.57)" xlink:href="#radial-gradient-8"/><radialGradient id="radial-gradient-14" cx="-1576.01" cy="-484.89" fx="-1576.01" fy="-484.89" r="1" gradientTransform="translate(409661.34 -241288.11) rotate(-3.76) scale(269.42 -441.85)" gradientUnits="userSpaceOnUse"><stop offset=".81" stop-color="#ffd400" stop-opacity="0"/><stop offset=".96" stop-color="#ff9c1f" stop-opacity=".8"/></radialGradient><radialGradient id="radial-gradient-15" cx="-1596.05" cy="-507.29" fx="-1596.05" fy="-507.29" r="1" gradientTransform="translate(91034.38 -77341.93) rotate(-11.58) scale(65.53 -114.09)" gradientUnits="userSpaceOnUse"><stop offset="0" stop-color="#ff8e00" stop-opacity=".9"/><stop offset="1" stop-color="#ffd400" stop-opacity="0"/></radialGradient><radialGradient id="radial-gradient-16" cx="-1632.07" cy="-509.41" fx="-1632.07" fy="-509.41" r="1" gradientTransform="translate(40486.95 -81081.22) rotate(-40.41) scale(51.14 -70.37)" xlink:href="#radial-gradient-15"/><radialGradient id="radial-gradient-17" cx="135.43" cy="216.14" fx="135.43" fy="216.14" r="264.57" gradientUnits="userSpaceOnUse"><stop offset=".32" stop-color="#ffc42e" stop-opacity="0"/><stop offset=".85" stop-color="#ff7dbe"/></radialGradient><radialGradient id="radial-gradient-18" cx="-1602.09" cy="-547.72" fx="-1602.09" fy="-547.72" r="1" gradientTransform="translate(73821.53 -40825.38) rotate(-10.3) scale(49.76 -49.76)" gradientUnits="userSpaceOnUse"><stop offset="0" stop-color="#ba4e00"/><stop offset="1" stop-color="#ffd400" stop-opacity="0"/></radialGradient><radialGradient id="radial-gradient-19" cx="-1600.43" cy="-542.7" fx="-1600.43" fy="-542.7" r="1" gradientTransform="translate(78887 -44063.42) rotate(-10.64) scale(53.4 -53.4)" gradientUnits="userSpaceOnUse"><stop offset="0" stop-color="#a81e00"/><stop offset="1" stop-color="#ffd400" stop-opacity="0"/></radialGradient><radialGradient id="radial-gradient-20" cx="-1600.62" cy="-543.63" fx="-1600.62" fy="-543.63" r="1" gradientTransform="translate(23563.39 -57540.15) rotate(-41.3) scale(30.86 -51.49) skewX(20.53)" gradientUnits="userSpaceOnUse"><stop offset="0" stop-color="#fff" stop-opacity=".5"/><stop offset="1" stop-color="#ffd400" stop-opacity="0"/></radialGradient><radialGradient id="radial-gradient-21" cx="-1563.46" cy="-413.78" fx="-1563.46" fy="-413.78" r="1" gradientTransform="translate(-180303.37 31997.36) rotate(177.69) scale(116.27 -59.2)" xlink:href="#radial-gradient-5"/><radialGradient id="radial-gradient-22" cx="-1568.43" cy="-383.82" fx="-1568.43" fy="-383.82" r="1" gradientTransform="translate(-158724.86 -4068.93) rotate(-172.74) scale(100.92 -41.29)" xlink:href="#radial-gradient-11"/><radialGradient id="radial-gradient-23" cx="-1566.01" cy="-376.45" fx="-1566.01" fy="-376.45" r="1" gradientTransform="translate(-145848.72 3506.09) rotate(-175.67) scale(92.92 -38.02)" xlink:href="#radial-gradient-7"/><radialGradient id="radial-gradient-24" cx="-1579.18" cy="-510.86" fx="-1579.18" fy="-510.86" r="1" gradientTransform="translate(184762.98 -55645.56) scale(116.81 -109.36)" xlink:href="#radial-gradient-8"/><radialGradient id="radial-gradient-25" cx="-1564.07" cy="-413.06" fx="-1564.07" fy="-413.06" r="1.01" gradientTransform="translate(-184099.39 29250.87) rotate(178.53) scale(118.38 -58.74)" xlink:href="#radial-gradient-5"/><radialGradient id="radial-gradient-26" cx="-1578.73" cy="-508.65" fx="-1578.73" fy="-508.65" r="1.01" gradientTransform="translate(197367.03 -59188.26) scale(124.84 -116.88)" xlink:href="#radial-gradient-8"/></defs><path d="M253.84,63.12c-88.33,0-134.04,32.27-146.26,97.74-14.55,72.35,37.52,129.41,57.93,146.79,21.58,18.37,41.8,47.32,39.66,93.59-2.63,56.96,57.83,65.21,76.16,11.84,15.48-45.07-20.2-102.1,2.21-125.96,8.02-7.68,30.6-10.07,30.6-10.07,10.82-1.55,29.59-1.85,36.45-2.06,44.86-9.6,11.66-37,13.62-61.21,9.34-30.57,14.06-150.66-110.37-150.66Z" fill="url(#radial-gradient)"/><path d="M165.61,307.73c21.54,18.38,41.69,47.31,39.56,93.51-2.63,56.96,57.83,65.21,76.16,11.84,7.5-21.86,2.98-46.53-1.12-68.86-4.31-23.5-8.14-44.41,3-56.75,.12-.12,.23-.23,.34-.35,15.32-16.32,18.09-22.96,17.91-25.36,1.6,.32,4.76,.38,10.62-.48,50.89-7.45,51.15-17.29,51.67-37.22,.08-3.16,.17-6.58,.47-10.28,9.34-30.57,15.67-150.66-110.37-150.66h-.01c-88.33,0-134.04,32.27-146.26,97.74-14.55,72.35,37.52,129.41,57.93,146.79,.03,.03,.06,.06,.1,.08Z" fill="url(#radial-gradient-2)" fill-rule="evenodd" isolation="isolate" opacity=".7"/><path d="M138.35,172.33c112.33-6.83,63.64-96.75,137.07-83.95,18.9,3.3,19.36,148.81,18.85,177.1-32.45,7.4-24.05-15.12-24.05-15.12,0,0-20.93-74.39-131.87-78.04h0Z" fill="url(#radial-gradient-3)"/><path d="M200.12,111.15c-5.14-27.36,16.11-47.2,43.86-44.94,32.45,2.64,50.07-1.03,55.21,26.33,5.14,27.36-12.87,53.7-40.23,58.84-27.36,5.14-53.7-12.87-58.84-40.23Z" fill="url(#radial-gradient-4)"/><path d="M263.33,132.26c-26.47-2.61-33.66-47.59-9.44-57.3,32.39-12.99,85.71-14.39,105.05-1.57,19.34,12.82,22.91,44.89-2.63,54.04-25.55,9.15-66.51,7.44-92.98,4.83Z" fill="url(#radial-gradient-5)"/><path d="M263.33,132.26c-26.47-2.61-33.66-47.59-9.44-57.3,32.39-12.99,85.71-14.39,105.05-1.57,19.34,12.82,22.91,44.89-2.63,54.04-25.55,9.15-66.51,7.44-92.98,4.83Z" fill="url(#radial-gradient-6)"/><path d="M263.33,132.26c-26.47-2.61-33.66-47.59-9.44-57.3,32.39-12.99,85.71-14.39,105.05-1.57,19.34,12.82,22.91,44.89-2.63,54.04-25.55,9.15-66.51,7.44-92.98,4.83Z" fill="url(#radial-gradient-7)"/><path d="M263.33,132.26c-26.47-2.61-33.66-47.59-9.44-57.3,32.39-12.99,85.71-14.39,105.05-1.57,19.34,12.82,22.91,44.89-2.63,54.04-25.55,9.15-66.51,7.44-92.98,4.83Z" fill="url(#radial-gradient-8)"/><path d="M249.65,97.15c27.83,0,50.4,22.57,50.4,50.4s-22.57,50.4-50.4,50.4-50.4-22.56-50.4-50.4,22.56-50.4,50.4-50.4Z" fill="url(#radial-gradient-9)"/><path d="M265.12,175.12c-30.71-2.52-45.2-52.62-10.85-62.57,38.53-11.16,99.51-15.31,121.9-2.56,22.39,12.75,26.56,50.7-3.13,59.95-29.69,9.24-77.21,7.7-107.92,5.18Z" fill="url(#radial-gradient-10)"/><path d="M265.12,175.12c-30.71-2.52-45.2-52.62-10.85-62.57,38.53-11.16,99.51-15.31,121.9-2.56,22.39,12.75,26.56,50.7-3.13,59.95-29.69,9.24-77.21,7.7-107.92,5.18Z" fill="url(#radial-gradient-11)"/><path d="M265.12,175.12c-30.71-2.52-45.2-52.62-10.85-62.57,38.53-11.16,99.51-15.31,121.9-2.56,22.39,12.75,26.56,50.7-3.13,59.95-29.69,9.24-77.21,7.7-107.92,5.18Z" fill="url(#radial-gradient-12)"/><path d="M265.12,175.12c-30.71-2.52-45.2-52.62-10.85-62.57,38.53-11.16,99.51-15.31,121.9-2.56,22.39,12.75,26.56,50.7-3.13,59.95-29.69,9.24-77.21,7.7-107.92,5.18Z" fill="url(#radial-gradient-13)"/><path d="M352.93,275.07c-4.29,0-57.75-.33-69.38,12.05-22.41,23.86,13.27,80.89-2.21,125.96-18.33,53.37-78.8,45.11-76.16-11.84,2.14-46.27-18.08-75.22-39.66-93.59-7.44-6.33-19.09-17.94-30.18-33.64,63.69-47.52,132.91-40.14,172.47-16.92l45.12,17.98Z" fill="url(#radial-gradient-14)"/><path d="M352.93,275.07c-4.29,0-57.75-.33-69.38,12.05-22.41,23.86,13.27,80.89-2.21,125.96-18.33,53.37-78.8,45.11-76.16-11.84,2.14-46.27-18.08-75.22-39.66-93.59-7.44-6.33-19.09-17.94-30.18-33.64,63.69-47.52,132.91-40.14,172.47-16.92l45.12,17.98Z" fill="url(#radial-gradient-15)" fill-opacity=".7"/><path d="M352.93,275.07c-4.29,0-57.75-.33-69.38,12.05-22.41,23.86,13.27,80.89-2.21,125.96-18.33,53.37-78.8,45.11-76.16-11.84,2.14-46.27-18.08-75.22-39.66-93.59-7.44-6.33-19.09-17.94-30.18-33.64,63.69-47.52,132.91-40.14,172.47-16.92l45.12,17.98Z" fill="url(#radial-gradient-16)" fill-opacity=".4"/><path d="M352.93,275.07c-4.29,0-57.75-.33-69.38,12.05-22.41,23.86,13.27,80.89-2.21,125.96-18.33,53.37-78.8,45.11-76.16-11.84,2.14-46.27-18.08-75.22-39.66-93.59-7.44-6.33-19.09-17.94-30.18-33.64,63.69-47.52,132.91-40.14,172.47-16.92l45.12,17.98Z" fill="url(#radial-gradient-17)" fill-opacity=".8" isolation="isolate" opacity=".7"/><path d="M258.3,189.75c27.83,0,50.4,22.57,50.4,50.4s-22.57,50.4-50.4,50.4-50.4-22.57-50.4-50.4,22.56-50.4,50.4-50.4Z" fill="url(#radial-gradient-18)"/><path d="M243.98,144.93c27.83,0,50.4,22.57,50.4,50.4s-22.57,50.4-50.4,50.4-50.4-22.57-50.4-50.4,22.56-50.4,50.4-50.4Z" fill="url(#radial-gradient-19)"/><path d="M179.93,188.23c14.31-5.98,34.61,10,45.34,35.68,10.73,25.69,7.82,51.35-6.49,57.33s-34.61-10-45.34-35.68c-10.73-25.69-7.82-51.35,6.49-57.33Z" fill="url(#radial-gradient-20)"/><path d="M262.97,223.36c-32.14-3.38-46.64-49.94-11.09-62.57,43.94-15.61,113.69-15.93,136.66-3.19,22.97,12.73,27.21,50.69-3.25,59.96-30.46,9.27-90.9,9.11-122.32,5.8Z" fill="url(#radial-gradient-21)"/><path d="M262.97,223.36c-32.14-3.38-46.64-49.94-11.09-62.57,43.94-15.61,113.69-15.93,136.66-3.19,22.97,12.73,27.21,50.69-3.25,59.96-30.46,9.27-90.9,9.11-122.32,5.8Z" fill="url(#radial-gradient-22)"/><path d="M262.97,223.36c-32.14-3.38-46.64-49.94-11.09-62.57,43.94-15.61,113.69-15.93,136.66-3.19,22.97,12.73,27.21,50.69-3.25,59.96-30.46,9.27-90.9,9.11-122.32,5.8Z" fill="url(#radial-gradient-23)"/><path d="M262.97,223.36c-32.14-3.38-46.64-49.94-11.09-62.57,43.94-15.61,113.69-15.93,136.66-3.19,22.97,12.73,27.21,50.69-3.25,59.96-30.46,9.27-90.9,9.11-122.32,5.8Z" fill="url(#radial-gradient-24)"/><path d="M268.42,272.61c-29.08-7.62-36.42-45.73-.91-58.82,42.74-15.75,92.74-9.18,115.99,.36,24.01,9.85,27.55,48.42-2.14,57.66-16.39,5.11-36.14,3.63-56.15,4.28-22.91,.06-43.07-.18-56.79-3.48Z" fill="url(#radial-gradient-25)"/><path d="M274.04,273.74c-34.42-3.11-44.31-45.32-6.53-59.95,42.74-15.75,92.74-9.18,115.99,.36,24.01,9.85,27.55,48.66-2.14,57.9-15.78,4.92-34.45,4.04-56.15,4.04-25.16,0-37.45-1.5-51.16-2.35Z" fill="url(#radial-gradient-26)"/></svg>